<svg xmlns="http://www.w3.org/2000/svg" xmlns:xlink="http://www.w3.org/1999/xlink" width="1440" height="335"><defs><linearGradient id="b" x1="50%" x2="50%" y1="74.658%" y2="-91.141%"><stop offset="0%" stop-color="#FFF"/><stop offset="100%" stop-color="#ADC4EB"/></linearGradient><linearGradient id="d" x1="105.724%" x2="50%" y1="35.331%" y2="52.879%"><stop offset="0%" stop-color="#1B61DB" stop-opacity=".25"/><stop offset="0%" stop-color="#2668DD" stop-opacity=".285"/><stop offset="100%" stop-color="#FFF" stop-opacity=".15"/></linearGradient><linearGradient id="e" x1="105.724%" x2="50%" y1="35.114%" y2="52.922%"><stop offset="0%" stop-color="#1B61DB" stop-opacity=".25"/><stop offset="0%" stop-color="#2668DD" stop-opacity=".285"/><stop offset="100%" stop-color="#FFF" stop-opacity=".15"/></linearGradient><linearGradient id="f" x1="105.724%" x2="50%" y1="35.332%" y2="52.879%"><stop offset="0%" stop-color="#1B61DB" stop-opacity=".25"/><stop offset="0%" stop-color="#2668DD" stop-opacity=".285"/><stop offset="100%" stop-color="#FFF" stop-opacity=".15"/></linearGradient><linearGradient id="g" x1="105.724%" x2="50%" y1="35.333%" y2="52.879%"><stop offset="0%" stop-color="#1B61DB" stop-opacity=".25"/><stop offset="0%" stop-color="#2668DD" stop-opacity=".285"/><stop offset="100%" stop-color="#FFF" stop-opacity=".15"/></linearGradient><linearGradient id="h" x1="50%" x2="11.138%" y1="33.414%" y2="50%"><stop offset="0%" stop-color="#AEB3BA" stop-opacity=".243"/><stop offset="100%" stop-color="#FFF" stop-opacity=".256"/></linearGradient><linearGradient id="i" x1="105.724%" x2="50%" y1="35.114%" y2="52.922%"><stop offset="0%" stop-color="#1B61DB" stop-opacity=".25"/><stop offset="0%" stop-color="#2668DD" stop-opacity=".285"/><stop offset="100%" stop-color="#FFF" stop-opacity=".15"/></linearGradient><linearGradient id="j" x1="50%" x2="11.138%" y1="33.413%" y2="50%"><stop offset="0%" stop-color="#AEB3BA" stop-opacity=".243"/><stop offset="100%" stop-color="#FFF" stop-opacity=".256"/></linearGradient><linearGradient id="k" x1="105.724%" x2="50%" y1="35.33%" y2="52.879%"><stop offset="0%" stop-color="#1B61DB" stop-opacity=".25"/><stop offset="0%" stop-color="#2668DD" stop-opacity=".285"/><stop offset="100%" stop-color="#FFF" stop-opacity=".15"/></linearGradient><linearGradient id="l" x1="50%" x2="11.138%" y1="33.166%" y2="50%"><stop offset="0%" stop-color="#AEB3BA" stop-opacity=".243"/><stop offset="100%" stop-color="#FFF" stop-opacity=".256"/></linearGradient><linearGradient id="m" x1="50%" x2="11.138%" y1="33.411%" y2="50%"><stop offset="0%" stop-color="#AEB3BA" stop-opacity=".243"/><stop offset="100%" stop-color="#FFF" stop-opacity=".256"/></linearGradient><linearGradient id="n" x1="50%" x2="11.138%" y1="33.166%" y2="50%"><stop offset="0%" stop-color="#AEB3BA" stop-opacity=".243"/><stop offset="100%" stop-color="#FFF" stop-opacity=".256"/></linearGradient><path id="a" d="M0 0h1440v335H0z"/></defs><g fill="none" fill-rule="evenodd"><mask id="c" fill="#fff"><use xlink:href="#a"/></mask><use fill="url(#b)" xlink:href="#a"/><g mask="url(#c)"><path fill="url(#d)" d="M1016.647 249.735l-16.748-9.669 16.747-9.668 16.746 9.668z" transform="translate(33 28)"/><path fill="url(#e)" d="M1075.014 310.746l-16.746-9.668 93.889-54.678 16.747 9.669z" transform="translate(33 28)"/><path fill="url(#f)" d="M1323.119 232.562l16.747 9.668 16.745-9.668-16.745-9.668z" transform="translate(33 28)"/><path fill="url(#g)" d="M869.247 65.093l-16.748-9.668 16.747-9.667 16.746 9.667z" transform="translate(33 28)"/><path fill="url(#h)" d="M872.547 209.193l-16.748-9.668 16.747-9.667 16.746 9.667z" transform="translate(33 28)"/><path fill="url(#g)" d="M763.647 270.794l-16.748-9.668 16.747-9.668 16.746 9.668z" transform="translate(33 28)"/><path fill="url(#i)" d="M281.914 293.146l-16.746-9.668 93.889-54.678 16.746 9.669z" transform="translate(33 28)"/><path fill="url(#f)" d="M259.846 307.094l-16.746-9.668 16.745-9.668 16.746 9.668z" transform="translate(33 28)"/><path fill="url(#j)" d="M381.946 321.394l-16.746-9.668 16.745-9.668 16.746 9.668zM166.346 187.193l-16.746-9.668 16.745-9.667 16.746 9.667z" transform="translate(33 28)"/><path fill="url(#d)" d="M851.647 196.935l-16.748-9.669 16.747-9.667 16.746 9.667z" transform="translate(33 28)"/><path fill="url(#k)" d="M445.746 196.935L429 187.266l16.745-9.667 16.746 9.667z" transform="translate(33 28)"/><path fill="url(#e)" d="M1241.115 299.746l-16.747-9.668 93.89-54.678 16.746 9.669z" transform="translate(33 28)"/><path fill="url(#i)" d="M63.014 145.747l-16.746-9.668L140.157 81.4l16.746 9.669z" transform="translate(33 28)"/><path fill="url(#l)" d="M305.014 199.647l-16.746-9.668 93.889-54.679 16.746 9.669z" transform="translate(33 28)"/><path fill="url(#i)" d="M33.314 193.047l-16.746-9.668 93.889-54.679 16.746 9.669z" transform="translate(33 28)"/><path fill="url(#g)" d="M1049.466 119.03l-16.747-9.668 16.747-9.668 16.746 9.668z" transform="translate(33 28)"/><path fill="url(#h)" d="M1016.466 284.03l-16.747-9.667 16.747-9.668 16.746 9.668z" transform="translate(33 28)"/><path fill="url(#f)" d="M412.566 136.63l-16.747-9.668 16.747-9.668 16.745 9.668zM0 311.726l16.745 9.668 16.747-9.668-16.747-9.668z" transform="translate(33 28)"/><path fill="url(#g)" d="M1054.047 322.494l-16.748-9.668 16.747-9.668 16.746 9.668z" transform="translate(33 28)"/><path fill="url(#e)" d="M604.214 72.047l-16.746-9.668L681.357 7.7l16.747 9.669z" transform="translate(33 28)"/><path fill="url(#f)" d="M583.246 83.793L566.5 74.125l16.745-9.667 16.746 9.667z" transform="translate(33 28)"/><path fill="url(#i)" d="M564.614 288.746l-16.746-9.668 93.889-54.678 16.746 9.669z" transform="translate(33 28)"/><path fill="url(#g)" d="M733.947 197.093l-16.748-9.668 16.747-9.667 16.746 9.667z" transform="translate(33 28)"/><path fill="url(#k)" d="M0 291.766l16.745 9.669 16.747-9.669-16.747-9.668z" transform="translate(33 28)"/><path fill="url(#f)" d="M199.346 55.193L182.6 45.525l16.745-9.667 16.746 9.667z" transform="translate(33 28)"/><path fill="url(#m)" d="M298.346 51.735L281.6 42.066l16.745-9.667 16.746 9.667z" transform="translate(33 28)"/><path fill="url(#j)" d="M266.446 242.194l-16.746-9.668 16.745-9.668 16.746 9.668z" transform="translate(33 28)"/><path fill="url(#k)" d="M513.946 312.435l-16.746-9.669 16.745-9.668 16.746 9.668z" transform="translate(33 28)"/><path fill="url(#n)" d="M950.714 176.547l-16.746-9.668 93.889-54.679 16.747 9.669z" transform="translate(33 28)"/><path fill="url(#l)" d="M473.458 0l-93.89 54.679 16.747 9.668 93.888-54.678z" transform="translate(33 28)"/><path fill="url(#n)" d="M665.814 328.346l-16.746-9.668L742.957 264l16.747 9.669z" transform="translate(33 28)"/><path fill="url(#e)" d="M794.514 134.747l-16.746-9.668L871.657 70.4l16.747 9.669z" transform="translate(33 28)"/><path fill="url(#n)" d="M631.714 154.547l-16.746-9.668L708.857 90.2l16.747 9.669z" transform="translate(33 28)"/></g><path fill="#FFF" opacity=".5" d="M0 0h1440v335H0z"/></g></svg>