<svg xmlns="http://www.w3.org/2000/svg" xmlns:xlink="http://www.w3.org/1999/xlink" width="539" height="624"><defs><filter id="c" width="118.2%" height="163.8%" x="-7.6%" y="-21.6%" filterUnits="objectBoundingBox"><feMorphology in="SourceAlpha" operator="dilate" radius=".5" result="shadowSpreadOuter1"/><feOffset dx="3" dy="6" in="shadowSpreadOuter1" result="shadowOffsetOuter1"/><feGaussianBlur in="shadowOffsetOuter1" result="shadowBlurOuter1" stdDeviation="5"/><feComposite in="shadowBlurOuter1" in2="SourceAlpha" operator="out" result="shadowBlurOuter1"/><feColorMatrix in="shadowBlurOuter1" values="0 0 0 0 0.106 0 0 0 0 0.38 0 0 0 0 0.859 0 0 0 0.1 0"/></filter><filter id="e" width="118.4%" height="163.8%" x="-7.7%" y="-21.6%" filterUnits="objectBoundingBox"><feMorphology in="SourceAlpha" operator="dilate" radius=".5" result="shadowSpreadOuter1"/><feOffset dx="3" dy="6" in="shadowSpreadOuter1" result="shadowOffsetOuter1"/><feGaussianBlur in="shadowOffsetOuter1" result="shadowBlurOuter1" stdDeviation="5"/><feComposite in="shadowBlurOuter1" in2="SourceAlpha" operator="out" result="shadowBlurOuter1"/><feColorMatrix in="shadowBlurOuter1" values="0 0 0 0 0.106 0 0 0 0 0.38 0 0 0 0 0.859 0 0 0 0.1 0"/></filter><filter id="g" width="120.2%" height="163.8%" x="-8.5%" y="-21.6%" filterUnits="objectBoundingBox"><feMorphology in="SourceAlpha" operator="dilate" radius=".5" result="shadowSpreadOuter1"/><feOffset dx="3" dy="6" in="shadowSpreadOuter1" result="shadowOffsetOuter1"/><feGaussianBlur in="shadowOffsetOuter1" result="shadowBlurOuter1" stdDeviation="5"/><feComposite in="shadowBlurOuter1" in2="SourceAlpha" operator="out" result="shadowBlurOuter1"/><feColorMatrix in="shadowBlurOuter1" values="0 0 0 0 0.106 0 0 0 0 0.38 0 0 0 0 0.859 0 0 0 0.1 0"/></filter><filter id="i" width="117.5%" height="163.8%" x="-7.3%" y="-21.6%" filterUnits="objectBoundingBox"><feMorphology in="SourceAlpha" operator="dilate" radius=".5" result="shadowSpreadOuter1"/><feOffset dx="3" dy="6" in="shadowSpreadOuter1" result="shadowOffsetOuter1"/><feGaussianBlur in="shadowOffsetOuter1" result="shadowBlurOuter1" stdDeviation="5"/><feComposite in="shadowBlurOuter1" in2="SourceAlpha" operator="out" result="shadowBlurOuter1"/><feColorMatrix in="shadowBlurOuter1" values="0 0 0 0 0.106 0 0 0 0 0.38 0 0 0 0 0.859 0 0 0 0.1 0"/></filter><filter id="k" width="116.6%" height="163.8%" x="-7%" y="-21.6%" filterUnits="objectBoundingBox"><feMorphology in="SourceAlpha" operator="dilate" radius=".5" result="shadowSpreadOuter1"/><feOffset dx="3" dy="6" in="shadowSpreadOuter1" result="shadowOffsetOuter1"/><feGaussianBlur in="shadowOffsetOuter1" result="shadowBlurOuter1" stdDeviation="5"/><feComposite in="shadowBlurOuter1" in2="SourceAlpha" operator="out" result="shadowBlurOuter1"/><feColorMatrix in="shadowBlurOuter1" values="0 0 0 0 0.106 0 0 0 0 0.38 0 0 0 0 0.859 0 0 0 0.1 0"/></filter><filter id="m" width="117.7%" height="163.8%" x="-7.4%" y="-21.6%" filterUnits="objectBoundingBox"><feMorphology in="SourceAlpha" operator="dilate" radius=".5" result="shadowSpreadOuter1"/><feOffset dx="3" dy="6" in="shadowSpreadOuter1" result="shadowOffsetOuter1"/><feGaussianBlur in="shadowOffsetOuter1" result="shadowBlurOuter1" stdDeviation="5"/><feComposite in="shadowBlurOuter1" in2="SourceAlpha" operator="out" result="shadowBlurOuter1"/><feColorMatrix in="shadowBlurOuter1" values="0 0 0 0 0.106 0 0 0 0 0.38 0 0 0 0 0.859 0 0 0 0.1 0"/></filter><filter id="o" width="116.1%" height="122.2%" x="-6.7%" y="-7.5%" filterUnits="objectBoundingBox"><feMorphology in="SourceAlpha" operator="dilate" radius=".5" result="shadowSpreadOuter1"/><feOffset dx="3" dy="6" in="shadowSpreadOuter1" result="shadowOffsetOuter1"/><feGaussianBlur in="shadowOffsetOuter1" result="shadowBlurOuter1" stdDeviation="5"/><feComposite in="shadowBlurOuter1" in2="SourceAlpha" operator="out" result="shadowBlurOuter1"/><feColorMatrix in="shadowBlurOuter1" values="0 0 0 0 0.106 0 0 0 0 0.38 0 0 0 0 0.859 0 0 0 0.1 0"/></filter><path id="d" d="M6 0h191a6 6 0 016 6v46a6 6 0 01-6 6H6a6 6 0 01-6-6V6a6 6 0 016-6z"/><path id="f" d="M6 0h189a6 6 0 016 6v46a6 6 0 01-6 6H6a6 6 0 01-6-6V6a6 6 0 016-6z"/><path id="h" d="M6 0h171a6 6 0 016 6v46a6 6 0 01-6 6H6a6 6 0 01-6-6V6a6 6 0 016-6z"/><path id="j" d="M6 0h200a6 6 0 016 6v46a6 6 0 01-6 6H6a6 6 0 01-6-6V6a6 6 0 016-6z"/><path id="l" d="M6 0h211a6 6 0 016 6v46a6 6 0 01-6 6H6a6 6 0 01-6-6V6a6 6 0 016-6z"/><path id="n" d="M6 0h197a6 6 0 016 6v46a6 6 0 01-6 6H6a6 6 0 01-6-6V6a6 6 0 016-6z"/><linearGradient id="a" x1="50%" x2="50.505%" y1="80.392%" y2="115.087%"><stop offset="0%" stop-color="#D0DBEE"/><stop offset="100%" stop-color="#FFF" stop-opacity="0"/></linearGradient><linearGradient id="b" x1="50%" x2="50%" y1="72.704%" y2="100%"><stop offset="0%" stop-color="#D0DBEE"/><stop offset="100%" stop-color="#FFF" stop-opacity="0"/></linearGradient><rect id="p" width="230" height="167" x="22" y="0" rx="6"/></defs><g fill="none" fill-rule="evenodd"><g stroke-width="3" opacity=".772"><path stroke="url(#a)" d="M138.416 1.136v3.875c0 16.552 12.622 30.373 29.107 31.87l72.464 6.578c20.605 1.87 36.384 19.146 36.384 39.836v127.756c0 19.53-14.105 36.205-33.364 39.445l-70.393 11.843c-19.741 3.32-34.198 20.413-34.198 40.431V306h0v125.242" transform="translate(136 187)"/><path stroke="url(#b)" d="M.416 0v5.011c0 16.552 12.622 30.373 29.107 31.87l72.464 6.578c20.605 1.87 36.384 19.146 36.384 39.836v239.103h0" transform="matrix(-1 0 0 1 274.786 187)"/></g><g transform="translate(311 342)"><use fill="#000" filter="url(#c)" xlink:href="#d"/><use fill="#FFF" stroke="#F2F6FD" xlink:href="#d"/><path fill="#858D98" fill-rule="nonzero" d="M64.656 35l-.272-1.408h-5.2V30.2h3.904l-.272-1.424h-3.632v-3.248h4.784l-.272-1.408h-6.288V35h7.248zm3.023 0v-5.424c.224-.17.454-.341.688-.512.235-.17.475-.31.72-.416.246-.107.491-.16.736-.16.278 0 .494.067.648.2.155.133.267.32.336.56.07.24.104.53.104.872V35h1.808v-5.152l-.007-.282-.003-.042.272-.204.354-.256c.24-.17.483-.31.728-.416.246-.107.486-.16.72-.16.278 0 .494.067.648.2.155.133.267.32.336.56.07.24.104.53.104.872V35h1.808v-5.152c0-.576-.082-1.077-.248-1.504a2.055 2.055 0 00-.792-1c-.362-.24-.837-.36-1.424-.36-.288 0-.597.048-.928.144-.33.096-.66.232-.992.408a5.162 5.162 0 00-.708.454l-.201.163-.08-.152a2.008 2.008 0 00-.627-.657c-.362-.24-.837-.36-1.424-.36-.277 0-.584.048-.92.144a4.928 4.928 0 00-.992.408 5.887 5.887 0 00-.936.632l-.32-.928h-1.2V35h1.792zm14.294.192c.405 0 .8-.096 1.184-.288.384-.192.715-.421.992-.688l.272.784h1.216v-5.184c0-.523-.147-.997-.44-1.424a2.992 2.992 0 00-1.176-1 3.7 3.7 0 00-1.648-.36c-.213 0-.496.03-.848.088a8.644 8.644 0 00-1.04.24 2.933 2.933 0 00-.816.36l.48 1.472a8.495 8.495 0 011.048-.36c.4-.112.803-.168 1.208-.168.501 0 .859.147 1.072.44.213.293.325.67.336 1.128v.048h-1.696c-.853.01-1.547.224-2.08.64-.533.416-.8 1.013-.8 1.792 0 .736.224 1.333.672 1.792.448.459 1.136.688 2.064.688zm-.032-1.424a1.17 1.17 0 01-.608-.152 1.063 1.063 0 01-.392-.392c-.09-.16-.136-.33-.136-.512 0-.31.112-.592.336-.848.224-.256.539-.384.944-.384h1.744v1.392a3.45 3.45 0 01-.896.656c-.32.16-.65.24-.992.24zm6.335-7.776c.299 0 .552-.104.76-.312.208-.208.312-.461.312-.76a.996.996 0 00-.32-.752 1.056 1.056 0 00-.752-.304.995.995 0 00-.744.304 1.036 1.036 0 00-.296.752c0 .31.099.565.296.768a.995.995 0 00.744.304zM89.204 35v-7.76h-1.808V35h1.808zm3.768 0V23.704l-1.776.176V35h1.776zm13.032.144l1.792-.256-4.224-10.768h-1.568L97.844 35h1.776l1.024-2.736h4.304l1.056 2.88zm-1.616-4.336h-3.216l1.584-4.24 1.632 4.24zm7.87 4.4c.298 0 .61-.056.936-.168a3.93 3.93 0 00.952-.488l.18-.133.085-.071.39.652h.977V23.72l-1.808.16-.001 3.662a3.843 3.843 0 00-.751-.342 3.006 3.006 0 00-.928-.168c-.8 0-1.494.17-2.08.512a3.446 3.446 0 00-1.352 1.424c-.315.608-.472 1.317-.472 2.128 0 .832.154 1.555.464 2.168.31.613.754 1.09 1.336 1.432.581.341 1.272.512 2.072.512zm.032-1.552a1.9 1.9 0 01-1.112-.328 2.013 2.013 0 01-.712-.904c-.16-.384-.24-.827-.24-1.328 0-.48.08-.91.24-1.288.16-.379.397-.68.712-.904.314-.224.69-.336 1.128-.336.405 0 .776.085 1.112.256.144.073.29.168.436.284l.115.097v3.78l-.07.059a3.6 3.6 0 01-.497.34 2.245 2.245 0 01-1.112.272zm8.874 1.552c.298 0 .61-.056.936-.168a3.93 3.93 0 00.952-.488l.18-.133.085-.071.39.652h.977V23.72l-1.808.16-.001 3.662a3.846 3.846 0 00-.751-.342 3.006 3.006 0 00-.928-.168c-.8 0-1.494.17-2.08.512a3.446 3.446 0 00-1.352 1.424c-.315.608-.472 1.317-.472 2.128 0 .832.154 1.555.464 2.168.309.613.754 1.09 1.336 1.432.581.341 1.272.512 2.072.512zm.032-1.552a1.9 1.9 0 01-1.112-.328 2.013 2.013 0 01-.712-.904c-.16-.384-.24-.827-.24-1.328 0-.48.08-.91.24-1.288.16-.379.397-.68.712-.904.314-.224.69-.336 1.128-.336.405 0 .776.085 1.112.256.144.073.29.168.436.284l.115.097v3.78l-.07.059a3.6 3.6 0 01-.497.34 2.245 2.245 0 01-1.112.272zM128.47 35v-4.944c.277-.256.578-.485.904-.688.325-.203.65-.368.976-.496.325-.128.616-.192.872-.192l-.384-1.44c-.278 0-.58.07-.904.208a5.87 5.87 0 00-.936.504 8.007 8.007 0 00-.768.568l-.592-1.28h-.96V35h1.792zm7.683.192c.405 0 .779-.037 1.12-.112.341-.075.656-.184.944-.328a8.07 8.07 0 00.8-.456l-.544-1.312a9.16 9.16 0 01-1.096.496 3.429 3.429 0 01-1.192.192c-.555 0-1.005-.088-1.352-.264a1.823 1.823 0 01-.784-.728 2.933 2.933 0 01-.344-1.088h5.376v-.384c0-.757-.12-1.45-.36-2.08a3.343 3.343 0 00-1.128-1.52c-.512-.384-1.168-.576-1.968-.576-.79 0-1.47.17-2.04.512a3.377 3.377 0 00-1.312 1.432c-.304.613-.456 1.33-.456 2.152 0 .81.16 1.523.48 2.136.32.613.805 1.088 1.456 1.424.65.336 1.45.504 2.4.504zm1.2-4.816h-3.616c.053-.384.157-.71.312-.976a1.61 1.61 0 01.624-.616 1.81 1.81 0 01.888-.216c.341 0 .632.072.872.216.24.144.437.35.592.616.155.267.264.592.328.976zm5.277 4.832c1.034 0 1.824-.21 2.368-.632.544-.421.816-1 .816-1.736 0-.448-.131-.835-.392-1.16a3.69 3.69 0 00-.992-.848c-.4-.24-.814-.43-1.24-.568a6.914 6.914 0 01-.984-.416c-.283-.15-.424-.325-.424-.528 0-.235.109-.432.328-.592.218-.16.493-.24.824-.24.394 0 .752.05 1.072.152.32.101.645.232.976.392l.56-1.232a3.206 3.206 0 00-.832-.424 6.557 6.557 0 00-.944-.256 4.385 4.385 0 00-.8-.088c-.928 0-1.66.205-2.192.616-.534.41-.8.979-.8 1.704 0 .416.13.776.392 1.08.26.304.589.557.984.76.394.203.794.379 1.2.528.32.085.592.19.816.312.224.123.4.256.528.4a.696.696 0 01.192.472c0 .17-.07.32-.208.448-.14.128-.32.224-.544.288a2.61 2.61 0 01-.72.096c-.224 0-.448-.021-.672-.064a5.08 5.08 0 01-.688-.184 12.58 12.58 0 01-.704-.264l-.544 1.232c.234.16.512.299.832.416.32.117.645.203.976.256.33.053.602.08.816.08zm6.738 0c1.035 0 1.824-.21 2.368-.632.544-.421.816-1 .816-1.736 0-.448-.13-.835-.392-1.16a3.69 3.69 0 00-.992-.848c-.4-.24-.813-.43-1.24-.568a6.914 6.914 0 01-.984-.416c-.283-.15-.424-.325-.424-.528 0-.235.11-.432.328-.592.219-.16.493-.24.824-.24.395 0 .752.05 1.072.152.32.101.645.232.976.392l.56-1.232a3.206 3.206 0 00-.832-.424 6.557 6.557 0 00-.944-.256 4.385 4.385 0 00-.8-.088c-.928 0-1.659.205-2.192.616-.533.41-.8.979-.8 1.704 0 .416.13.776.392 1.08.261.304.59.557.984.76.395.203.795.379 1.2.528.32.085.592.19.816.312.224.123.4.256.528.4a.696.696 0 01.192.472c0 .17-.07.32-.208.448-.139.128-.32.224-.544.288a2.61 2.61 0 01-.72.096c-.224 0-.448-.021-.672-.064a5.08 5.08 0 01-.688-.184 12.58 12.58 0 01-.704-.264l-.544 1.232c.235.16.512.299.832.416.32.117.645.203.976.256.33.053.603.08.816.08zm8.402-.016c.406 0 .779-.037 1.12-.112.342-.075.656-.184.944-.328a8.07 8.07 0 00.8-.456l-.544-1.312a9.16 9.16 0 01-1.096.496 3.429 3.429 0 01-1.192.192c-.554 0-1.005-.088-1.352-.264a1.823 1.823 0 01-.784-.728 2.933 2.933 0 01-.344-1.088h5.376v-.384c0-.757-.12-1.45-.36-2.08a3.343 3.343 0 00-1.128-1.52c-.512-.384-1.168-.576-1.968-.576-.79 0-1.47.17-2.04.512a3.377 3.377 0 00-1.312 1.432c-.304.613-.456 1.33-.456 2.152 0 .81.16 1.523.48 2.136.32.613.806 1.088 1.456 1.424.65.336 1.45.504 2.4.504zm1.2-4.816h-3.616c.054-.384.158-.71.312-.976a1.61 1.61 0 01.624-.616 1.81 1.81 0 01.888-.216c.342 0 .632.072.872.216.24.144.438.35.592.616.155.267.264.592.328.976zm5.277 4.832c1.034 0 1.824-.21 2.368-.632.544-.421.816-1 .816-1.736 0-.448-.131-.835-.392-1.16a3.69 3.69 0 00-.992-.848c-.4-.24-.814-.43-1.24-.568a6.914 6.914 0 01-.984-.416c-.283-.15-.424-.325-.424-.528 0-.235.109-.432.328-.592.218-.16.493-.24.824-.24.394 0 .752.05 1.072.152.32.101.645.232.976.392l.56-1.232a3.206 3.206 0 00-.832-.424 6.557 6.557 0 00-.944-.256 4.385 4.385 0 00-.8-.088c-.928 0-1.66.205-2.192.616-.534.41-.8.979-.8 1.704 0 .416.13.776.392 1.08.261.304.589.557.984.76.394.203.794.379 1.2.528.32.085.592.19.816.312.224.123.4.256.528.4a.696.696 0 01.192.472c0 .17-.07.32-.208.448-.139.128-.32.224-.544.288a2.61 2.61 0 01-.72.096c-.224 0-.448-.021-.672-.064a5.08 5.08 0 01-.688-.184 12.58 12.58 0 01-.704-.264l-.544 1.232c.234.16.512.299.832.416.32.117.645.203.976.256.33.053.602.08.816.08z"/><g transform="translate(13 11)"><circle cx="18" cy="18" r="18" fill="#1B61DB" opacity=".08"/><g stroke="#E8EFFB" stroke-linecap="round" stroke-width="1.2"><path fill="#1B61DB" d="M25.79 25.281H10.56a1.2 1.2 0 01-1.2-1.2V12.56a1.2 1.2 0 011.2-1.2h15.23a1.2 1.2 0 011.2 1.2V24.08a1.2 1.2 0 01-1.2 1.2z"/><path d="M9.36 13.868l8.85 5.609 8.78-5.65"/></g></g></g><g transform="translate(312 255)"><use fill="#000" filter="url(#e)" xlink:href="#f"/><use fill="#FFF" stroke="#F2F6FD" xlink:href="#f"/><path fill="#858D98" fill-rule="nonzero" d="M59.184 35v-3.904h1.328c.565 0 1.11-.07 1.632-.208.523-.139.99-.352 1.4-.64.41-.288.733-.656.968-1.104.235-.448.352-.976.352-1.584 0-.821-.187-1.485-.56-1.992-.373-.507-.88-.875-1.52-1.104-.64-.23-1.35-.344-2.128-.344h-3.248V35h1.776zm1.408-5.392h-1.408v-3.984h1.424c.501 0 .925.064 1.272.192s.619.339.816.632c.197.293.296.696.296 1.208-.032.448-.15.819-.352 1.112-.203.293-.48.507-.832.64a3.42 3.42 0 01-1.216.2zM68.16 35v-5.424c.224-.17.459-.341.704-.512.245-.17.504-.31.776-.416.272-.107.536-.16.792-.16.427 0 .736.144.928.432.192.288.288.688.288 1.2V35h1.792v-4.992c0-.576-.083-1.09-.248-1.544a2.249 2.249 0 00-.8-1.08c-.368-.267-.872-.4-1.512-.4-.32 0-.656.048-1.008.144a5.128 5.128 0 00-1.032.408 5.498 5.498 0 00-.49.29l-.19.133v-4.255l-1.776.176V35h1.776zm10.567.208c.821-.01 1.53-.184 2.128-.52a3.55 3.55 0 001.4-1.432c.336-.619.504-1.333.504-2.144 0-.821-.165-1.536-.496-2.144a3.591 3.591 0 00-1.384-1.424c-.592-.341-1.299-.512-2.12-.512-.81 0-1.517.17-2.12.512a3.561 3.561 0 00-1.4 1.424c-.33.608-.496 1.328-.496 2.16 0 .81.16 1.523.48 2.136.32.613.779 1.09 1.376 1.432.597.341 1.307.512 2.128.512zm.016-1.552a2.04 2.04 0 01-1.152-.328 2.057 2.057 0 01-.752-.904 3.2 3.2 0 01-.256-1.312c.01-.48.104-.912.28-1.296.176-.384.43-.688.76-.912.33-.224.71-.336 1.136-.336.448 0 .832.11 1.152.328.32.219.565.52.736.904a3.2 3.2 0 01.256 1.312c0 .48-.088.912-.264 1.296a2.21 2.21 0 01-.744.912c-.32.224-.704.336-1.152.336zM85.897 35v-5.424c.224-.17.458-.341.704-.512.245-.17.504-.31.776-.416.272-.107.536-.16.792-.16.426 0 .733.144.92.432.186.288.28.688.28 1.2V35h1.808v-4.992c0-.576-.083-1.09-.248-1.544a2.23 2.23 0 00-.808-1.08c-.374-.267-.88-.4-1.52-.4-.31 0-.64.048-.992.144a5.128 5.128 0 00-1.032.408 5.565 5.565 0 00-.952.632l-.32-.928h-1.2V35h1.792zm10.91.192c.406 0 .78-.037 1.12-.112.342-.075.656-.184.944-.328a8.07 8.07 0 00.8-.456l-.544-1.312a9.16 9.16 0 01-1.096.496 3.429 3.429 0 01-1.192.192c-.554 0-1.005-.088-1.352-.264a1.823 1.823 0 01-.784-.728 2.933 2.933 0 01-.344-1.088h5.376v-.384c0-.757-.12-1.45-.36-2.08a3.343 3.343 0 00-1.128-1.52c-.512-.384-1.168-.576-1.968-.576-.789 0-1.469.17-2.04.512a3.377 3.377 0 00-1.312 1.432c-.304.613-.456 1.33-.456 2.152 0 .81.16 1.523.48 2.136.32.613.806 1.088 1.456 1.424.651.336 1.451.504 2.4.504zm1.2-4.816h-3.616c.054-.384.158-.71.312-.976a1.61 1.61 0 01.624-.616 1.81 1.81 0 01.888-.216c.342 0 .632.072.872.216.24.144.438.35.592.616.155.267.264.592.328.976zM106.982 35v-7.712l.528.8L112.342 35h1.728V24.12h-1.824v7.664l-.72-1.088-4.624-6.576h-1.696V35h1.776zm11.915.256c.31 0 .637-.05.984-.152a5.804 5.804 0 001.976-1.032l.304.928h1.232v-7.76h-1.808v5.424c-.213.17-.445.339-.696.504-.25.165-.51.301-.776.408a2.14 2.14 0 01-.8.16c-.416 0-.72-.144-.912-.432-.192-.288-.288-.688-.288-1.2V27.24h-1.792v4.992c0 .576.08 1.093.24 1.552.16.459.427.819.8 1.08.373.261.885.392 1.536.392zm8.127-.256v-5.424c.224-.17.453-.341.688-.512.234-.17.474-.31.72-.416.245-.107.49-.16.736-.16.277 0 .493.067.648.2.154.133.266.32.336.56.069.24.104.53.104.872V35h1.808v-5.152l-.007-.282-.004-.042.273-.204.354-.256c.24-.17.482-.31.728-.416.245-.107.485-.16.72-.16.277 0 .493.067.648.2.154.133.266.32.336.56.069.24.104.53.104.872V35h1.808v-5.152c0-.576-.083-1.077-.248-1.504a2.055 2.055 0 00-.792-1c-.363-.24-.838-.36-1.424-.36-.288 0-.598.048-.928.144-.331.096-.662.232-.992.408a5.162 5.162 0 00-.708.454l-.202.163-.08-.152a2.008 2.008 0 00-.626-.657c-.363-.24-.838-.36-1.424-.36-.278 0-.584.048-.92.144a4.928 4.928 0 00-.992.408 5.887 5.887 0 00-.936.632l-.32-.928h-1.2V35h1.792zm15.19.208c.82 0 1.522-.17 2.103-.512a3.502 3.502 0 001.352-1.432c.32-.613.48-1.325.48-2.136 0-.832-.157-1.555-.472-2.168a3.398 3.398 0 00-1.344-1.424c-.581-.336-1.272-.504-2.072-.504-.288 0-.594.053-.92.16-.162.053-.323.12-.482.198l-.134.072v-3.758l-1.776.176V35h.944l.362-.509.062.045c.315.213.646.379.992.496.347.117.648.176.904.176zm0-1.552c-.406 0-.777-.083-1.113-.248a2.244 2.244 0 01-.29-.172l-.086-.064V29.09l.046-.037c.112-.081.222-.153.33-.213a2.278 2.278 0 011.128-.272c.448 0 .827.11 1.136.328.31.219.542.52.696.904.155.384.232.832.232 1.344 0 .47-.08.896-.24 1.28-.16.384-.394.685-.704.904-.31.219-.688.328-1.136.328zm9.143 1.536c.406 0 .779-.037 1.12-.112.342-.075.656-.184.944-.328a8.07 8.07 0 00.8-.456l-.544-1.312a9.16 9.16 0 01-1.096.496 3.429 3.429 0 01-1.192.192c-.554 0-1.005-.088-1.352-.264a1.823 1.823 0 01-.784-.728 2.933 2.933 0 01-.344-1.088h5.376v-.384c0-.757-.12-1.45-.36-2.08a3.343 3.343 0 00-1.128-1.52c-.512-.384-1.168-.576-1.968-.576-.789 0-1.469.17-2.04.512a3.377 3.377 0 00-1.312 1.432c-.304.613-.456 1.33-.456 2.152 0 .81.16 1.523.48 2.136.32.613.806 1.088 1.456 1.424.651.336 1.451.504 2.4.504zm1.2-4.816h-3.616c.054-.384.158-.71.312-.976a1.61 1.61 0 01.624-.616 1.81 1.81 0 01.888-.216c.342 0 .632.072.872.216.24.144.438.35.592.616.155.267.264.592.328.976zM157.434 35v-4.944a6.03 6.03 0 01.904-.688c.325-.203.65-.368.976-.496.325-.128.616-.192.872-.192l-.384-1.44c-.278 0-.579.07-.904.208a5.87 5.87 0 00-.936.504 8.007 8.007 0 00-.768.568l-.592-1.28h-.96V35h1.792zm6.02.208c1.034 0 1.823-.21 2.367-.632.544-.421.816-1 .816-1.736 0-.448-.13-.835-.392-1.16a3.69 3.69 0 00-.992-.848c-.4-.24-.813-.43-1.24-.568a6.914 6.914 0 01-.984-.416c-.282-.15-.424-.325-.424-.528 0-.235.11-.432.328-.592.219-.16.494-.24.824-.24.395 0 .752.05 1.072.152.32.101.646.232.976.392l.56-1.232a3.206 3.206 0 00-.832-.424 6.557 6.557 0 00-.944-.256 4.385 4.385 0 00-.8-.088c-.928 0-1.658.205-2.192.616-.533.41-.8.979-.8 1.704 0 .416.13.776.392 1.08.262.304.59.557.984.76.395.203.795.379 1.2.528.32.085.592.19.816.312.224.123.4.256.528.4a.696.696 0 01.192.472c0 .17-.07.32-.208.448-.138.128-.32.224-.544.288a2.61 2.61 0 01-.72.096c-.224 0-.448-.021-.672-.064a5.08 5.08 0 01-.688-.184 12.58 12.58 0 01-.704-.264l-.544 1.232c.235.16.512.299.832.416.32.117.646.203.976.256.33.053.603.08.816.08z"/><g fill="#1B61DB" transform="translate(12 11)"><circle cx="18" cy="18" r="18" opacity=".08"/><path d="M9.312 12.278c.723-1.134 1.452-1.975 2.797-3.138a.577.577 0 01.83.08c1.073 1.359 1.785 2.442 2.619 4.201.11.233.051.51-.143.68l-1.634 1.427c1.467 3.824 2.982 5.378 6.776 6.404l1.122-1.404c.16-.2.432-.27.668-.174 1.654.681 2.831 1.458 4.414 2.606.272.196.32.584.103.84-1.118 1.334-2.084 2.206-3.3 2.93-.52.31-1.154.358-1.719.146-6.816-2.556-10.401-5.873-12.741-12.885a2.006 2.006 0 01.208-1.713z"/></g></g><g transform="translate(183 513)"><use fill="#000" filter="url(#g)" xlink:href="#h"/><use fill="#FFF" stroke="#F2F6FD" xlink:href="#h"/><path fill="#858D98" fill-rule="nonzero" d="M60.92 35.208c.864 0 1.59-.13 2.176-.392.587-.261 1.037-.61 1.352-1.048.315-.437.472-.944.472-1.52 0-.437-.08-.819-.24-1.144a2.955 2.955 0 00-.656-.872 5.754 5.754 0 00-.968-.712c-.368-.219-.76-.435-1.176-.648-.49-.256-.923-.485-1.296-.688-.373-.203-.659-.419-.856-.648a1.221 1.221 0 01-.296-.824c0-.427.181-.744.544-.952.363-.208.81-.312 1.344-.312.33 0 .632.03.904.088.272.059.523.136.752.232.23.096.445.197.648.304l.592-1.44a8.85 8.85 0 00-1.36-.528 5.436 5.436 0 00-1.6-.24c-.768 0-1.424.128-1.968.384s-.96.597-1.248 1.024a2.542 2.542 0 00-.432 1.456c0 .416.077.787.232 1.112.155.325.368.621.64.888s.592.515.96.744c.368.23.765.456 1.192.68.47.224.888.44 1.256.648.368.208.659.424.872.648.213.224.32.49.32.8 0 .288-.083.536-.248.744-.165.208-.408.365-.728.472-.32.107-.72.16-1.2.16-.32 0-.648-.04-.984-.12a7.962 7.962 0 01-.952-.288 13.17 13.17 0 01-.768-.312l-.416 1.44c.15.107.352.21.608.312.256.101.536.192.84.272.304.08.605.147.904.2.299.053.56.08.784.08zm8.892 0c.822-.01 1.531-.184 2.128-.52a3.55 3.55 0 001.4-1.432c.336-.619.504-1.333.504-2.144 0-.821-.165-1.536-.496-2.144a3.591 3.591 0 00-1.384-1.424c-.592-.341-1.298-.512-2.12-.512-.81 0-1.517.17-2.12.512a3.561 3.561 0 00-1.4 1.424c-.33.608-.496 1.328-.496 2.16 0 .81.16 1.523.48 2.136.32.613.78 1.09 1.376 1.432.598.341 1.307.512 2.128.512zm.016-1.552a2.04 2.04 0 01-1.152-.328 2.057 2.057 0 01-.752-.904 3.2 3.2 0 01-.256-1.312c.011-.48.104-.912.28-1.296.176-.384.43-.688.76-.912.331-.224.71-.336 1.136-.336.448 0 .832.11 1.152.328.32.219.566.52.736.904a3.2 3.2 0 01.256 1.312c0 .48-.088.912-.264 1.296a2.21 2.21 0 01-.744.912c-.32.224-.704.336-1.152.336zm8.905 1.552c.224 0 .496-.03.816-.088.32-.059.65-.147.992-.264.341-.117.624-.256.848-.416l-.528-1.296c-.352.16-.69.285-1.016.376-.325.09-.69.136-1.096.136a2.04 2.04 0 01-1.152-.328 2.057 2.057 0 01-.752-.904 3.2 3.2 0 01-.256-1.312c.01-.48.104-.912.28-1.296.176-.384.43-.688.76-.912.33-.224.71-.336 1.136-.336.405 0 .773.05 1.104.152.33.101.672.227 1.024.376l.528-1.28a3.595 3.595 0 00-.872-.432 6.595 6.595 0 00-.984-.264 4.586 4.586 0 00-.8-.088c-.81 0-1.517.17-2.12.512a3.548 3.548 0 00-1.4 1.432c-.33.613-.496 1.33-.496 2.152 0 .81.163 1.523.488 2.136a3.51 3.51 0 001.384 1.432c.597.341 1.301.512 2.112.512zm4.897-9.216c.299 0 .552-.104.76-.312.208-.208.312-.461.312-.76a.996.996 0 00-.32-.752 1.056 1.056 0 00-.752-.304.995.995 0 00-.744.304 1.036 1.036 0 00-.296.752c0 .31.099.565.296.768a.995.995 0 00.744.304zM84.558 35v-7.76H82.75V35h1.808zm4.398.192c.405 0 .8-.096 1.184-.288.384-.192.715-.421.992-.688l.272.784h1.216v-5.184c0-.523-.147-.997-.44-1.424a2.992 2.992 0 00-1.176-1 3.7 3.7 0 00-1.648-.36c-.213 0-.496.03-.848.088a8.644 8.644 0 00-1.04.24 2.933 2.933 0 00-.816.36l.48 1.472a8.495 8.495 0 011.048-.36c.4-.112.803-.168 1.208-.168.501 0 .859.147 1.072.44.213.293.325.67.336 1.128v.048H89.1c-.853.01-1.547.224-2.08.64-.533.416-.8 1.013-.8 1.792 0 .736.224 1.333.672 1.792.448.459 1.136.688 2.064.688zm-.032-1.424a1.17 1.17 0 01-.608-.152 1.063 1.063 0 01-.392-.392c-.09-.16-.136-.33-.136-.512 0-.31.112-.592.336-.848.224-.256.539-.384.944-.384h1.744v1.392a3.45 3.45 0 01-.896.656c-.32.16-.65.24-.992.24zM96.354 35V23.704l-1.776.176V35h1.776zm7.973 0v-3.904h1.328c.566 0 1.11-.07 1.632-.208.523-.139.99-.352 1.4-.64.411-.288.734-.656.968-1.104.235-.448.352-.976.352-1.584 0-.821-.186-1.485-.56-1.992-.373-.507-.88-.875-1.52-1.104-.64-.23-1.349-.344-2.128-.344h-3.248V35h1.776zm1.408-5.392h-1.408v-3.984h1.424c.502 0 .926.064 1.272.192.347.128.62.339.816.632.198.293.296.696.296 1.208-.032.448-.149.819-.352 1.112-.202.293-.48.507-.832.64a3.42 3.42 0 01-1.216.2zM113.198 35v-4.944a6.03 6.03 0 01.904-.688c.326-.203.65-.368.976-.496.326-.128.616-.192.872-.192l-.384-1.44c-.277 0-.578.07-.904.208a5.87 5.87 0 00-.936.504 8.007 8.007 0 00-.768.568l-.592-1.28h-.96V35h1.792zm7.37.208c.822-.01 1.531-.184 2.128-.52a3.55 3.55 0 001.4-1.432c.336-.619.504-1.333.504-2.144 0-.821-.165-1.536-.496-2.144a3.591 3.591 0 00-1.384-1.424c-.592-.341-1.298-.512-2.12-.512-.81 0-1.517.17-2.12.512a3.561 3.561 0 00-1.4 1.424c-.33.608-.496 1.328-.496 2.16 0 .81.16 1.523.48 2.136.32.613.78 1.09 1.376 1.432.598.341 1.307.512 2.128.512zm.016-1.552a2.04 2.04 0 01-1.152-.328 2.057 2.057 0 01-.752-.904 3.2 3.2 0 01-.256-1.312c.011-.48.104-.912.28-1.296.176-.384.43-.688.76-.912.331-.224.71-.336 1.136-.336.448 0 .832.11 1.152.328.32.219.566.52.736.904a3.2 3.2 0 01.256 1.312c0 .48-.088.912-.264 1.296a2.21 2.21 0 01-.744.912c-.32.224-.704.336-1.152.336zM128.273 35v-6.336h2.016l-.576-1.36h-1.44v-.592c0-.405.083-.733.248-.984.165-.25.435-.376.808-.376.117 0 .248.016.392.048.144.032.28.08.408.144l.496-1.36a1.56 1.56 0 00-.392-.208 3.33 3.33 0 00-.512-.152 2.501 2.501 0 00-.52-.056c-.576 0-1.067.112-1.472.336a2.312 2.312 0 00-.936.944c-.219.405-.328.885-.328 1.44v.816h-1.2v1.36h1.2V35h1.808zm4.185-9.008c.3 0 .552-.104.76-.312.208-.208.312-.461.312-.76a.996.996 0 00-.32-.752 1.056 1.056 0 00-.752-.304.995.995 0 00-.744.304 1.036 1.036 0 00-.296.752c0 .31.1.565.296.768a.995.995 0 00.744.304zm.928 9.008v-7.76h-1.808V35h1.808zm3.806 0V23.704l-1.776.176V35h1.776zm5.901.192c.406 0 .779-.037 1.12-.112.342-.075.656-.184.944-.328a8.07 8.07 0 00.8-.456l-.544-1.312a9.16 9.16 0 01-1.096.496 3.429 3.429 0 01-1.192.192c-.554 0-1.005-.088-1.352-.264a1.823 1.823 0 01-.784-.728 2.933 2.933 0 01-.344-1.088h5.376v-.384c0-.757-.12-1.45-.36-2.08a3.343 3.343 0 00-1.128-1.52c-.512-.384-1.168-.576-1.968-.576-.79 0-1.47.17-2.04.512a3.377 3.377 0 00-1.312 1.432c-.304.613-.456 1.33-.456 2.152 0 .81.16 1.523.48 2.136.32.613.806 1.088 1.456 1.424.65.336 1.45.504 2.4.504zm1.2-4.816h-3.616c.054-.384.158-.71.312-.976a1.61 1.61 0 01.624-.616 1.81 1.81 0 01.888-.216c.342 0 .632.072.872.216.24.144.438.35.592.616.155.267.264.592.328.976zm5.315 4.832c1.035 0 1.824-.21 2.368-.632.544-.421.816-1 .816-1.736 0-.448-.13-.835-.392-1.16a3.69 3.69 0 00-.992-.848c-.4-.24-.813-.43-1.24-.568a6.914 6.914 0 01-.984-.416c-.282-.15-.424-.325-.424-.528 0-.235.11-.432.328-.592.219-.16.494-.24.824-.24.395 0 .752.05 1.072.152.32.101.646.232.976.392l.56-1.232a3.206 3.206 0 00-.832-.424 6.557 6.557 0 00-.944-.256 4.385 4.385 0 00-.8-.088c-.928 0-1.658.205-2.192.616-.533.41-.8.979-.8 1.704 0 .416.131.776.392 1.08.262.304.59.557.984.76.395.203.795.379 1.2.528.32.085.592.19.816.312.224.123.4.256.528.4a.696.696 0 01.192.472c0 .17-.069.32-.208.448-.138.128-.32.224-.544.288a2.61 2.61 0 01-.72.096c-.224 0-.448-.021-.672-.064a5.08 5.08 0 01-.688-.184 12.58 12.58 0 01-.704-.264l-.544 1.232c.235.16.512.299.832.416.32.117.646.203.976.256.331.053.603.08.816.08z"/><g fill="#1B61DB" transform="translate(13 11)"><circle cx="18" cy="18" r="18" opacity=".08"/><path stroke="#1B61DB" stroke-linecap="round" stroke-linejoin="round" d="M26.506 15.613c0 .5-.033.993-.099 1.476v.001c-.721 5.43-5.37 9.618-10.997 9.618-2.256 0-4.355-.673-6.107-1.83"/><path d="M18.812 15.957a4.025 4.025 0 016.808-3.488"/><path stroke="#1B61DB" stroke-linecap="round" stroke-linejoin="round" d="M9.303 24.877c2.621.126 3.929-.174 5.937-1.587-2.003-.226-2.976-1.258-3.626-2.797h1.839c-2.14-.723-3.027-1.778-3.134-3.834l1.952.467c-2.17-1.915-2.354-3.079-1.408-5.258 2.282 2.694 4.098 3.602 7.949 4.089m7.694-.344l.307-.285c.939-.843 1.435-1.568 1.895-2.502l-2.265.814-.105.038-.025-.128.06-.052c.86-.745 1.402-1.292 1.686-2.195-.815.524-1.322.963-2.438 1.166"/><path d="M12.235 21.5l3.711 2.569 10.56-7.806.658-1.935-.956-1.887h-2.192l-4.317 2.52-2.108 1.665z"/></g></g><g transform="translate(30 430)"><use fill="#000" filter="url(#i)" xlink:href="#j"/><use fill="#FFF" stroke="#F2F6FD" xlink:href="#j"/><path fill="#858D98" fill-rule="nonzero" d="M64.728 34.224c.299 0 .63-.027.992-.08.363-.053.72-.13 1.072-.232.352-.101.656-.221.912-.36l-.688-1.328c-.31.139-.659.253-1.048.344a5.92 5.92 0 01-1.336.136c-.501 0-.947-.107-1.336-.32a2.94 2.94 0 01-.992-.896 4.247 4.247 0 01-.616-1.312 5.742 5.742 0 01-.208-1.568c0-.853.144-1.592.432-2.216.288-.624.68-1.11 1.176-1.456a2.85 2.85 0 011.672-.52c.341 0 .63.019.864.056.235.037.467.088.696.152.23.064.483.144.76.24l.56-1.28a4.386 4.386 0 00-.984-.408 7.136 7.136 0 00-1.032-.216 6.619 6.619 0 00-.816-.064c-.8 0-1.52.141-2.16.424-.64.283-1.187.68-1.64 1.192a5.303 5.303 0 00-1.04 1.816 7.027 7.027 0 00-.36 2.296c0 .768.107 1.49.32 2.168a5.2 5.2 0 00.968 1.792c.432.517.968.92 1.608 1.208.64.288 1.381.432 2.224.432zm7.708-.016c.821-.01 1.53-.184 2.128-.52a3.55 3.55 0 001.4-1.432c.336-.619.504-1.333.504-2.144 0-.821-.165-1.536-.496-2.144a3.591 3.591 0 00-1.384-1.424c-.592-.341-1.299-.512-2.12-.512-.81 0-1.517.17-2.12.512a3.561 3.561 0 00-1.4 1.424c-.33.608-.496 1.328-.496 2.16 0 .81.16 1.523.48 2.136.32.613.779 1.09 1.376 1.432.597.341 1.307.512 2.128.512zm.016-1.552a2.04 2.04 0 01-1.152-.328 2.057 2.057 0 01-.752-.904 3.2 3.2 0 01-.256-1.312c.01-.48.104-.912.28-1.296.176-.384.43-.688.76-.912.33-.224.71-.336 1.136-.336.448 0 .832.11 1.152.328.32.219.565.52.736.904a3.2 3.2 0 01.256 1.312c0 .48-.088.912-.264 1.296a2.21 2.21 0 01-.744.912c-.32.224-.704.336-1.152.336zM79.645 34v-5.424c.224-.17.453-.341.688-.512.234-.17.474-.31.72-.416.245-.107.49-.16.736-.16.277 0 .493.067.648.2.154.133.266.32.336.56.069.24.104.53.104.872V34h1.808v-5.152l-.007-.282-.004-.042.273-.204.354-.256c.24-.17.482-.31.728-.416.245-.107.485-.16.72-.16.277 0 .493.067.648.2.154.133.266.32.336.56.069.24.104.53.104.872V34h1.808v-5.152c0-.576-.083-1.077-.248-1.504a2.055 2.055 0 00-.792-1c-.363-.24-.838-.36-1.424-.36-.288 0-.598.048-.928.144-.331.096-.662.232-.992.408a5.162 5.162 0 00-.708.454l-.202.163-.08-.152a2.008 2.008 0 00-.626-.657c-.363-.24-.838-.36-1.424-.36-.278 0-.584.048-.92.144a4.928 4.928 0 00-.992.408 5.887 5.887 0 00-.936.632l-.32-.928h-1.2V34h1.792zm11.9 3.504l1.776-.176-.001-3.549.077.041c.165.083.335.153.508.212.347.117.648.176.904.176.821 0 1.523-.17 2.104-.512a3.502 3.502 0 001.352-1.432c.32-.613.48-1.325.48-2.136 0-.832-.157-1.555-.472-2.168a3.398 3.398 0 00-1.344-1.424c-.581-.336-1.272-.504-2.072-.504-.288 0-.595.053-.92.16a3.861 3.861 0 00-.952.472l-.115.083-.381-.507h-.944v11.264zm3.264-4.848c-.405 0-.776-.083-1.112-.248a2.244 2.244 0 01-.29-.172l-.087-.064V28.09l.047-.037c.111-.081.221-.153.33-.213a2.278 2.278 0 011.128-.272c.448 0 .827.11 1.136.328.31.219.541.52.696.904.155.384.232.832.232 1.344 0 .47-.08.896-.24 1.28-.16.384-.395.685-.704.904-.31.219-.688.328-1.136.328zm7.855 1.536c.405 0 .8-.096 1.184-.288.384-.192.714-.421.992-.688l.272.784h1.216v-5.184c0-.523-.147-.997-.44-1.424a2.992 2.992 0 00-1.176-1 3.7 3.7 0 00-1.648-.36c-.214 0-.496.03-.848.088a8.644 8.644 0 00-1.04.24 2.933 2.933 0 00-.816.36l.48 1.472a8.495 8.495 0 011.048-.36c.4-.112.802-.168 1.208-.168.501 0 .858.147 1.072.44.213.293.325.67.336 1.128v.048h-1.696c-.854.01-1.547.224-2.08.64-.534.416-.8 1.013-.8 1.792 0 .736.224 1.333.672 1.792.448.459 1.136.688 2.064.688zm-.032-1.424a1.17 1.17 0 01-.608-.152 1.063 1.063 0 01-.392-.392c-.091-.16-.136-.33-.136-.512 0-.31.112-.592.336-.848.224-.256.538-.384.944-.384h1.744v1.392a3.45 3.45 0 01-.896.656c-.32.16-.651.24-.992.24zM109.918 34v-5.424c.224-.17.458-.341.704-.512.245-.17.504-.31.776-.416.272-.107.536-.16.792-.16.426 0 .733.144.92.432.186.288.28.688.28 1.2V34h1.808v-4.992c0-.576-.083-1.09-.248-1.544a2.23 2.23 0 00-.808-1.08c-.374-.267-.88-.4-1.52-.4-.31 0-.64.048-.992.144a5.128 5.128 0 00-1.032.408 5.565 5.565 0 00-.952.632l-.32-.928h-1.2V34h1.792zm7.397 3.552a5.27 5.27 0 001.232-.48 4.17 4.17 0 001.048-.8c.304-.32.53-.672.68-1.056l3.456-8.976h-1.888l-1.872 5.152-1.984-5.44-1.744.592 2.768 7.088-.432 1.056c-.085.235-.23.437-.432.608-.202.17-.434.32-.696.448-.261.128-.514.245-.76.352l.624 1.456zM130.768 34V23.12h-1.776V34h1.776zm4.157 0v-5.424c.224-.17.459-.341.704-.512.245-.17.504-.31.776-.416.272-.107.536-.16.792-.16.427 0 .733.144.92.432.187.288.28.688.28 1.2V34h1.808v-4.992c0-.576-.083-1.09-.248-1.544a2.23 2.23 0 00-.808-1.08c-.373-.267-.88-.4-1.52-.4-.31 0-.64.048-.992.144a5.128 5.128 0 00-1.032.408 5.565 5.565 0 00-.952.632l-.32-.928h-1.2V34h1.792zm9.285.208c1.035 0 1.824-.21 2.368-.632.544-.421.816-1 .816-1.736 0-.448-.13-.835-.392-1.16a3.69 3.69 0 00-.992-.848c-.4-.24-.813-.43-1.24-.568a6.914 6.914 0 01-.984-.416c-.282-.15-.424-.325-.424-.528 0-.235.11-.432.328-.592.22-.16.494-.24.824-.24.395 0 .752.05 1.072.152.32.101.646.232.976.392l.56-1.232a3.206 3.206 0 00-.832-.424 6.557 6.557 0 00-.944-.256 4.385 4.385 0 00-.8-.088c-.928 0-1.658.205-2.192.616-.533.41-.8.979-.8 1.704 0 .416.131.776.392 1.08.262.304.59.557.984.76.395.203.795.379 1.2.528.32.085.592.19.816.312.224.123.4.256.528.4a.696.696 0 01.192.472c0 .17-.069.32-.208.448-.138.128-.32.224-.544.288a2.61 2.61 0 01-.72.096c-.224 0-.448-.021-.672-.064a5.08 5.08 0 01-.688-.184 12.58 12.58 0 01-.704-.264l-.544 1.232c.235.16.512.299.832.416.32.117.646.203.976.256.331.053.603.08.816.08zm5.466-9.216c.298 0 .552-.104.76-.312.208-.208.312-.461.312-.76a.996.996 0 00-.32-.752 1.056 1.056 0 00-.752-.304.995.995 0 00-.744.304 1.036 1.036 0 00-.296.752c0 .31.098.565.296.768a.995.995 0 00.744.304zm.928 9.008v-7.76h-1.808V34h1.808zm4.877 3.68c.811 0 1.507-.128 2.088-.384.582-.256 1.03-.619 1.344-1.088.315-.47.472-1.03.472-1.68V26.24h-.976l-.38.614-.037-.033a3.937 3.937 0 00-1.166-.621 3.006 3.006 0 00-.929-.168c-.8 0-1.493.17-2.08.512a3.446 3.446 0 00-1.352 1.424c-.314.608-.472 1.317-.472 2.128 0 .832.155 1.555.464 2.168.31.613.755 1.09 1.336 1.432.582.341 1.272.512 2.072.512.3 0 .611-.056.936-.168a3.8 3.8 0 00.719-.337l.057-.037v.846c0 .544-.2.965-.6 1.264-.4.299-.914.453-1.544.464a4.422 4.422 0 01-1.2-.184 7.317 7.317 0 01-1.168-.488l-.544 1.28c.192.139.422.261.688.368.267.107.542.195.824.264a7.004 7.004 0 001.448.2zm.416-5.024a1.9 1.9 0 01-1.112-.328 2.013 2.013 0 01-.712-.904c-.16-.384-.24-.827-.24-1.328 0-.48.08-.91.24-1.288.16-.379.398-.68.712-.904.315-.224.691-.336 1.128-.336.406 0 .776.085 1.112.256.144.073.29.168.437.284l.115.097v3.78l-.07.059a3.6 3.6 0 01-.498.34 2.245 2.245 0 01-1.112.272zM163.29 34v-5.424c.224-.17.459-.341.704-.512.245-.17.504-.31.776-.416.272-.107.536-.16.792-.16.427 0 .736.144.928.432.192.288.288.688.288 1.2V34h1.792v-4.992c0-.576-.083-1.09-.248-1.544a2.249 2.249 0 00-.8-1.08c-.368-.267-.872-.4-1.512-.4-.32 0-.656.048-1.008.144a5.128 5.128 0 00-1.032.408 5.497 5.497 0 00-.49.29l-.19.133v-4.255l-1.776.176V34h1.776zm10.222.304c.16 0 .333-.021.52-.064.186-.043.362-.096.528-.16.165-.064.296-.128.392-.192l-.496-1.328a2.499 2.499 0 01-.4.128 1.845 1.845 0 01-.416.048c-.374 0-.651-.125-.832-.376-.182-.25-.272-.573-.272-.968v-3.728h1.952l-.544-1.36h-1.408v-2.256l-1.792.352v1.904h-1.088l.016 1.36h1.072v4.016c0 .565.114 1.043.344 1.432.229.39.546.685.952.888.405.203.896.304 1.472.304zm4.87-.096c1.035 0 1.825-.21 2.369-.632.544-.421.816-1 .816-1.736 0-.448-.13-.835-.392-1.16a3.69 3.69 0 00-.992-.848c-.4-.24-.814-.43-1.24-.568a6.914 6.914 0 01-.984-.416c-.283-.15-.424-.325-.424-.528 0-.235.11-.432.328-.592.218-.16.493-.24.824-.24.394 0 .752.05 1.072.152.32.101.645.232.976.392l.56-1.232a3.206 3.206 0 00-.832-.424 6.557 6.557 0 00-.944-.256 4.385 4.385 0 00-.8-.088c-.928 0-1.659.205-2.192.616-.534.41-.8.979-.8 1.704 0 .416.13.776.392 1.08.261.304.59.557.984.76.394.203.794.379 1.2.528.32.085.592.19.816.312.224.123.4.256.528.4a.696.696 0 01.192.472c0 .17-.07.32-.208.448-.139.128-.32.224-.544.288a2.61 2.61 0 01-.72.096c-.224 0-.448-.021-.672-.064a5.08 5.08 0 01-.688-.184 12.58 12.58 0 01-.704-.264l-.544 1.232c.234.16.512.299.832.416.32.117.645.203.976.256.33.053.602.08.816.08z"/><g fill="#1B61DB" transform="translate(13 11)"><circle cx="18" cy="18" r="18" opacity=".08"/><g fill-rule="nonzero"><path d="M19.148 18.408h2.895V8.574A.574.574 0 0021.47 8h-6.938a.574.574 0 00-.574.574v7.538h3.469c.95 0 1.722.772 1.722 1.722v.574zm-1.932-9.26h1.568a.574.574 0 010 1.148h-1.568a.574.574 0 010-1.148zm0 2.296h1.568a.574.574 0 010 1.148h-1.568a.574.574 0 010-1.148zm1.568 3.444h-1.568a.574.574 0 010-1.148h1.568a.574.574 0 010 1.148z"/><path d="M17.426 17.26h-6.352a.574.574 0 00-.574.574v9.184c0 .317.257.574.574.574h1.435v-2.297c0-.316.257-.573.574-.573h2.334c.317 0 .574.257.574.573v2.297H18v-9.758a.574.574 0 00-.574-.574zM15.034 23h-1.568a.574.574 0 010-1.148h1.568a.574.574 0 010 1.148zm0-2.296h-1.568a.574.574 0 010-1.148h1.568a.574.574 0 010 1.148z"/><path d="M13.657 25.869h1.186v1.723h-1.186zM24.926 19.556h-5.778v8.036h1.358v-2.297c0-.316.257-.573.574-.573h2.335c.317 0 .574.257.574.573v2.297h.937a.574.574 0 00.574-.574V20.13a.574.574 0 00-.574-.574zM23.032 23h-1.569a.574.574 0 010-1.148h1.569a.574.574 0 010 1.148z"/><path d="M21.654 25.869h1.187v1.723h-1.187z"/></g></g></g><g transform="translate(25 342)"><use fill="#000" filter="url(#k)" xlink:href="#l"/><use fill="#FFF" stroke="#F2F6FD" xlink:href="#l"/><path fill="#858D98" fill-rule="nonzero" d="M64.184 35v-3.904h1.328c.565 0 1.11-.07 1.632-.208.523-.139.99-.352 1.4-.64.41-.288.733-.656.968-1.104.235-.448.352-.976.352-1.584 0-.821-.187-1.485-.56-1.992-.373-.507-.88-.875-1.52-1.104-.64-.23-1.35-.344-2.128-.344h-3.248V35h1.776zm1.408-5.392h-1.408v-3.984h1.424c.501 0 .925.064 1.272.192s.619.339.816.632c.197.293.296.696.296 1.208-.032.448-.15.819-.352 1.112-.203.293-.48.507-.832.64a3.42 3.42 0 01-1.216.2zM73.016 35v-4.944a6.03 6.03 0 01.904-.688c.325-.203.65-.368.976-.496.325-.128.616-.192.872-.192l-.384-1.44c-.277 0-.579.07-.904.208a5.87 5.87 0 00-.936.504 8.007 8.007 0 00-.768.568l-.592-1.28h-.96V35h1.792zm7.332.208c.82-.01 1.53-.184 2.128-.52a3.55 3.55 0 001.4-1.432c.336-.619.504-1.333.504-2.144 0-.821-.166-1.536-.496-2.144a3.591 3.591 0 00-1.384-1.424c-.592-.341-1.3-.512-2.12-.512-.811 0-1.518.17-2.12.512a3.561 3.561 0 00-1.4 1.424c-.331.608-.496 1.328-.496 2.16 0 .81.16 1.523.48 2.136.32.613.778 1.09 1.376 1.432.597.341 1.306.512 2.128.512zm.016-1.552a2.04 2.04 0 01-1.152-.328 2.057 2.057 0 01-.752-.904 3.2 3.2 0 01-.256-1.312c.01-.48.104-.912.28-1.296.176-.384.429-.688.76-.912.33-.224.709-.336 1.136-.336.448 0 .832.11 1.152.328.32.219.565.52.736.904a3.2 3.2 0 01.256 1.312c0 .48-.088.912-.264 1.296a2.21 2.21 0 01-.744.912c-.32.224-.704.336-1.152.336zM88.014 35v-6.336h2.015l-.576-1.36h-1.44v-.592c0-.405.083-.733.248-.984.166-.25.435-.376.808-.376.118 0 .248.016.392.048.144.032.28.08.408.144l.496-1.36a1.56 1.56 0 00-.392-.208 3.33 3.33 0 00-.512-.152 2.501 2.501 0 00-.52-.056c-.576 0-1.066.112-1.472.336a2.312 2.312 0 00-.936.944c-.218.405-.328.885-.328 1.44v.816h-1.2v1.36h1.2V35h1.808zm7.122.192c.405 0 .779-.037 1.12-.112.341-.075.656-.184.944-.328a8.07 8.07 0 00.8-.456l-.544-1.312a9.16 9.16 0 01-1.096.496 3.429 3.429 0 01-1.192.192c-.555 0-1.005-.088-1.352-.264a1.823 1.823 0 01-.784-.728 2.933 2.933 0 01-.344-1.088h5.376v-.384c0-.757-.12-1.45-.36-2.08a3.343 3.343 0 00-1.128-1.52c-.512-.384-1.168-.576-1.968-.576-.79 0-1.47.17-2.04.512a3.377 3.377 0 00-1.312 1.432c-.304.613-.456 1.33-.456 2.152 0 .81.16 1.523.48 2.136.32.613.805 1.088 1.456 1.424.65.336 1.45.504 2.4.504zm1.2-4.816H92.72c.053-.384.157-.71.312-.976a1.61 1.61 0 01.624-.616 1.81 1.81 0 01.888-.216c.341 0 .632.072.872.216.24.144.437.35.592.616.155.267.264.592.328.976zm5.277 4.832c1.034 0 1.824-.21 2.368-.632.544-.421.816-1 .816-1.736 0-.448-.131-.835-.392-1.16a3.69 3.69 0 00-.992-.848c-.4-.24-.814-.43-1.24-.568a6.914 6.914 0 01-.984-.416c-.283-.15-.424-.325-.424-.528 0-.235.109-.432.328-.592.218-.16.493-.24.824-.24.394 0 .752.05 1.072.152.32.101.645.232.976.392l.56-1.232a3.206 3.206 0 00-.832-.424 6.557 6.557 0 00-.944-.256 4.385 4.385 0 00-.8-.088c-.928 0-1.66.205-2.192.616-.534.41-.8.979-.8 1.704 0 .416.13.776.392 1.08.26.304.589.557.984.76.394.203.794.379 1.2.528.32.085.592.19.816.312.224.123.4.256.528.4a.696.696 0 01.192.472c0 .17-.07.32-.208.448-.14.128-.32.224-.544.288a2.61 2.61 0 01-.72.096c-.224 0-.448-.021-.672-.064a5.08 5.08 0 01-.688-.184 12.58 12.58 0 01-.704-.264l-.544 1.232c.234.16.512.299.832.416.32.117.645.203.976.256.33.053.602.08.816.08zm6.738 0c1.035 0 1.824-.21 2.368-.632.544-.421.816-1 .816-1.736 0-.448-.13-.835-.392-1.16a3.69 3.69 0 00-.992-.848c-.4-.24-.813-.43-1.24-.568a6.914 6.914 0 01-.984-.416c-.283-.15-.424-.325-.424-.528 0-.235.11-.432.328-.592.219-.16.493-.24.824-.24.395 0 .752.05 1.072.152.32.101.645.232.976.392l.56-1.232a3.206 3.206 0 00-.832-.424 6.557 6.557 0 00-.944-.256 4.385 4.385 0 00-.8-.088c-.928 0-1.659.205-2.192.616-.533.41-.8.979-.8 1.704 0 .416.13.776.392 1.08.261.304.59.557.984.76.395.203.795.379 1.2.528.32.085.592.19.816.312.224.123.4.256.528.4a.696.696 0 01.192.472c0 .17-.07.32-.208.448-.139.128-.32.224-.544.288a2.61 2.61 0 01-.72.096c-.224 0-.448-.021-.672-.064a5.08 5.08 0 01-.688-.184 12.58 12.58 0 01-.704-.264l-.544 1.232c.235.16.512.299.832.416.32.117.645.203.976.256.33.053.603.08.816.08zm5.426-9.216c.299 0 .552-.104.76-.312.208-.208.312-.461.312-.76a.996.996 0 00-.32-.752 1.056 1.056 0 00-.752-.304.995.995 0 00-.744.304 1.036 1.036 0 00-.296.752c0 .31.099.565.296.768a.995.995 0 00.744.304zm.928 9.008v-7.76h-1.808V35h1.808zm5.335.208c.822-.01 1.531-.184 2.128-.52a3.55 3.55 0 001.4-1.432c.336-.619.504-1.333.504-2.144 0-.821-.165-1.536-.496-2.144a3.591 3.591 0 00-1.384-1.424c-.592-.341-1.298-.512-2.12-.512-.81 0-1.517.17-2.12.512a3.561 3.561 0 00-1.4 1.424c-.33.608-.496 1.328-.496 2.16 0 .81.16 1.523.48 2.136.32.613.78 1.09 1.376 1.432.598.341 1.307.512 2.128.512zm.016-1.552a2.04 2.04 0 01-1.152-.328 2.057 2.057 0 01-.752-.904 3.2 3.2 0 01-.256-1.312c.011-.48.104-.912.28-1.296.176-.384.43-.688.76-.912.331-.224.71-.336 1.136-.336.448 0 .832.11 1.152.328.32.219.566.52.736.904a3.2 3.2 0 01.256 1.312c0 .48-.088.912-.264 1.296a2.21 2.21 0 01-.744.912c-.32.224-.704.336-1.152.336zM127.21 35v-5.424c.224-.17.459-.341.704-.512.246-.17.504-.31.776-.416.272-.107.536-.16.792-.16.427 0 .734.144.92.432.187.288.28.688.28 1.2V35h1.808v-4.992c0-.576-.082-1.09-.248-1.544a2.23 2.23 0 00-.808-1.08c-.373-.267-.88-.4-1.52-.4-.309 0-.64.048-.992.144a5.128 5.128 0 00-1.032.408 5.565 5.565 0 00-.952.632l-.32-.928h-1.2V35h1.792zm9.583.192c.405 0 .8-.096 1.184-.288.384-.192.715-.421.992-.688l.272.784h1.216v-5.184c0-.523-.147-.997-.44-1.424a2.992 2.992 0 00-1.176-1 3.7 3.7 0 00-1.648-.36c-.213 0-.496.03-.848.088a8.644 8.644 0 00-1.04.24 2.933 2.933 0 00-.816.36l.48 1.472a8.495 8.495 0 011.048-.36c.4-.112.803-.168 1.208-.168.501 0 .859.147 1.072.44.213.293.325.67.336 1.128v.048h-1.696c-.853.01-1.547.224-2.08.64-.533.416-.8 1.013-.8 1.792 0 .736.224 1.333.672 1.792.448.459 1.136.688 2.064.688zm-.032-1.424a1.17 1.17 0 01-.608-.152 1.063 1.063 0 01-.392-.392c-.09-.16-.136-.33-.136-.512 0-.31.112-.592.336-.848.224-.256.539-.384.944-.384h1.744v1.392a3.45 3.45 0 01-.896.656c-.32.16-.65.24-.992.24zM144.152 35V23.704l-1.776.176V35h1.776zm7.896 0v-4.736h4.576V35h1.792V24.12h-1.792v4.72h-4.576v-4.8l-1.776.08V35h1.776zm9.567-9.008c.299 0 .552-.104.76-.312.208-.208.312-.461.312-.76a.996.996 0 00-.32-.752 1.056 1.056 0 00-.752-.304.995.995 0 00-.744.304 1.036 1.036 0 00-.296.752c0 .31.099.565.296.768a.995.995 0 00.744.304zm.928 9.008v-7.76h-1.808V35h1.808zm4.023.208c1.035 0 1.824-.21 2.368-.632.544-.421.816-1 .816-1.736 0-.448-.13-.835-.392-1.16a3.69 3.69 0 00-.992-.848c-.4-.24-.813-.43-1.24-.568a6.914 6.914 0 01-.984-.416c-.282-.15-.424-.325-.424-.528 0-.235.11-.432.328-.592.22-.16.494-.24.824-.24.395 0 .752.05 1.072.152.32.101.646.232.976.392l.56-1.232a3.206 3.206 0 00-.832-.424 6.557 6.557 0 00-.944-.256 4.385 4.385 0 00-.8-.088c-.928 0-1.658.205-2.192.616-.533.41-.8.979-.8 1.704 0 .416.131.776.392 1.08.262.304.59.557.984.76.395.203.795.379 1.2.528.32.085.592.19.816.312.224.123.4.256.528.4a.696.696 0 01.192.472c0 .17-.069.32-.208.448-.138.128-.32.224-.544.288a2.61 2.61 0 01-.72.096c-.224 0-.448-.021-.672-.064a5.08 5.08 0 01-.688-.184 12.58 12.58 0 01-.704-.264l-.544 1.232c.235.16.512.299.832.416.32.117.646.203.976.256.331.053.603.08.816.08zm7.667.096c.16 0 .333-.021.52-.064.186-.043.362-.096.528-.16.165-.064.296-.128.392-.192l-.496-1.328a2.499 2.499 0 01-.4.128 1.845 1.845 0 01-.416.048c-.374 0-.65-.125-.832-.376-.182-.25-.272-.573-.272-.968v-3.728h1.952l-.544-1.36h-1.408v-2.256l-1.792.352v1.904h-1.088l.016 1.36h1.072v4.016c0 .565.114 1.043.344 1.432.23.39.546.685.952.888.405.203.896.304 1.472.304zm6.144-.096c.821-.01 1.53-.184 2.128-.52a3.55 3.55 0 001.4-1.432c.336-.619.504-1.333.504-2.144 0-.821-.165-1.536-.496-2.144a3.591 3.591 0 00-1.384-1.424c-.592-.341-1.299-.512-2.12-.512-.81 0-1.517.17-2.12.512a3.561 3.561 0 00-1.4 1.424c-.33.608-.496 1.328-.496 2.16 0 .81.16 1.523.48 2.136.32.613.779 1.09 1.376 1.432.597.341 1.307.512 2.128.512zm.016-1.552a2.04 2.04 0 01-1.152-.328 2.057 2.057 0 01-.752-.904 3.2 3.2 0 01-.256-1.312c.01-.48.104-.912.28-1.296.176-.384.43-.688.76-.912.33-.224.71-.336 1.136-.336.448 0 .832.11 1.152.328.32.219.565.52.736.904a3.2 3.2 0 01.256 1.312c0 .48-.088.912-.264 1.296a2.21 2.21 0 01-.744.912c-.32.224-.704.336-1.152.336zM187.547 35v-4.944a6.03 6.03 0 01.904-.688c.325-.203.65-.368.976-.496.325-.128.616-.192.872-.192l-.384-1.44c-.277 0-.579.07-.904.208a5.87 5.87 0 00-.936.504 8.007 8.007 0 00-.768.568l-.592-1.28h-.96V35h1.792zm4.132 3.552a5.27 5.27 0 001.232-.48 4.17 4.17 0 001.048-.8c.304-.32.53-.672.68-1.056l3.456-8.976h-1.888l-1.872 5.152-1.984-5.44-1.744.592 2.768 7.088-.432 1.056c-.086.235-.23.437-.432.608-.203.17-.435.32-.696.448-.262.128-.515.245-.76.352l.624 1.456z"/><g transform="translate(13 11)"><circle cx="18" cy="18" r="18" fill="#1B61DB" opacity=".08"/><path fill="#1B61DB" d="M8.323 13.352v11.115c0 .714.578 1.29 1.29 1.29h16.49a1.29 1.29 0 001.29-1.29V13.352a1.29 1.29 0 00-1.29-1.29H9.613a1.29 1.29 0 00-1.29 1.29z"/><path stroke="#E8EFFB" stroke-linecap="round" stroke-linejoin="round" d="M27.393 13.352v3.174a2.445 2.445 0 01-2.444 2.445h-5.252v-1.606h-3.664v1.606h-5.266a2.446 2.446 0 01-2.445-2.445v-3.174c0-.713.578-1.29 1.29-1.29h16.491c.713 0 1.29.577 1.29 1.29z"/><path stroke="#1B61DB" stroke-linecap="round" stroke-linejoin="round" d="M19.574 10.323h-3.432c-.64 0-1.184.514-1.277 1.208l-.24 1.792h6.467l-.241-1.792c-.094-.694-.637-1.208-1.277-1.208z"/><path stroke="#E8EFFB" stroke-linecap="round" stroke-linejoin="round" d="M19.697 18.971v1.123l-1.833.955-1.832-.955v-1.123"/></g></g><g transform="translate(32 255)"><use fill="#000" filter="url(#m)" xlink:href="#n"/><use fill="#FFF" stroke="#F2F6FD" xlink:href="#n"/><path fill="#858D98" fill-rule="nonzero" d="M68.656 35l-.272-1.408h-5.2V30.2h3.904l-.272-1.424h-3.632v-3.248h4.784l-.272-1.408h-6.288V35h7.248zm4.623.208c.3 0 .611-.056.936-.168a3.93 3.93 0 00.952-.488l.182-.133.084-.071.39.652h.976V23.72l-1.808.16v3.662a3.854 3.854 0 00-.752-.342 3.006 3.006 0 00-.928-.168c-.8 0-1.493.17-2.08.512a3.446 3.446 0 00-1.352 1.424c-.314.608-.472 1.317-.472 2.128 0 .832.155 1.555.464 2.168.31.613.755 1.09 1.336 1.432.582.341 1.272.512 2.072.512zm.032-1.552a1.9 1.9 0 01-1.112-.328 2.013 2.013 0 01-.712-.904c-.16-.384-.24-.827-.24-1.328 0-.48.08-.91.24-1.288.16-.379.398-.68.712-.904.315-.224.691-.336 1.128-.336.406 0 .776.085 1.112.256.144.073.29.168.437.284l.115.097v3.78l-.07.059a3.6 3.6 0 01-.498.34 2.245 2.245 0 01-1.112.272zm7.994 1.6c.31 0 .638-.05.984-.152a5.804 5.804 0 001.976-1.032l.304.928h1.232v-7.76h-1.808v5.424c-.213.17-.445.339-.696.504-.25.165-.51.301-.776.408a2.14 2.14 0 01-.8.16c-.416 0-.72-.144-.912-.432-.192-.288-.288-.688-.288-1.2V27.24H78.73v4.992c0 .576.08 1.093.24 1.552.16.459.427.819.8 1.08.374.261.886.392 1.536.392zm9.839-.048c.224 0 .496-.03.816-.088.32-.059.65-.147.992-.264.341-.117.624-.256.848-.416l-.528-1.296c-.352.16-.69.285-1.016.376-.325.09-.69.136-1.096.136a2.04 2.04 0 01-1.152-.328 2.057 2.057 0 01-.752-.904A3.2 3.2 0 0189 31.112c.01-.48.104-.912.28-1.296.176-.384.43-.688.76-.912.33-.224.71-.336 1.136-.336.405 0 .773.05 1.104.152.33.101.672.227 1.024.376l.528-1.28a3.595 3.595 0 00-.872-.432 6.595 6.595 0 00-.984-.264 4.586 4.586 0 00-.8-.088c-.81 0-1.517.17-2.12.512a3.548 3.548 0 00-1.4 1.432c-.33.613-.496 1.33-.496 2.152 0 .81.163 1.523.488 2.136a3.51 3.51 0 001.384 1.432c.597.341 1.301.512 2.112.512zm6.506-.016c.405 0 .8-.096 1.184-.288.384-.192.715-.421.992-.688l.272.784h1.216v-5.184c0-.523-.147-.997-.44-1.424a2.992 2.992 0 00-1.176-1 3.7 3.7 0 00-1.648-.36c-.213 0-.496.03-.848.088a8.644 8.644 0 00-1.04.24 2.933 2.933 0 00-.816.36l.48 1.472a8.495 8.495 0 011.048-.36c.4-.112.803-.168 1.208-.168.501 0 .859.147 1.072.44.213.293.325.67.336 1.128v.048h-1.696c-.853.01-1.547.224-2.08.64-.533.416-.8 1.013-.8 1.792 0 .736.224 1.333.672 1.792.448.459 1.136.688 2.064.688zm-.032-1.424a1.17 1.17 0 01-.608-.152 1.063 1.063 0 01-.392-.392c-.09-.16-.136-.33-.136-.512 0-.31.112-.592.336-.848.224-.256.539-.384.944-.384h1.744v1.392a3.45 3.45 0 01-.896.656c-.32.16-.65.24-.992.24zm8.576 1.536c.16 0 .333-.021.52-.064.186-.043.362-.096.528-.16.165-.064.296-.128.392-.192l-.496-1.328a2.499 2.499 0 01-.4.128 1.845 1.845 0 01-.416.048c-.374 0-.651-.125-.832-.376-.182-.25-.272-.573-.272-.968v-3.728h1.952l-.544-1.36h-1.408v-2.256l-1.792.352v1.904h-1.088l.016 1.36h1.072v4.016c0 .565.114 1.043.344 1.432.229.39.546.685.952.888.405.203.896.304 1.472.304zm3.52-9.312c.299 0 .552-.104.76-.312.208-.208.312-.461.312-.76a.996.996 0 00-.32-.752 1.056 1.056 0 00-.752-.304.995.995 0 00-.744.304 1.036 1.036 0 00-.296.752c0 .31.099.565.296.768a.995.995 0 00.744.304zm.928 9.008v-7.76h-1.808V35h1.808zm5.335.208c.821-.01 1.53-.184 2.128-.52a3.55 3.55 0 001.4-1.432c.336-.619.504-1.333.504-2.144 0-.821-.165-1.536-.496-2.144a3.591 3.591 0 00-1.384-1.424c-.592-.341-1.299-.512-2.12-.512-.81 0-1.517.17-2.12.512a3.561 3.561 0 00-1.4 1.424c-.33.608-.496 1.328-.496 2.16 0 .81.16 1.523.48 2.136.32.613.779 1.09 1.376 1.432.597.341 1.307.512 2.128.512zm.016-1.552a2.04 2.04 0 01-1.152-.328 2.057 2.057 0 01-.752-.904 3.2 3.2 0 01-.256-1.312c.01-.48.104-.912.28-1.296.176-.384.43-.688.76-.912.33-.224.71-.336 1.136-.336.448 0 .832.11 1.152.328.32.219.565.52.736.904a3.2 3.2 0 01.256 1.312c0 .48-.088.912-.264 1.296a2.21 2.21 0 01-.744.912c-.32.224-.704.336-1.152.336zM123.147 35v-5.424c.224-.17.459-.341.704-.512.245-.17.504-.31.776-.416.272-.107.536-.16.792-.16.427 0 .733.144.92.432.187.288.28.688.28 1.2V35h1.808v-4.992c0-.576-.083-1.09-.248-1.544a2.23 2.23 0 00-.808-1.08c-.373-.267-.88-.4-1.52-.4-.31 0-.64.048-.992.144a5.128 5.128 0 00-1.032.408 5.565 5.565 0 00-.952.632l-.32-.928h-1.2V35h1.792zm12.945 0v-4.736h4.576V35h1.792V24.12h-1.792v4.72h-4.576v-4.8l-1.776.08V35h1.776zm9.566-9.008c.299 0 .552-.104.76-.312.208-.208.312-.461.312-.76a.996.996 0 00-.32-.752 1.056 1.056 0 00-.752-.304.995.995 0 00-.744.304 1.036 1.036 0 00-.296.752c0 .31.099.565.296.768a.995.995 0 00.744.304zm.928 9.008v-7.76h-1.808V35h1.808zm4.024.208c1.034 0 1.824-.21 2.368-.632.544-.421.816-1 .816-1.736 0-.448-.131-.835-.392-1.16a3.69 3.69 0 00-.992-.848c-.4-.24-.814-.43-1.24-.568a6.914 6.914 0 01-.984-.416c-.283-.15-.424-.325-.424-.528 0-.235.109-.432.328-.592.218-.16.493-.24.824-.24.394 0 .752.05 1.072.152.32.101.645.232.976.392l.56-1.232a3.206 3.206 0 00-.832-.424 6.557 6.557 0 00-.944-.256 4.385 4.385 0 00-.8-.088c-.928 0-1.66.205-2.192.616-.534.41-.8.979-.8 1.704 0 .416.13.776.392 1.08.26.304.589.557.984.76.394.203.794.379 1.2.528.32.085.592.19.816.312.224.123.4.256.528.4a.696.696 0 01.192.472c0 .17-.07.32-.208.448-.14.128-.32.224-.544.288a2.61 2.61 0 01-.72.096c-.224 0-.448-.021-.672-.064a5.08 5.08 0 01-.688-.184 12.58 12.58 0 01-.704-.264l-.544 1.232c.234.16.512.299.832.416.32.117.645.203.976.256.33.053.602.08.816.08zm7.666.096c.16 0 .333-.021.52-.064s.363-.096.528-.16c.165-.064.296-.128.392-.192l-.496-1.328a2.499 2.499 0 01-.4.128 1.845 1.845 0 01-.416.048c-.373 0-.65-.125-.832-.376-.181-.25-.272-.573-.272-.968v-3.728h1.952l-.544-1.36H157.3v-2.256l-1.792.352v1.904h-1.088l.016 1.36h1.072v4.016c0 .565.115 1.043.344 1.432.23.39.547.685.952.888.405.203.896.304 1.472.304zm6.144-.096c.822-.01 1.53-.184 2.128-.52a3.55 3.55 0 001.4-1.432c.336-.619.504-1.333.504-2.144 0-.821-.165-1.536-.496-2.144a3.591 3.591 0 00-1.384-1.424c-.592-.341-1.298-.512-2.12-.512-.81 0-1.517.17-2.12.512a3.561 3.561 0 00-1.4 1.424c-.33.608-.496 1.328-.496 2.16 0 .81.16 1.523.48 2.136.32.613.779 1.09 1.376 1.432.598.341 1.307.512 2.128.512zm.016-1.552a2.04 2.04 0 01-1.152-.328 2.057 2.057 0 01-.752-.904 3.2 3.2 0 01-.256-1.312c.01-.48.104-.912.28-1.296.176-.384.43-.688.76-.912.33-.224.71-.336 1.136-.336.448 0 .832.11 1.152.328.32.219.566.52.736.904a3.2 3.2 0 01.256 1.312c0 .48-.088.912-.264 1.296a2.21 2.21 0 01-.744.912c-.32.224-.704.336-1.152.336zM171.59 35v-4.944c.277-.256.579-.485.904-.688.325-.203.65-.368.976-.496.325-.128.616-.192.872-.192l-.384-1.44c-.277 0-.579.07-.904.208a5.87 5.87 0 00-.936.504 8.007 8.007 0 00-.768.568l-.592-1.28h-.96V35h1.792zm4.132 3.552a5.27 5.27 0 001.232-.48 4.17 4.17 0 001.048-.8c.304-.32.53-.672.68-1.056l3.456-8.976h-1.888l-1.872 5.152-1.984-5.44-1.744.592 2.768 7.088-.432 1.056c-.086.235-.23.437-.432.608-.203.17-.435.32-.696.448-.262.128-.515.245-.76.352l.624 1.456z"/><g transform="translate(13 11)"><circle cx="18" cy="18" r="18" fill="#1B61DB" opacity=".08"/><path fill="#1B61DB" d="M23.479 16.33v4.382c.07 2.09-11.009 2.054-11.078 0v-4.397"/><path fill="#1B61DB" stroke="#E8EFFB" stroke-linecap="round" stroke-linejoin="round" d="M17.424 10.87c.345-.122.72-.123 1.065-.004h0l10.433 3.591-10.425 4.102c-.343.12-.714.12-1.057.004h0L7.003 15z"/><path stroke="#1B61DB" stroke-linecap="round" stroke-linejoin="round" d="M26.325 27.528V24.68M26.325 22.06v-6.701M27.61 23.37a1.31 1.31 0 11-2.622 0 1.31 1.31 0 012.622 0z"/></g></g><g transform="translate(140 18)"><rect width="230" height="167" y="22" fill="#1B61DB" opacity=".08" rx="6"/><rect width="230" height="167" x="11" y="11" fill="#1B61DB" opacity=".1" rx="6"/><use fill="#000" filter="url(#o)" xlink:href="#p"/><use fill="#FFF" stroke="#F2F6FD" xlink:href="#p"/><path fill="#858D98" fill-rule="nonzero" d="M63.845 125v-4.27h3.262l-.168-1.022h-3.094v-3.192h3.99l-.196-1.036h-5.138V125h1.344zm8.247.182c.709 0 1.318-.152 1.827-.455a3.111 3.111 0 001.183-1.26c.28-.537.42-1.155.42-1.855 0-.71-.136-1.332-.406-1.869a3.032 3.032 0 00-1.162-1.26c-.504-.303-1.106-.455-1.806-.455s-1.305.152-1.813.455c-.509.303-.901.721-1.176 1.253-.276.532-.418 1.153-.427 1.862 0 .71.135 1.332.406 1.869.27.537.658.957 1.162 1.26.504.303 1.101.455 1.792.455zm.014-1.148c-.43 0-.794-.105-1.092-.315a1.946 1.946 0 01-.68-.875 3.277 3.277 0 01-.23-1.26c.009-.448.095-.854.259-1.218.163-.364.396-.653.7-.868.303-.215.665-.322 1.085-.322.429 0 .793.105 1.092.315.298.21.525.5.679.868.154.369.23.791.23 1.267 0 .448-.081.854-.244 1.218a2.082 2.082 0 01-.7.868c-.304.215-.67.322-1.1.322zm7.002 1.19a3.1 3.1 0 00.93-.147c.313-.098.612-.233.897-.406.284-.173.539-.362.763-.567l.238.896h.938v-6.79H81.53v4.788a7.338 7.338 0 01-.693.532 3.939 3.939 0 01-.735.399c-.243.098-.48.147-.714.147-.439 0-.735-.138-.89-.413-.153-.275-.23-.642-.23-1.099v-4.354h-1.344v4.48c0 .485.074.92.224 1.302.15.383.385.684.707.903.322.22.74.329 1.253.329zm6.996-.224v-4.788c.224-.196.458-.376.7-.539.243-.163.488-.294.735-.392a1.92 1.92 0 01.707-.147c.439 0 .735.138.89.413.153.275.23.642.23 1.099V125h1.344v-4.48c0-.485-.074-.92-.224-1.302a1.897 1.897 0 00-.707-.903c-.322-.22-.74-.329-1.253-.329a3.1 3.1 0 00-.93.147 4.112 4.112 0 00-.89.399 4.72 4.72 0 00-.77.574l-.238-.896h-.938V125h1.344zm9.39.182c.197 0 .437-.042.722-.126.284-.084.571-.217.86-.399l.169-.115.061-.049.26.507h.77v-9.87l-1.357.14-.001 3.195-.1-.057a3.307 3.307 0 00-.655-.261 2.818 2.818 0 00-.714-.119c-.682 0-1.277.147-1.785.441a3.04 3.04 0 00-1.183 1.232c-.28.527-.42 1.146-.42 1.855 0 .728.135 1.363.406 1.904.27.541.66.964 1.169 1.267.508.303 1.108.455 1.799.455zm0-1.148c-.429 0-.793-.107-1.091-.322a1.992 1.992 0 01-.68-.882 3.356 3.356 0 01-.23-1.288c0-.448.08-.85.238-1.204.158-.355.387-.637.686-.847.298-.21.658-.315 1.078-.315.401 0 .753.08 1.057.238.1.053.201.117.3.193l.126.103v3.743l-.011.01a2.728 2.728 0 01-.43.319c-.284.168-.632.252-1.042.252zm8.123 1.134c.317 0 .62-.033.91-.098.29-.065.565-.156.826-.273.261-.117.504-.24.728-.371l-.42-.98a13.92 13.92 0 01-1.001.434 2.927 2.927 0 01-1.043.168c-.504 0-.92-.091-1.246-.273a1.757 1.757 0 01-.735-.763 3.073 3.073 0 01-.301-1.106h4.816v-.14c0-.663-.1-1.279-.301-1.848a2.969 2.969 0 00-.952-1.372c-.434-.345-1.006-.518-1.715-.518-.672 0-1.25.152-1.736.455a3.007 3.007 0 00-1.12 1.253c-.261.532-.392 1.153-.392 1.862 0 .71.138 1.332.413 1.869.275.537.688.954 1.239 1.253.55.299 1.227.448 2.03.448zm1.232-4.172h-3.486c.047-.373.142-.695.287-.966.145-.27.343-.48.595-.63.252-.15.55-.224.896-.224.345 0 .632.075.86.224.23.15.414.36.554.63.14.27.238.593.294.966zm4.11 4.004v-4.494c.224-.215.474-.413.75-.595.275-.182.56-.331.853-.448.294-.117.563-.175.805-.175l-.294-1.078c-.242 0-.506.06-.79.182a5.137 5.137 0 00-.82.441c-.261.173-.48.334-.658.483l-.434-1.106h-.756V125h1.344zm4.215.056l4.256-9.94-1.344-.056-4.242 9.94 1.33.056zm9.596.14c.27 0 .562-.023.875-.07a7.44 7.44 0 00.917-.196c.299-.084.55-.182.756-.294l-.518-1.008c-.261.121-.56.222-.896.301a5.23 5.23 0 01-1.19.119c-.476 0-.898-.098-1.267-.294a2.76 2.76 0 01-.938-.819 3.796 3.796 0 01-.581-1.204 5.202 5.202 0 01-.196-1.449c0-.765.138-1.437.413-2.016.275-.579.646-1.029 1.113-1.351.467-.322.99-.483 1.568-.483.308 0 .57.016.784.049.215.033.42.077.616.133.196.056.406.126.63.21l.42-.966a3.236 3.236 0 00-.805-.336 6.358 6.358 0 00-.896-.182 5.957 5.957 0 00-.721-.056c-.7 0-1.328.126-1.883.378a4.093 4.093 0 00-1.421 1.057 4.794 4.794 0 00-.903 1.589 6.04 6.04 0 00-.315 1.988c0 .672.093 1.302.28 1.89.187.588.467 1.108.84 1.561.373.453.838.807 1.393 1.064s1.197.385 1.925.385zm10.332-.196l-.182-1.05h-4.522v-3.276h3.416l-.182-1.036h-3.234v-3.122h4.2l-.182-1.036h-5.362V125h6.048zm5.544.196c.887-.019 1.673-.245 2.36-.679a4.6 4.6 0 001.623-1.778c.397-.751.595-1.608.595-2.569 0-.943-.196-1.785-.588-2.527a4.486 4.486 0 00-1.61-1.75c-.681-.425-1.46-.637-2.338-.637-.877.019-1.659.247-2.345.686a4.6 4.6 0 00-1.617 1.785c-.392.751-.588 1.608-.588 2.569 0 .943.194 1.785.581 2.527a4.384 4.384 0 001.603 1.743c.682.42 1.456.63 2.324.63zm-.014-1.148c-.597 0-1.13-.163-1.596-.49-.466-.327-.833-.775-1.099-1.344-.266-.57-.399-1.218-.399-1.946 0-.747.138-1.41.413-1.988.276-.579.651-1.034 1.127-1.365a2.797 2.797 0 011.638-.497 2.71 2.71 0 011.59.483c.461.322.825.768 1.091 1.337.266.57.4 1.218.4 1.946 0 .747-.136 1.412-.407 1.995-.27.583-.644 1.04-1.12 1.372a2.797 2.797 0 01-1.638.497zm12.895-2.338l-.14-1.064h-3.556l.126 1.064h3.57zm9.038 3.486c.27 0 .562-.023.875-.07a7.44 7.44 0 00.917-.196c.298-.084.55-.182.756-.294l-.518-1.008c-.262.121-.56.222-.896.301a5.23 5.23 0 01-1.19.119c-.476 0-.899-.098-1.267-.294a2.76 2.76 0 01-.938-.819 3.796 3.796 0 01-.581-1.204 5.202 5.202 0 01-.196-1.449c0-.765.137-1.437.413-2.016.275-.579.646-1.029 1.113-1.351.466-.322.989-.483 1.568-.483.308 0 .569.016.784.049.214.033.42.077.616.133.196.056.406.126.63.21l.42-.966a3.236 3.236 0 00-.805-.336 6.358 6.358 0 00-.896-.182 5.957 5.957 0 00-.721-.056c-.7 0-1.328.126-1.883.378a4.093 4.093 0 00-1.421 1.057 4.794 4.794 0 00-.903 1.589 6.04 6.04 0 00-.315 1.988c0 .672.093 1.302.28 1.89.186.588.466 1.108.84 1.561.373.453.837.807 1.393 1.064.555.257 1.197.385 1.925.385zm6.804-.014c.709 0 1.318-.152 1.827-.455a3.111 3.111 0 001.183-1.26c.28-.537.42-1.155.42-1.855 0-.71-.136-1.332-.406-1.869a3.032 3.032 0 00-1.162-1.26c-.504-.303-1.106-.455-1.806-.455s-1.305.152-1.813.455c-.51.303-.901.721-1.176 1.253-.276.532-.418 1.153-.427 1.862 0 .71.135 1.332.406 1.869.27.537.658.957 1.162 1.26.504.303 1.1.455 1.792.455zm.014-1.148c-.43 0-.794-.105-1.092-.315a1.946 1.946 0 01-.68-.875 3.277 3.277 0 01-.23-1.26c.009-.448.095-.854.259-1.218.163-.364.396-.653.7-.868.303-.215.665-.322 1.085-.322.429 0 .793.105 1.092.315.298.21.525.5.679.868.154.369.23.791.23 1.267 0 .448-.081.854-.244 1.218a2.082 2.082 0 01-.7.868c-.304.215-.67.322-1.1.322zm6.218.966v-4.788c.224-.196.455-.376.693-.539.238-.163.473-.294.707-.392.233-.098.452-.147.658-.147.27 0 .483.063.637.189.154.126.263.301.329.525.065.224.098.49.098.798V125h1.344v-4.48l-.006-.238-.013-.148.133-.113c.153-.123.308-.24.467-.348.238-.163.473-.294.707-.392.233-.098.452-.147.658-.147.27 0 .483.063.637.189.154.126.263.301.329.525.065.224.098.49.098.798V125h1.344v-4.48c0-.485-.075-.92-.224-1.302a1.928 1.928 0 00-.693-.903c-.313-.22-.717-.329-1.211-.329-.28 0-.57.049-.868.147a4.274 4.274 0 00-.868.399c-.21.126-.407.265-.59.417l-.176.152-.017-.042a1.89 1.89 0 00-.624-.744c-.313-.22-.717-.329-1.211-.329-.28 0-.57.049-.868.147a4.274 4.274 0 00-.868.399 4.72 4.72 0 00-.77.574l-.238-.896h-.938V125h1.344zm10.726 3.066l1.344-.154v-3.122l.021.012c.217.114.434.201.651.261.29.08.528.119.714.119.682 0 1.277-.147 1.785-.441a3.028 3.028 0 001.183-1.239c.28-.532.42-1.148.42-1.848 0-.728-.135-1.365-.406-1.911a2.968 2.968 0 00-1.162-1.267c-.504-.299-1.106-.448-1.806-.448-.186 0-.424.042-.714.126-.289.084-.576.215-.86.392l-.121.082-.293-.418h-.756v9.856zm2.744-4.032c-.401 0-.753-.08-1.057-.238a2.128 2.128 0 01-.3-.193l-.043-.034v-3.892l.072-.06c.095-.076.19-.142.285-.196.285-.163.633-.245 1.043-.245.43 0 .794.107 1.092.322.299.215.525.509.68.882.153.373.23.803.23 1.288 0 .448-.079.85-.238 1.204a2.04 2.04 0 01-.679.847c-.294.21-.655.315-1.085.315zm7.015 1.134c.364 0 .728-.084 1.092-.252.364-.168.662-.355.896-.56l.168.644h.938v-4.606c0-.439-.12-.838-.357-1.197a2.5 2.5 0 00-.98-.854 3.074 3.074 0 00-1.407-.315c-.187 0-.43.026-.728.077a7.128 7.128 0 00-.882.21c-.29.089-.523.194-.7.315l.378 1.064c.252-.112.54-.217.868-.315.326-.098.69-.147 1.092-.147.532 0 .89.156 1.078.469.186.313.28.702.28 1.169v.07h-1.61c-.738 0-1.337.18-1.8.539-.461.36-.692.88-.692 1.561 0 .616.193 1.125.58 1.526.388.401.983.602 1.786.602zm-.028-1.064c-.252 0-.462-.054-.63-.161a1.076 1.076 0 01-.504-.903c0-.317.107-.597.322-.84.214-.243.527-.364.938-.364h1.652v1.372a3.06 3.06 0 01-.805.644 1.977 1.977 0 01-.973.252zm6.286.896v-4.788c.224-.196.457-.376.7-.539.243-.163.488-.294.735-.392a1.92 1.92 0 01.707-.147c.439 0 .735.138.889.413.154.275.23.642.23 1.099V125h1.345v-4.48c0-.485-.075-.92-.224-1.302a1.897 1.897 0 00-.707-.903c-.322-.22-.74-.329-1.253-.329a3.1 3.1 0 00-.931.147 4.112 4.112 0 00-.89.399 4.72 4.72 0 00-.77.574l-.237-.896H199V125h1.344zm6.716 3.094a3.937 3.937 0 001.001-.385c.313-.173.588-.385.826-.637a2.42 2.42 0 00.525-.84l3.01-8.022h-1.386l-1.792 4.872-1.89-5.124-1.274.476 2.478 6.384-.392 1.036a1.27 1.27 0 01-.357.525 2.547 2.547 0 01-.553.371c-.205.103-.42.205-.644.308l.448 1.036zM110.098 145v-7.098l.532.84 4.41 6.258h1.204v-9.52h-1.358v7.042l-.672-1.05-4.27-5.992h-1.19V145h1.344zm11.713.168c.317 0 .62-.033.91-.098.29-.065.564-.156.826-.273.261-.117.504-.24.728-.371l-.42-.98a13.92 13.92 0 01-1.001.434 2.927 2.927 0 01-1.043.168c-.504 0-.92-.091-1.246-.273a1.757 1.757 0 01-.735-.763 3.073 3.073 0 01-.301-1.106h4.816v-.14c0-.663-.1-1.279-.301-1.848a2.969 2.969 0 00-.952-1.372c-.434-.345-1.006-.518-1.715-.518-.672 0-1.25.152-1.736.455a3.007 3.007 0 00-1.12 1.253c-.262.532-.392 1.153-.392 1.862 0 .71.137 1.332.413 1.869.275.537.688.954 1.239 1.253.55.299 1.227.448 2.03.448zm1.232-4.172h-3.486c.046-.373.142-.695.287-.966.144-.27.343-.48.595-.63.252-.15.55-.224.896-.224.345 0 .632.075.86.224.23.15.414.36.554.63.14.27.238.593.294.966zm5.356 4.004l1.414-4.83 1.498 4.83h1.232l2.114-6.79h-1.386l-1.33 4.788-1.4-4.788h-1.414l-1.33 4.788-1.4-5.026-1.288.476 2.058 6.552h1.232zm14.658 0l.014-3.794 3.318-5.726h-1.428l-2.576 4.396-2.52-4.634-1.302.476 3.15 5.502V145h1.344zm7.459.182c.709 0 1.318-.152 1.827-.455a3.111 3.111 0 001.183-1.26c.28-.537.42-1.155.42-1.855 0-.71-.136-1.332-.406-1.869a3.032 3.032 0 00-1.162-1.26c-.504-.303-1.106-.455-1.806-.455s-1.305.152-1.813.455c-.51.303-.901.721-1.176 1.253-.276.532-.418 1.153-.427 1.862 0 .71.135 1.332.406 1.869.27.537.658.957 1.162 1.26.504.303 1.1.455 1.792.455zm.014-1.148c-.43 0-.794-.105-1.092-.315a1.946 1.946 0 01-.68-.875 3.277 3.277 0 01-.23-1.26c.009-.448.095-.854.259-1.218.163-.364.396-.653.7-.868.303-.215.665-.322 1.085-.322.429 0 .793.105 1.092.315.298.21.525.5.679.868.154.369.23.791.23 1.267 0 .448-.081.854-.244 1.218a2.082 2.082 0 01-.7.868c-.304.215-.67.322-1.1.322zm6.218.966v-4.494c.224-.215.473-.413.749-.595.275-.182.56-.331.854-.448.294-.117.562-.175.805-.175l-.294-1.078c-.243 0-.507.06-.791.182a5.137 5.137 0 00-.82.441c-.26.173-.48.334-.657.483l-.434-1.106h-.756V145h1.344zm5.068 0v-2.436l.868-.84 2.058 3.276h1.568l-2.702-4.144 2.016-1.932-.784-.896-3.024 2.954v-5.866l-1.344.154V145h1.344z"/><path fill="#132369" fill-rule="nonzero" d="M91.455 98.162l2.016-.288L88.72 85.76h-1.764L82.275 98h1.998l1.152-3.078h4.842l1.188 3.24zm-1.818-4.878H86.02l1.782-4.77 1.836 4.77zm8.597 4.95c.336 0 .687-.063 1.053-.189a4.421 4.421 0 001.071-.549l.204-.15.095-.079.44.733h1.097V85.31l-2.034.18v4.121l-.17-.098a4.285 4.285 0 00-.676-.288 3.382 3.382 0 00-1.044-.189c-.9 0-1.68.192-2.34.576a3.877 3.877 0 00-1.52 1.602c-.355.684-.532 1.482-.532 2.394 0 .936.174 1.749.522 2.439.348.69.85 1.227 1.503 1.611.654.384 1.431.576 2.331.576zm.036-1.746c-.48 0-.897-.123-1.25-.369a2.265 2.265 0 01-.802-1.017c-.18-.432-.27-.93-.27-1.494 0-.54.09-1.023.27-1.449.18-.426.447-.765.801-1.017.354-.252.777-.378 1.27-.378.455 0 .872.096 1.25.288.162.082.326.189.491.32l.13.11v4.251l-.079.066a4.05 4.05 0 01-.56.383 2.526 2.526 0 01-1.25.306zM106.466 98v-5.562a6.783 6.783 0 011.017-.774 6.763 6.763 0 011.098-.558c.366-.144.693-.216.981-.216l-.432-1.62c-.312 0-.651.078-1.017.234a6.605 6.605 0 00-1.053.567 9.008 9.008 0 00-.864.639l-.666-1.44h-1.08V98h2.016zm5.309-10.134c.336 0 .62-.117.855-.351.234-.234.35-.519.35-.855 0-.336-.12-.618-.36-.846a1.188 1.188 0 00-.845-.342 1.12 1.12 0 00-.837.342c-.222.228-.333.51-.333.846 0 .348.11.636.333.864.222.228.5.342.837.342zM112.819 98v-8.73h-2.034V98h2.034zm4.917.216c.456 0 .9-.108 1.332-.324a4.497 4.497 0 001.116-.774l.306.882h1.368v-5.832c0-.588-.165-1.122-.495-1.602a3.366 3.366 0 00-1.323-1.125c-.552-.27-1.17-.405-1.854-.405a6.1 6.1 0 00-.954.099 9.724 9.724 0 00-1.17.27c-.384.114-.69.249-.918.405l.54 1.656a9.557 9.557 0 011.179-.405c.45-.126.903-.189 1.359-.189.564 0 .966.165 1.206.495.24.33.366.753.378 1.269v.054h-1.908c-.96.012-1.74.252-2.34.72-.6.468-.9 1.14-.9 2.016 0 .828.252 1.5.756 2.016s1.278.774 2.322.774zm-.036-1.602c-.264 0-.492-.057-.684-.171a1.196 1.196 0 01-.441-.441 1.15 1.15 0 01-.153-.576c0-.348.126-.666.378-.954.252-.288.606-.432 1.062-.432h1.962v1.566a3.88 3.88 0 01-1.008.738c-.36.18-.732.27-1.116.27zM125.866 98v-6.102c.252-.192.516-.384.792-.576.276-.192.567-.348.873-.468.306-.12.603-.18.891-.18.48 0 .825.162 1.035.486.21.324.315.774.315 1.35V98h2.034v-5.616c0-.648-.093-1.227-.279-1.737a2.509 2.509 0 00-.909-1.215c-.42-.3-.99-.45-1.71-.45-.348 0-.72.054-1.116.162a5.769 5.769 0 00-1.16.459 6.261 6.261 0 00-1.072.711l-.36-1.044h-1.35V98h2.016zm11.996 1.836c.684-.228 1.218-.462 1.602-.702.384-.24.657-.54.82-.9.161-.36.242-.804.242-1.332V85.76h-2.034v10.8c0 .372-.033.66-.099.864a.94.94 0 01-.405.504c-.204.132-.516.276-.936.432l.81 1.476zm13.053-1.602c.972 0 1.788-.147 2.448-.441.66-.294 1.167-.687 1.521-1.179.354-.492.531-1.062.531-1.71 0-.492-.09-.921-.27-1.287a3.325 3.325 0 00-.738-.981 6.473 6.473 0 00-1.089-.801 24.282 24.282 0 00-1.323-.729c-.552-.288-1.038-.546-1.458-.774-.42-.228-.74-.471-.963-.729a1.374 1.374 0 01-.333-.927c0-.48.204-.837.612-1.071.408-.234.912-.351 1.512-.351.372 0 .711.033 1.017.099.306.066.588.153.846.261.258.108.501.222.73.342l.665-1.62a9.955 9.955 0 00-1.53-.594 6.116 6.116 0 00-1.8-.27c-.864 0-1.602.144-2.214.432-.612.288-1.08.672-1.404 1.152a2.86 2.86 0 00-.486 1.638c0 .468.087.885.261 1.251.174.366.414.699.72.999.306.3.666.579 1.08.837.414.258.861.513 1.341.765.528.252 1 .495 1.413.729.414.234.741.477.981.729s.36.552.36.9c0 .324-.093.603-.279.837-.186.234-.459.411-.819.531-.36.12-.81.18-1.35.18a4.77 4.77 0 01-1.107-.135 8.957 8.957 0 01-1.07-.324 14.816 14.816 0 01-.865-.351l-.468 1.62c.168.12.396.237.684.351.288.114.603.216.945.306.342.09.681.165 1.017.225.336.06.63.09.882.09zm8.048-.234v-6.102c.252-.192.51-.384.774-.576a4.28 4.28 0 01.81-.468c.276-.12.552-.18.828-.18.312 0 .555.075.729.225.174.15.3.36.378.63.078.27.117.597.117.981V98h2.034v-5.796l-.006-.273-.007-.091.307-.23c.13-.096.264-.192.399-.288.27-.192.543-.348.819-.468.276-.12.546-.18.81-.18.312 0 .555.075.729.225.174.15.3.36.378.63.078.27.117.597.117.981V98h2.034v-5.796c0-.648-.093-1.212-.28-1.692a2.312 2.312 0 00-.89-1.125c-.408-.27-.942-.405-1.602-.405-.324 0-.672.054-1.044.162a5.844 5.844 0 00-1.116.459 5.807 5.807 0 00-.797.511l-.227.183-.064-.125a2.262 2.262 0 00-.73-.785c-.408-.27-.942-.405-1.602-.405-.312 0-.657.054-1.035.162-.378.108-.75.261-1.116.459a6.623 6.623 0 00-1.053.711l-.36-1.044h-1.35V98h2.016zm14.239-10.134c.336 0 .62-.117.855-.351.234-.234.35-.519.35-.855 0-.336-.12-.618-.36-.846a1.188 1.188 0 00-.845-.342 1.12 1.12 0 00-.837.342c-.222.228-.333.51-.333.846 0 .348.11.636.333.864.222.228.5.342.837.342zM174.246 98v-8.73h-2.034V98h2.034zm5.583.342c.18 0 .375-.024.585-.072.21-.048.408-.108.594-.18s.333-.144.44-.216l-.557-1.494c-.144.06-.294.108-.45.144a2.075 2.075 0 01-.468.054c-.42 0-.732-.141-.936-.423-.204-.282-.306-.645-.306-1.089v-4.194h2.196l-.612-1.53h-1.584v-2.538l-2.016.396v2.142h-1.224l.018 1.53h1.206v4.518c0 .636.129 1.173.387 1.611.258.438.615.771 1.07.999.457.228 1.009.342 1.657.342zM184.99 98v-6.102c.252-.192.516-.384.792-.576.276-.192.567-.348.873-.468.306-.12.603-.18.891-.18.48 0 .828.162 1.044.486.216.324.324.774.324 1.35V98h2.016v-5.616c0-.648-.093-1.227-.279-1.737a2.53 2.53 0 00-.9-1.215c-.414-.3-.981-.45-1.701-.45-.36 0-.738.054-1.134.162a5.769 5.769 0 00-1.161.459 6.185 6.185 0 00-.551.326l-.215.151.001-4.788-1.998.198V98h1.998z"/><circle cx="29" cy="29" r="29" fill="#D7D9DD" transform="translate(108 16)"/></g></g></svg>