<svg id="Integration" xmlns="http://www.w3.org/2000/svg" width="40" height="40" viewBox="0 0 40 40">
  <circle id="Ellipse_7150" data-name="Ellipse 7150" cx="20" cy="20" r="20" fill="#1b61db" opacity="0.08"/>
  <path id="arrows-merge-svgrepo-com" d="M13.793,13.162,10.408,9.777A1.359,1.359,0,1,0,8.485,11.7l1.083,1.07H4.708V7.354A1.354,1.354,0,1,0,2,7.354V20.893a1.354,1.354,0,0,0,2.708,0V15.477H9.568l-1.083,1.07a1.359,1.359,0,1,0,1.923,1.923l3.385-3.385a1.4,1.4,0,0,0,0-1.923Z" transform="translate(7.461 1.138)" fill="#1b61db"/>
  <path id="arrows-merge-svgrepo-com-2" data-name="arrows-merge-svgrepo-com" d="M23.83,6a1.354,1.354,0,0,0-1.354,1.354V12.77H17.615L18.7,11.7a1.359,1.359,0,0,0-1.923-1.923l-3.385,3.385a1.4,1.4,0,0,0,0,1.923l3.385,3.385A1.359,1.359,0,1,0,18.7,16.547l-1.083-1.07h4.861v5.416a1.354,1.354,0,0,0,2.708,0V7.354A1.354,1.354,0,0,0,23.83,6Z" transform="translate(5.356 10.615)" fill="#1b61db"/>
</svg>
