<svg xmlns="http://www.w3.org/2000/svg" width="22" height="23" viewBox="0 0 22 23">
  <g fill="none" fill-rule="evenodd" transform="translate(0 .55)">
    <circle cx="11" cy="11" r="11" fill="#0A66C2"/>
    <g fill="#FFF" fill-rule="nonzero" transform="translate(5.463 5.463)">
      <path d="M11.0713983,11.0741669 L11.0713983,11.0737055 L11.0741669,11.0737055 L11.0741669,7.01225475 C11.0741669,5.02536464 10.6464272,3.4948225 8.32362068,3.4948225 C7.20697552,3.4948225 6.45762356,4.10759306 6.1516997,4.6885254 L6.11940005,4.6885254 L6.11940005,3.68031479 L3.91702511,3.68031479 L3.91702511,11.0737055 L6.2103005,11.0737055 L6.2103005,7.41277045 C6.2103005,6.44885651 6.39302425,5.5167808 7.58672716,5.5167808 C8.76289597,5.5167808 8.78043006,6.61681471 8.78043006,7.47460122 L8.78043006,11.0741669 L11.0713983,11.0741669 Z"/>
      <polygon points=".183 3.681 2.479 3.681 2.479 11.074 .183 11.074"/>
      <path d="M1.32982287,0 C0.595697893,0 0,0.595697893 0,1.32982287 C0,2.06394785 0.595697893,2.67210418 1.32982287,2.67210418 C2.06394785,2.67210418 2.65964574,2.06394785 2.65964574,1.32982287 C2.65918432,0.595697893 2.06348643,0 1.32982287,0 Z"/>
    </g>
  </g>
</svg>
