<svg xmlns="http://www.w3.org/2000/svg" width="20" height="21" viewBox="0 0 20 21">
    <g fill="none" fill-rule="evenodd">
        <g fill="#1B61DB">
            <g>
                <g>
                    <g transform="translate(-20.000000, -4856.000000) translate(19.000000, 3874.500000) translate(1.000000, 876.000000) translate(0.000000, 106.000000)">
                        <circle cx="10" cy="10" r="10" opacity=".08"/>
                        <g fill-rule="nonzero">
                            <path d="M5.68 0C2.549 0 0 2.548 0 5.68c0 3.133 2.548 5.682 5.68 5.682 3.133 0 5.682-2.549 5.682-5.681C11.362 2.548 8.813 0 5.68 0zm2.702 8.62c-.092.091-.213.138-.334.138-.121 0-.243-.047-.335-.139L5.346 6.252c-.089-.088-.139-.209-.139-.335V2.84c0-.261.212-.473.474-.473.261 0 .473.212.473.473v2.882L8.382 7.95c.186.185.186.484 0 .67z" transform="translate(4.319234, 4.319234)"/>
                        </g>
                    </g>
                </g>
            </g>
        </g>
    </g>
</svg>
