<svg xmlns="http://www.w3.org/2000/svg" width="40" height="41"><g transform="translate(0 .5)" fill="#1B61DB" fill-rule="evenodd"><circle cx="20" cy="20" r="20" opacity=".08"/><g fill-rule="nonzero"><path d="M18.023 8.5C13.048 8.5 9 12.548 9 17.523c0 4.977 4.048 9.024 9.023 9.024 4.976 0 9.024-4.048 9.024-9.024 0-4.975-4.048-9.023-9.024-9.023zm0 15.468a6.453 6.453 0 01-6.445-6.445 6.453 6.453 0 016.445-6.445 6.453 6.453 0 016.445 6.445 6.452 6.452 0 01-6.445 6.445zm12.41 3.231l-3.884-3.884a10.364 10.364 0 01-2.734 2.734l3.884 3.884a1.931 1.931 0 002.734 0 1.931 1.931 0 000-2.734z"/><path d="M18.023 14.3a2.581 2.581 0 00-2.578 2.579c0 1.422 1.156 2.578 2.578 2.578s2.578-1.156 2.578-2.578-1.156-2.579-2.578-2.579zm3.726 6.665a3.832 3.832 0 00-.867-1.504 3.847 3.847 0 01-2.859 1.285 3.84 3.84 0 01-2.85-1.277 4.134 4.134 0 00-.853 1.628 5.135 5.135 0 003.703 1.582 5.127 5.127 0 003.742-1.63l-.016-.084z"/></g></g></svg>