<svg width="468" height="388" fill="none" xmlns="http://www.w3.org/2000/svg"><path opacity=".06" d="M351 26H13a6 6 0 00-6 6v48a6 6 0 006 6h338a6 6 0 006-6V32a6 6 0 00-6-6z" fill="#1B61DB"/><path opacity=".1" d="M362 12H24a6 6 0 00-6 6v48a6 6 0 006 6h338a6 6 0 006-6V18a6 6 0 00-6-6z" fill="#1B61DB"/><path d="M372.5.5h-337a6 6 0 00-6 6v47a6 6 0 006 6h337a6 6 0 006-6v-47a6 6 0 00-6-6z" fill="#fff" stroke="#ADC4EB"/><path d="M54.378 36.126l1.404-.234-4.716-12.132h-1.35L45.18 36h1.386l1.278-3.474h5.166l1.368 3.6zm-1.782-4.752H48.24l2.142-5.724 2.214 5.724zm8.33 4.86a3.801 3.801 0 002.034-.666l.197-.142.121-.098.276.672h.864V23.31l-1.44.18v4.214l-.223-.137a4.393 4.393 0 00-.785-.351c-.36-.12-.696-.18-1.008-.18-.864 0-1.61.195-2.24.585a3.85 3.85 0 00-1.45 1.611c-.336.684-.504 1.476-.504 2.376 0 .912.162 1.716.486 2.412a3.728 3.728 0 001.422 1.629c.624.39 1.374.585 2.25.585zm-.018-1.206c-.6 0-1.1-.147-1.503-.441-.402-.294-.702-.702-.9-1.224-.198-.522-.297-1.113-.297-1.773 0-.636.102-1.203.306-1.701.204-.498.51-.897.918-1.197.408-.3.906-.45 1.494-.45.576 0 1.053.111 1.431.333.151.089.3.19.444.302l.177.149v5.15l-.108.1c-.18.16-.366.296-.558.41-.384.228-.852.342-1.404.342zM68.47 36v-6.012c.264-.264.57-.516.918-.756.348-.24.717-.438 1.107-.594.39-.156.753-.234 1.09-.234l-.343-1.134c-.312 0-.65.078-1.017.234a6.272 6.272 0 00-1.044.567c-.33.222-.609.423-.837.603l-.432-1.404h-.846V36h1.404zm5.346-10.458a.95.95 0 00.684-.279.926.926 0 00.288-.693.912.912 0 00-.297-.693.98.98 0 00-.693-.279.911.911 0 00-.684.279.957.957 0 00-.27.693c0 .276.09.507.27.693.18.186.414.279.702.279zM74.553 36v-8.73h-1.44V36h1.44zm5.221.216c.48 0 .963-.114 1.45-.342.485-.228.866-.48 1.142-.756l.18.882h1.08v-6.012c0-.576-.144-1.086-.432-1.53a2.947 2.947 0 00-1.197-1.044c-.51-.252-1.1-.378-1.773-.378-.24 0-.546.033-.918.099a8.25 8.25 0 00-1.089.27 3.386 3.386 0 00-.873.405l.414 1.062c.324-.132.681-.264 1.071-.396.39-.132.867-.198 1.431-.198.696 0 1.191.198 1.485.594.294.396.441.894.441 1.494v.486h-2.25c-.936 0-1.698.231-2.286.693-.588.462-.882 1.119-.882 1.971 0 .768.246 1.41.738 1.926s1.248.774 2.268.774zm-.054-1.134c-.372 0-.678-.078-.918-.234a1.416 1.416 0 01-.53-.603 1.735 1.735 0 01.288-1.926c.305-.342.752-.513 1.34-.513h2.286v1.998c-.3.348-.66.648-1.08.9-.42.252-.882.378-1.386.378zm7.704.918v-6.192c.288-.3.6-.567.936-.801a5.316 5.316 0 011.035-.567c.354-.144.675-.216.963-.216.6 0 1.011.192 1.233.576.222.384.333.876.333 1.476V36h1.422v-5.904c0-.6-.096-1.131-.288-1.593a2.4 2.4 0 00-.891-1.098c-.402-.27-.921-.405-1.557-.405-.384 0-.78.066-1.188.198a5.049 5.049 0 00-1.152.54c-.36.228-.678.486-.954.774l-.252-1.242H86.02V36h1.404zm12.342 1.836c.612-.192 1.09-.402 1.431-.63.342-.228.585-.507.73-.837.143-.33.215-.747.215-1.251V23.76h-1.44v11.052c.012.444-.024.783-.108 1.017-.084.234-.234.42-.45.558-.216.138-.528.285-.936.441l.558 1.008zm12.794-1.602c.924 0 1.707-.138 2.349-.414.642-.276 1.134-.654 1.476-1.134.342-.48.513-1.032.513-1.656 0-.444-.072-.837-.216-1.179a2.89 2.89 0 00-.63-.927 5.306 5.306 0 00-1.008-.774c-.396-.24-.858-.474-1.386-.702a45.916 45.916 0 01-1.8-.927c-.492-.27-.861-.561-1.107-.873a1.749 1.749 0 01-.37-1.116c0-.576.244-1.026.73-1.35.486-.324 1.113-.486 1.88-.486.409 0 .766.033 1.072.099.306.066.582.147.828.243s.47.192.675.288l.486-1.098a8.079 8.079 0 00-1.404-.522 6.324 6.324 0 00-1.728-.234c-.804 0-1.497.138-2.08.414-.581.276-1.031.642-1.35 1.098a2.677 2.677 0 00-.476 1.566c0 .42.069.804.207 1.152.138.348.342.669.612.963.27.294.606.564 1.008.81.402.246.867.489 1.395.729.708.288 1.302.567 1.782.837s.843.561 1.089.873c.246.312.369.69.369 1.134 0 .372-.111.711-.333 1.017-.222.306-.55.543-.981.711-.432.168-.972.252-1.62.252-.372 0-.75-.039-1.134-.117a6.842 6.842 0 01-1.053-.297c-.318-.12-.591-.228-.82-.324l-.323 1.116c.168.108.384.213.648.315.264.102.558.189.882.261.324.072.645.132.963.18.318.048.603.072.855.072zm7.669-.234v-6.192c.288-.3.597-.567.927-.801.33-.234.657-.423.98-.567.325-.144.619-.216.883-.216.384 0 .678.087.882.261.204.174.348.414.432.72.084.306.126.663.126 1.071V36h1.422v-5.922l-.008-.289-.01-.124.075-.076c.223-.212.456-.406.699-.582a5.44 5.44 0 01.972-.567c.324-.144.624-.216.9-.216.372 0 .66.087.864.261.204.174.35.414.44.72.09.306.136.663.136 1.071V36h1.422v-5.922c0-.588-.09-1.113-.27-1.575a2.329 2.329 0 00-.855-1.098c-.39-.27-.891-.405-1.503-.405-.336 0-.7.066-1.09.198a5.232 5.232 0 00-1.846 1.104l-.2.195-.08-.186a2.304 2.304 0 00-.762-.906c-.384-.27-.888-.405-1.512-.405-.336 0-.696.066-1.08.198a5.104 5.104 0 00-1.107.54c-.354.228-.67.486-.945.774l-.252-1.242h-1.044V36h1.404zm14.24-10.458a.949.949 0 00.683-.279.926.926 0 00.288-.693.912.912 0 00-.297-.693.98.98 0 00-.693-.279.911.911 0 00-.684.279.957.957 0 00-.27.693c0 .276.09.507.27.693.18.186.414.279.702.279h.001zM135.205 36v-8.73h-1.44V36h1.44zm5.347.27c.168 0 .336-.015.504-.045a3.333 3.333 0 00.828-.261l-.342-1.116c-.084.036-.2.075-.35.117-.15.042-.298.063-.442.063-.432 0-.744-.138-.936-.414-.192-.276-.288-.636-.288-1.08v-5.04h2.034l-.45-1.08h-1.584v-2.61l-1.44.396v2.214h-1.26l.018 1.08h1.242v5.238c0 .552.102 1.014.306 1.386.204.372.492.657.864.855.372.198.804.297 1.296.297zm4.676-.27v-6.192c.288-.3.6-.567.936-.801a5.316 5.316 0 011.035-.567c.354-.144.675-.216.963-.216.6 0 1.011.192 1.233.576.222.384.333.876.333 1.476V36h1.422v-5.904c0-.6-.096-1.131-.288-1.593a2.404 2.404 0 00-.89-1.098c-.403-.27-.922-.405-1.558-.405-.384 0-.78.066-1.188.198a5.196 5.196 0 00-1.891 1.104l-.107.104v-5.114l-1.404.198V36h1.404z" fill="#5D6775"/><g filter="url(#filter0_d)"><path d="M365 8h-32a6 6 0 00-6 6v32a6 6 0 006 6h32a6 6 0 006-6V14a6 6 0 00-6-6z" fill="#000"/></g><path d="M365 8h-32a6 6 0 00-6 6v32a6 6 0 006 6h32a6 6 0 006-6V14a6 6 0 00-6-6z" fill="#009E60"/><path clip-rule="evenodd" d="M353.083 33.371a7.599 7.599 0 01-10.747 0 7.598 7.598 0 010-10.748 7.599 7.599 0 0110.747 0 7.598 7.598 0 010 10.748z" stroke="#fff" stroke-width="2"/><path d="M353.71 33.197l5.6 5.6" stroke="#fff" stroke-width="2" stroke-linecap="round"/><g filter="url(#filter1_d)"><path d="M402 115H13a6 6 0 00-6 6v143a6 6 0 006 6h389a6 6 0 006-6V121a6 6 0 00-6-6z" fill="#000"/></g><path d="M402 115H13a6 6 0 00-6 6v143a6 6 0 006 6h389a6 6 0 006-6V121a6 6 0 00-6-6z" fill="#fff" stroke="#F2F6FD"/><path d="M97.656 157l-.272-1.408h-5.2V152.2h3.904l-.272-1.424h-3.632v-3.248h4.784l-.272-1.408h-6.288V157h7.248zm3.235 0v-5.424c.224-.17.453-.341.688-.512.234-.17.474-.31.72-.416.245-.107.49-.16.736-.16.277 0 .493.067.648.2.154.133.266.32.336.56.07.24.104.53.104.872V157h1.808v-5.152l-.007-.282-.004-.042.273-.204.354-.256c.24-.17.482-.31.728-.416a1.79 1.79 0 01.72-.16c.277 0 .493.067.648.2.154.133.266.32.336.56.07.24.104.53.104.872V157h1.808v-5.152c0-.576-.083-1.077-.248-1.504a2.061 2.061 0 00-.792-1c-.363-.24-.838-.36-1.424-.36-.288 0-.598.048-.928.144-.33.096-.662.232-.992.408a5.165 5.165 0 00-.708.455l-.202.162-.08-.152a1.996 1.996 0 00-.626-.657c-.363-.24-.838-.36-1.424-.36a3.37 3.37 0 00-.92.144 4.92 4.92 0 00-.992.408 5.85 5.85 0 00-.936.632l-.32-.928h-1.2V157h1.792zm14.505.192c.405 0 .8-.096 1.184-.288.384-.192.715-.421.992-.688l.272.784h1.216v-5.184a2.46 2.46 0 00-.44-1.424 2.984 2.984 0 00-1.176-1c-.49-.24-1.04-.36-1.648-.36-.213 0-.496.03-.848.088a8.758 8.758 0 00-1.04.24 2.923 2.923 0 00-.816.36l.48 1.472a8.514 8.514 0 011.048-.36c.4-.112.803-.168 1.208-.168.501 0 .859.147 1.072.44.213.293.325.67.336 1.128v.048h-1.696c-.853.01-1.547.224-2.08.64-.533.416-.8 1.013-.8 1.792 0 .736.224 1.333.672 1.792.448.459 1.136.688 2.064.688zm-.032-1.424c-.235 0-.437-.05-.608-.152a1.068 1.068 0 01-.392-.392c-.09-.16-.136-.33-.136-.512 0-.31.112-.592.336-.848.224-.256.539-.384.944-.384h1.744v1.392a3.452 3.452 0 01-.896.656c-.32.16-.65.24-.992.24zm6.547-7.776c.298 0 .552-.104.76-.312.208-.208.312-.461.312-.76a.995.995 0 00-.32-.752 1.056 1.056 0 00-.752-.304.993.993 0 00-.744.304 1.033 1.033 0 00-.296.752c0 .31.098.565.296.768a.993.993 0 00.744.304zm.928 9.008v-7.76h-1.809V157h1.809zm3.978 0v-11.296l-1.776.176V157h1.776zm4.41.208c1.035 0 1.824-.21 2.368-.632.544-.421.816-1 .816-1.736 0-.448-.13-.835-.392-1.16a3.69 3.69 0 00-.992-.848c-.4-.24-.813-.43-1.24-.568a6.986 6.986 0 01-.984-.416c-.283-.15-.424-.325-.424-.528 0-.235.11-.432.328-.592.219-.16.493-.24.824-.24.395 0 .752.05 1.072.152.32.101.645.232.976.392l.56-1.232a3.232 3.232 0 00-.832-.424 6.613 6.613 0 00-.944-.256 4.362 4.362 0 00-.8-.088c-.928 0-1.659.205-2.192.616-.533.41-.8.979-.8 1.704 0 .416.13.776.392 1.08.261.304.59.557.984.76.395.203.795.379 1.2.528.32.085.592.19.816.312.224.123.4.256.528.4a.696.696 0 01.192.472c0 .17-.07.32-.208.448-.139.128-.32.224-.544.288a2.61 2.61 0 01-.72.096c-.224 0-.448-.021-.672-.064a5.142 5.142 0 01-.688-.184c-.235-.08-.47-.168-.704-.264l-.544 1.232c.235.16.512.299.832.416.32.117.645.203.976.256.33.053.603.08.816.08z" fill="#132369"/><path d="M92.024 186.168c.364 0 .728-.084 1.092-.252.364-.168.663-.355.896-.56l.168.644h.938v-4.606a2.12 2.12 0 00-.357-1.197 2.498 2.498 0 00-.98-.854 3.072 3.072 0 00-1.407-.315c-.187 0-.43.026-.728.077a6.983 6.983 0 00-.882.21c-.29.089-.523.194-.7.315l.378 1.064c.252-.112.541-.217.868-.315.327-.098.69-.147 1.092-.147.532 0 .891.156 1.078.469.187.313.28.702.28 1.169v.07h-1.61c-.737 0-1.337.18-1.799.539-.462.36-.693.88-.693 1.561 0 .616.194 1.125.581 1.526.387.401.982.602 1.785.602zm-.028-1.064c-.252 0-.462-.054-.63-.161a1.075 1.075 0 01-.504-.903c0-.317.107-.597.322-.84.215-.243.527-.364.938-.364h1.652v1.372a3.067 3.067 0 01-.805.644 1.977 1.977 0 01-.973.252zm5.824-7.112a.834.834 0 00.602-.245.799.799 0 00.252-.595.799.799 0 00-.252-.595.834.834 0 00-.602-.245.813.813 0 00-.595.245.811.811 0 00-.245.595.836.836 0 00.84.84zm-1.204 10.892c.598-.187 1.027-.401 1.288-.644.262-.243.427-.546.497-.91s.105-.817.105-1.358v-6.762h-1.358v6.972c0 .317-.02.581-.063.791a.976.976 0 01-.28.525c-.144.14-.38.27-.707.392l.518.994zm5.765-2.702c.896 0 1.58-.18 2.05-.539.472-.36.708-.856.708-1.491 0-.373-.115-.7-.343-.98-.23-.28-.518-.52-.868-.721-.35-.2-.712-.366-1.085-.497a5.264 5.264 0 01-1.001-.441c-.257-.154-.39-.334-.4-.539 0-.243.115-.446.344-.609.228-.163.52-.245.875-.245.364 0 .688.047.973.14.284.093.557.2.819.322l.42-.91a2.493 2.493 0 00-.686-.35 5.949 5.949 0 00-.805-.217 3.756 3.756 0 00-.693-.077c-.794 0-1.421.175-1.883.525-.462.35-.693.833-.693 1.449 0 .364.112.677.336.938.224.261.506.48.847.658.34.177.688.327 1.043.448.298.093.56.198.784.315.224.117.4.245.532.385.13.14.196.299.196.476a.642.642 0 01-.182.448c-.122.13-.292.233-.511.308-.22.075-.479.112-.777.112a3.46 3.46 0 01-.616-.056 4.004 4.004 0 01-.61-.161c-.2-.07-.398-.152-.594-.245l-.42.938c.196.13.431.243.707.336a5.376 5.376 0 001.533.28zm5.566-.182v-4.788c.224-.196.455-.376.693-.539.238-.163.474-.294.707-.392.233-.098.453-.147.658-.147.27 0 .483.063.637.189.154.126.264.301.329.525.065.224.098.49.098.798V186h1.344v-4.48l-.006-.238-.013-.149.133-.112c.153-.123.308-.24.467-.348.238-.163.474-.294.707-.392.233-.098.453-.147.658-.147.27 0 .483.063.637.189.154.126.264.301.329.525.065.224.098.49.098.798V186h1.344v-4.48c0-.485-.075-.92-.224-1.302a1.927 1.927 0 00-.693-.903c-.313-.22-.716-.329-1.211-.329-.28 0-.57.049-.868.147a4.265 4.265 0 00-.868.399c-.21.126-.407.265-.59.417l-.176.152-.017-.042a1.89 1.89 0 00-.624-.744c-.313-.22-.716-.329-1.211-.329-.28 0-.57.049-.868.147a4.265 4.265 0 00-.868.399c-.28.168-.537.36-.77.574l-.238-.896h-.938V186h1.344zm11.3-8.008a.836.836 0 00.603-.245.799.799 0 00.252-.595.793.793 0 00-.252-.602.847.847 0 00-.602-.238.786.786 0 00-.588.245.817.817 0 00-.238.595.815.815 0 00.826.84h-.001zm.7 8.008v-6.79h-1.357V186h1.358-.001zm4.385.238c.14 0 .282-.016.427-.049a3.613 3.613 0 00.721-.245l-.35-1.022a3.413 3.413 0 01-.315.105 1.257 1.257 0 01-.343.049c-.336 0-.581-.11-.735-.329-.154-.22-.231-.502-.231-.847v-3.584h1.652l-.42-1.022h-1.232v-2.002l-1.344.308v1.694h-.966l.014 1.022h.952v3.794c0 .457.088.845.266 1.162.177.317.429.558.756.721.326.163.709.245 1.148.245zm3.956-.238v-4.788c.224-.196.457-.376.7-.539.243-.163.488-.294.735-.392.247-.098.483-.147.707-.147.439 0 .735.138.889.413.154.275.23.642.23 1.099V186h1.345v-4.48c0-.485-.075-.92-.224-1.302a1.897 1.897 0 00-.707-.903c-.322-.22-.74-.329-1.253-.329-.308 0-.618.049-.931.147-.313.098-.61.231-.89.399-.21.126-.406.265-.59.417l-.012.011v-3.844l-1.343.154V186h1.344zm9.166 0v-7.924h-.896l-2.534 1.232.616 1.064 1.47-.784V186h1.344zm7.638 0l-.252-1.036h-4.046l1.778-1.484c.56-.467.99-.884 1.288-1.253.3-.369.507-.721.623-1.057.117-.336.175-.677.175-1.022 0-.485-.12-.896-.364-1.232-.242-.336-.585-.59-1.029-.763-.443-.173-.963-.259-1.56-.259-.626 0-1.14.082-1.54.245a7.045 7.045 0 00-.995.483l.322 1.078c.168-.093.357-.196.567-.308.21-.112.45-.208.721-.287a3.21 3.21 0 01.91-.119c.523 0 .943.107 1.26.322.318.215.476.555.476 1.022 0 .243-.058.48-.175.714a3.079 3.079 0 01-.504.707c-.219.238-.487.497-.805.777l-2.954 2.59V186h6.104zm6.239.966v-1.89h1.316l.154-1.106h-1.47v-5.964h-.966l-4.648 5.964.182 1.106h4.088v1.89h1.344zm-1.344-2.996h-2.828l2.828-3.696v3.696zm8.264 3.458c.466 0 .938-.04 1.414-.119.476-.08.938-.236 1.386-.469l-.336-1.008a4.756 4.756 0 01-.742.28 5.175 5.175 0 01-.798.161 6.382 6.382 0 01-.77.049 3.73 3.73 0 01-1.73-.406c-.527-.27-.95-.66-1.266-1.169-.318-.509-.476-1.113-.476-1.813 0-.653.114-1.241.343-1.764.228-.523.543-.968.945-1.337.4-.369.854-.651 1.358-.847a4.287 4.287 0 011.568-.294c.653 0 1.225.133 1.715.399s.872.632 1.148 1.099c.275.467.413 1.008.413 1.624 0 .467-.056.87-.168 1.211-.112.34-.262.602-.448.784a.882.882 0 01-.63.273.719.719 0 01-.392-.14c-.14-.093-.196-.257-.168-.49l.322-2.856-.392-.49h-1.064a3.49 3.49 0 00-2.205.777 2.645 2.645 0 00-.714.896c-.173.35-.26.744-.26 1.183 0 .635.194 1.153.582 1.554.387.401.987.602 1.799.602.233 0 .462-.042.686-.126.224-.084.42-.177.588-.28.14.14.308.245.504.315s.4.105.616.105c.364 0 .697-.072 1-.217.304-.145.565-.36.785-.644.219-.285.39-.64.51-1.064a5.37 5.37 0 00.183-1.477c0-.588-.108-1.132-.322-1.631a3.862 3.862 0 00-.91-1.302 4.202 4.202 0 00-1.386-.861 4.869 4.869 0 00-1.764-.308c-.84 0-1.599.14-2.275.42a5.1 5.1 0 00-1.73 1.155 5.081 5.081 0 00-1.091 1.694 5.506 5.506 0 00-.378 2.037c0 .681.128 1.297.385 1.848a4.506 4.506 0 002.492 2.331c.546.21 1.103.315 1.673.315zm.42-3.346c-.28 0-.504-.056-.672-.168a.965.965 0 01-.364-.427 1.308 1.308 0 01-.112-.525c0-.42.095-.77.287-1.05.19-.28.443-.49.756-.63.312-.14.646-.21 1-.21h.225l-.294 2.31a.254.254 0 00-.007.105.25.25 0 00.02.077.84.84 0 01-.321.371.924.924 0 01-.518.147zm9.606 2.086c.317 0 .62-.033.91-.098.29-.065.564-.156.826-.273.261-.117.504-.24.728-.371l-.42-.98c-.374.177-.707.322-1.001.434a2.929 2.929 0 01-1.043.168c-.504 0-.92-.091-1.246-.273a1.752 1.752 0 01-.735-.763 3.053 3.053 0 01-.301-1.106h4.816v-.14c0-.663-.1-1.279-.301-1.848a2.959 2.959 0 00-.952-1.372c-.434-.345-1.006-.518-1.715-.518-.672 0-1.25.152-1.736.455a2.999 2.999 0 00-1.12 1.253c-.262.532-.392 1.153-.392 1.862 0 .71.137 1.332.413 1.869.275.537.688.954 1.239 1.253.55.299 1.227.448 2.03.448zm1.232-4.172h-3.486c.046-.373.142-.695.287-.966.144-.27.343-.48.595-.63.252-.15.55-.224.896-.224.345 0 .632.075.86.224.23.15.414.36.554.63.14.27.238.593.294.966zm4.11 4.004v-4.788c.224-.196.455-.376.693-.539.238-.163.474-.294.707-.392.233-.098.453-.147.658-.147.27 0 .483.063.637.189.154.126.264.301.33.525.064.224.097.49.097.798V186h1.344v-4.48l-.006-.238-.013-.149.133-.112c.153-.123.308-.24.467-.348.238-.163.474-.294.707-.392.233-.098.453-.147.658-.147.27 0 .483.063.637.189.154.126.264.301.33.525.064.224.097.49.097.798V186h1.344v-4.48c0-.485-.075-.92-.224-1.302a1.927 1.927 0 00-.693-.903c-.313-.22-.716-.329-1.21-.329-.28 0-.57.049-.869.147a4.265 4.265 0 00-.868.399c-.21.126-.407.265-.59.417l-.175.152-.018-.042a1.89 1.89 0 00-.624-.744c-.313-.22-.716-.329-1.21-.329-.28 0-.57.049-.869.147a4.265 4.265 0 00-.868.399c-.28.168-.537.36-.77.574l-.238-.896h-.938V186h1.344zm12.827.168c.364 0 .728-.084 1.092-.252.364-.168.662-.355.896-.56l.168.644h.938v-4.606c0-.439-.12-.838-.357-1.197a2.498 2.498 0 00-.98-.854 3.078 3.078 0 00-1.407-.315c-.187 0-.43.026-.728.077a6.983 6.983 0 00-.882.21c-.29.089-.523.194-.7.315l.378 1.064c.252-.112.541-.217.868-.315.326-.098.69-.147 1.092-.147.532 0 .891.156 1.078.469.186.313.28.702.28 1.169v.07h-1.61c-.738 0-1.337.18-1.8.539-.461.36-.692.88-.692 1.561 0 .616.193 1.125.58 1.526.388.401.983.602 1.786.602zm-.028-1.064c-.252 0-.462-.054-.63-.161a1.075 1.075 0 01-.504-.903c0-.317.107-.597.322-.84.214-.243.527-.364.938-.364h1.652v1.372a3.083 3.083 0 01-.805.644 1.98 1.98 0 01-.973.252zm5.6-7.112a.835.835 0 00.602-.245.799.799 0 00.252-.595.793.793 0 00-.252-.602.845.845 0 00-.602-.238.788.788 0 00-.588.245.82.82 0 00-.238.595c0 .243.08.443.238.602a.799.799 0 00.588.238zm.7 8.008v-6.79h-1.358V186h1.358zm3.362 0v-9.884l-1.344.154V186h1.344zm2.47 0a.765.765 0 00.581-.245.852.852 0 00.231-.609.814.814 0 00-.23-.588.777.777 0 00-.582-.238.845.845 0 00-.623.245.811.811 0 00-.245.595c0 .233.082.432.245.595a.846.846 0 00.623.245zm5.225.182c.196 0 .436-.026.72-.077.285-.051.572-.126.862-.224.29-.098.532-.212.728-.343l-.406-.966c-.29.14-.577.252-.861.336a3.733 3.733 0 01-1.043.126c-.43 0-.794-.105-1.092-.315a1.954 1.954 0 01-.68-.875 3.294 3.294 0 01-.23-1.26c.01-.448.095-.854.259-1.218.163-.364.396-.653.7-.868.303-.215.665-.322 1.085-.322.401 0 .746.047 1.036.14.29.093.578.2.868.322l.392-.952a2.79 2.79 0 00-.728-.357 6.06 6.06 0 00-.854-.224 4.052 4.052 0 00-.7-.077c-.7 0-1.307.152-1.82.455a3.053 3.053 0 00-1.183 1.253c-.276.532-.418 1.153-.427 1.862 0 .71.135 1.332.406 1.869.27.537.66.957 1.169 1.26.508.303 1.108.455 1.799.455zm6.688 0c.71 0 1.318-.152 1.827-.455a3.105 3.105 0 001.183-1.26c.28-.537.42-1.155.42-1.855 0-.71-.135-1.332-.406-1.869a3.024 3.024 0 00-1.162-1.26c-.504-.303-1.106-.455-1.806-.455s-1.304.152-1.813.455c-.509.303-.9.721-1.176 1.253-.275.532-.418 1.153-.427 1.862 0 .71.135 1.332.406 1.869.27.537.658.957 1.162 1.26.504.303 1.101.455 1.792.455zm.014-1.148c-.43 0-.793-.105-1.092-.315a1.954 1.954 0 01-.68-.875 3.294 3.294 0 01-.23-1.26c.01-.448.096-.854.259-1.218s.397-.653.7-.868c.303-.215.665-.322 1.085-.322.43 0 .793.105 1.092.315.299.21.525.5.679.868.154.369.23.791.23 1.267 0 .448-.08.854-.244 1.218a2.084 2.084 0 01-.7.868c-.303.215-.67.322-1.1.322h.001zm6.218.966v-4.788c.224-.196.455-.376.693-.539.238-.163.474-.294.707-.392.233-.098.453-.147.658-.147.27 0 .483.063.637.189.154.126.264.301.329.525.065.224.098.49.098.798V186h1.344v-4.48l-.006-.238-.013-.149.133-.112c.153-.123.308-.24.467-.348.238-.163.474-.294.707-.392.233-.098.453-.147.658-.147.27 0 .483.063.637.189.154.126.264.301.329.525.065.224.098.49.098.798V186h1.344v-4.48c0-.485-.075-.92-.224-1.302a1.927 1.927 0 00-.693-.903c-.313-.22-.716-.329-1.211-.329-.28 0-.57.049-.868.147a4.265 4.265 0 00-.868.399c-.21.126-.407.265-.59.417l-.175.152-.018-.042a1.89 1.89 0 00-.624-.744c-.313-.22-.716-.329-1.211-.329-.28 0-.57.049-.868.147a4.265 4.265 0 00-.868.399c-.28.168-.537.36-.77.574l-.238-.896h-.938V186h1.344zM92.024 211.168c.364 0 .728-.084 1.092-.252.364-.168.663-.355.896-.56l.168.644h.938v-4.606a2.12 2.12 0 00-.357-1.197 2.498 2.498 0 00-.98-.854 3.072 3.072 0 00-1.407-.315c-.187 0-.43.026-.728.077a6.983 6.983 0 00-.882.21c-.29.089-.523.194-.7.315l.378 1.064c.252-.112.541-.217.868-.315.327-.098.69-.147 1.092-.147.532 0 .891.156 1.078.469.187.313.28.702.28 1.169v.07h-1.61c-.737 0-1.337.18-1.799.539-.462.36-.693.88-.693 1.561 0 .616.194 1.125.581 1.526.387.401.982.602 1.785.602zm-.028-1.064c-.252 0-.462-.054-.63-.161a1.075 1.075 0 01-.504-.903c0-.317.107-.597.322-.84.215-.243.527-.364.938-.364h1.652v1.372a3.067 3.067 0 01-.805.644 1.977 1.977 0 01-.973.252zm5.824-7.112a.834.834 0 00.602-.245.799.799 0 00.252-.595.799.799 0 00-.252-.595.834.834 0 00-.602-.245.813.813 0 00-.595.245.811.811 0 00-.245.595.836.836 0 00.84.84zm-1.204 10.892c.598-.187 1.027-.401 1.288-.644.262-.243.427-.546.497-.91s.105-.817.105-1.358v-6.762h-1.358v6.972c0 .317-.02.581-.063.791a.976.976 0 01-.28.525c-.144.14-.38.27-.707.392l.518.994zm5.765-2.702c.896 0 1.58-.18 2.05-.539.472-.36.708-.856.708-1.491 0-.373-.115-.7-.343-.98-.23-.28-.518-.52-.868-.721-.35-.2-.712-.366-1.085-.497a5.264 5.264 0 01-1.001-.441c-.257-.154-.39-.334-.4-.539 0-.243.115-.446.344-.609.228-.163.52-.245.875-.245.364 0 .688.047.973.14.284.093.557.2.819.322l.42-.91a2.493 2.493 0 00-.686-.35 5.949 5.949 0 00-.805-.217 3.756 3.756 0 00-.693-.077c-.794 0-1.421.175-1.883.525-.462.35-.693.833-.693 1.449 0 .364.112.677.336.938.224.261.506.48.847.658.34.177.688.327 1.043.448.298.093.56.198.784.315.224.117.4.245.532.385.13.14.196.299.196.476a.642.642 0 01-.182.448c-.122.13-.292.233-.511.308-.22.075-.479.112-.777.112a3.46 3.46 0 01-.616-.056 4.004 4.004 0 01-.61-.161c-.2-.07-.398-.152-.594-.245l-.42.938c.196.13.431.243.707.336a5.376 5.376 0 001.533.28zm5.566-.182v-4.788c.224-.196.455-.376.693-.539.238-.163.474-.294.707-.392.233-.098.453-.147.658-.147.27 0 .483.063.637.189.154.126.264.301.329.525.065.224.098.49.098.798V211h1.344v-4.48l-.006-.238-.013-.149.133-.112c.153-.123.308-.24.467-.348.238-.163.474-.294.707-.392.233-.098.453-.147.658-.147.27 0 .483.063.637.189.154.126.264.301.329.525.065.224.098.49.098.798V211h1.344v-4.48c0-.485-.075-.92-.224-1.302a1.927 1.927 0 00-.693-.903c-.313-.22-.716-.329-1.211-.329-.28 0-.57.049-.868.147a4.265 4.265 0 00-.868.399c-.21.126-.407.265-.59.417l-.176.153-.017-.043a1.89 1.89 0 00-.624-.744c-.313-.22-.716-.329-1.211-.329-.28 0-.57.049-.868.147a4.265 4.265 0 00-.868.399c-.28.168-.537.36-.77.574l-.238-.896h-.938V211h1.344zm11.3-8.008a.836.836 0 00.603-.245.799.799 0 00.252-.595.793.793 0 00-.252-.602.847.847 0 00-.602-.238.786.786 0 00-.588.245.817.817 0 00-.238.595.815.815 0 00.826.84h-.001zm.7 8.008v-6.79h-1.357V211h1.358-.001zm4.385.238c.14 0 .282-.016.427-.049a3.613 3.613 0 00.721-.245l-.35-1.022a3.413 3.413 0 01-.315.105 1.257 1.257 0 01-.343.049c-.336 0-.581-.11-.735-.329-.154-.22-.231-.502-.231-.847v-3.584h1.652l-.42-1.022h-1.232v-2.002l-1.344.308v1.694h-.966l.014 1.022h.952v3.794c0 .457.088.845.266 1.162.177.317.429.558.756.721.326.163.709.245 1.148.245zm3.956-.238v-4.788c.224-.196.457-.376.7-.539.243-.163.488-.294.735-.392.247-.098.483-.147.707-.147.439 0 .735.138.889.413.154.275.23.642.23 1.099V211h1.345v-4.48c0-.485-.075-.92-.224-1.302a1.897 1.897 0 00-.707-.903c-.322-.22-.74-.329-1.253-.329-.308 0-.618.049-.931.147-.313.098-.61.231-.89.399-.21.126-.406.265-.59.417l-.012.011v-3.844l-1.343.154V211h1.344zm10.566 1.428c.467 0 .938-.04 1.414-.119.476-.08.938-.236 1.386-.469l-.336-1.008c-.233.112-.48.205-.742.28-.26.075-.527.128-.798.161-.27.033-.527.049-.77.049a3.73 3.73 0 01-1.729-.406c-.527-.27-.95-.66-1.267-1.169-.317-.509-.476-1.113-.476-1.813 0-.653.115-1.241.343-1.764.23-.523.544-.968.945-1.337a4.29 4.29 0 011.358-.847 4.29 4.29 0 011.568-.294c.654 0 1.225.133 1.715.399s.873.632 1.148 1.099c.276.467.413 1.008.413 1.624 0 .467-.056.87-.168 1.211-.112.34-.26.602-.448.784a.879.879 0 01-.63.273.724.724 0 01-.392-.14c-.14-.093-.196-.257-.168-.49l.322-2.856-.392-.49h-1.064a3.494 3.494 0 00-2.205.777c-.303.247-.54.546-.714.896-.172.35-.259.744-.259 1.183 0 .635.194 1.153.581 1.554.388.401.987.602 1.8.602.233 0 .461-.042.685-.126.224-.084.42-.177.588-.28.14.14.308.245.504.315s.402.105.616.105a2.29 2.29 0 001.001-.217c.304-.145.565-.36.784-.644.22-.285.39-.64.511-1.064.122-.425.182-.917.182-1.477 0-.588-.107-1.132-.322-1.631a3.848 3.848 0 00-.91-1.302 4.202 4.202 0 00-1.386-.861 4.869 4.869 0 00-1.764-.308c-.84 0-1.598.14-2.275.42a5.096 5.096 0 00-1.729 1.155 5.084 5.084 0 00-1.092 1.694 5.506 5.506 0 00-.378 2.037c0 .681.129 1.297.385 1.848a4.51 4.51 0 002.492 2.331c.546.21 1.104.315 1.673.315zm.42-3.346c-.28 0-.504-.056-.672-.168a.971.971 0 01-.364-.427 1.326 1.326 0 01-.112-.525c0-.42.096-.77.287-1.05.192-.28.444-.49.756-.63.313-.14.647-.21 1.001-.21h.224l-.294 2.31a.293.293 0 00.014.182.836.836 0 01-.322.371.922.922 0 01-.518.147zm9.215 2.1c.68 0 1.276-.147 1.785-.441a3.033 3.033 0 001.183-1.239c.28-.532.42-1.148.42-1.848 0-.728-.136-1.365-.406-1.911a2.972 2.972 0 00-1.162-1.267c-.504-.299-1.106-.448-1.806-.448a2.67 2.67 0 00-.714.126 3.27 3.27 0 00-.647.268l-.04.023v-3.329l-1.343.154V211h.756l.269-.404.123.082c.289.177.578.306.868.385.289.08.527.119.714.119zm.014-1.148c-.402 0-.754-.08-1.057-.238a2.034 2.034 0 01-.301-.193l-.043-.034v-3.892l.072-.06a2.21 2.21 0 01.286-.196c.284-.163.632-.245 1.043-.245.429 0 .793.107 1.092.322a2 2 0 01.679.882c.154.373.23.803.23 1.288 0 .448-.079.85-.237 1.204-.16.355-.385.637-.68.847-.293.21-.655.315-1.084.315zm8.092 1.134c.317 0 .62-.033.91-.098.29-.065.564-.156.826-.273.261-.117.504-.24.728-.371l-.42-.98c-.374.177-.707.322-1.001.434a2.929 2.929 0 01-1.043.168c-.504 0-.92-.091-1.246-.273a1.752 1.752 0 01-.735-.763 3.053 3.053 0 01-.301-1.106h4.816v-.14c0-.663-.1-1.279-.301-1.848a2.959 2.959 0 00-.952-1.372c-.434-.345-1.006-.518-1.715-.518-.672 0-1.25.152-1.736.455a2.999 2.999 0 00-1.12 1.253c-.262.532-.392 1.153-.392 1.862 0 .71.137 1.332.413 1.869.275.537.688.954 1.239 1.253.55.299 1.227.448 2.03.448zm1.232-4.172h-3.487c.046-.373.142-.695.287-.966.144-.27.343-.48.595-.63.252-.15.55-.224.896-.224.345 0 .632.075.86.224.23.15.414.36.554.63.14.27.238.593.294.966h.001zm6.028 4.172c.318 0 .62-.033.91-.098.29-.065.565-.156.826-.273.262-.117.504-.24.728-.371l-.42-.98a14.2 14.2 0 01-1 .434 2.934 2.934 0 01-1.044.168c-.504 0-.92-.091-1.246-.273a1.763 1.763 0 01-.735-.763 3.072 3.072 0 01-.3-1.106h4.815v-.14c0-.663-.1-1.279-.3-1.848a2.968 2.968 0 00-.953-1.372c-.434-.345-1.005-.518-1.715-.518-.672 0-1.25.152-1.736.455a3.012 3.012 0 00-1.12 1.253c-.261.532-.392 1.153-.392 1.862 0 .71.138 1.332.413 1.869.276.537.689.954 1.24 1.253.55.299 1.227.448 2.03.448h-.001zm1.232-4.172h-3.486a2.79 2.79 0 01.287-.966c.145-.27.343-.48.595-.63.252-.15.55-.224.896-.224s.633.075.861.224c.229.15.413.36.553.63.14.27.238.593.294.966zm4.11 4.004v-4.788c.225-.196.458-.376.7-.539a3.89 3.89 0 01.736-.392c.247-.098.483-.147.707-.147.438 0 .735.138.889.413.154.275.23.642.23 1.099V211h1.345v-4.48c0-.485-.075-.92-.224-1.302a1.897 1.897 0 00-.707-.903c-.322-.22-.74-.329-1.253-.329-.308 0-.619.049-.931.147-.313.098-.61.231-.89.399s-.536.36-.77.574l-.237-.896h-.938V211h1.344-.001zm9.503 0l2.576-6.79h-1.386l-1.792 4.9-1.876-5.152-1.288.476 2.52 6.566h1.246zm7.014.168c.318 0 .621-.033.91-.098.29-.065.565-.156.826-.273.262-.117.504-.24.728-.371l-.42-.98a14.2 14.2 0 01-1 .434 2.934 2.934 0 01-1.044.168c-.504 0-.919-.091-1.246-.273a1.763 1.763 0 01-.735-.763 3.072 3.072 0 01-.3-1.106h4.815v-.14c0-.663-.1-1.279-.3-1.848a2.968 2.968 0 00-.953-1.372c-.434-.345-1.005-.518-1.715-.518-.672 0-1.25.152-1.736.455a3.012 3.012 0 00-1.12 1.253c-.26.532-.392 1.153-.392 1.862 0 .71.138 1.332.413 1.869.276.537.689.954 1.24 1.253.55.299 1.227.448 2.03.448h-.001zm1.232-4.172h-3.486a2.79 2.79 0 01.287-.966c.145-.27.343-.48.595-.63a1.72 1.72 0 01.896-.224c.346 0 .633.075.861.224.23.15.413.36.553.63.14.27.238.593.294.966zm4.11 4.004v-4.494c.225-.215.475-.413.75-.595s.56-.331.854-.448c.294-.117.562-.175.805-.175l-.294-1.078c-.243 0-.506.06-.791.182a5.108 5.108 0 00-.82.441c-.26.173-.48.334-.657.483l-.434-1.106h-.756V211h1.344-.001zm4.243-8.008a.835.835 0 00.602-.245.799.799 0 00.252-.595.793.793 0 00-.252-.602.845.845 0 00-.602-.238.788.788 0 00-.588.245.82.82 0 00-.238.595c0 .243.08.443.238.602a.799.799 0 00.588.238zM196 211v-6.79h-1.358V211H196zm3.628 0v-5.684h1.694l-.434-1.022h-1.26v-.756c0-.345.073-.628.217-.847.145-.22.385-.329.721-.329.103 0 .217.016.343.049.126.033.236.068.33.105l.335-1.036a1.173 1.173 0 00-.308-.154 2.823 2.823 0 00-.406-.112 2.137 2.137 0 00-.42-.042c-.448 0-.833.093-1.155.28a1.896 1.896 0 00-.742.777c-.172.331-.259.726-.259 1.183v.882h-1.036l.014 1.022h1.022V211h1.344zm3.647-8.008a.835.835 0 00.602-.245.799.799 0 00.252-.595.793.793 0 00-.252-.602.845.845 0 00-.602-.238.786.786 0 00-.588.245.82.82 0 00-.238.595.815.815 0 00.826.84zm.7 8.008v-6.79h-1.358V211h1.358zm5.14.168c.317 0 .62-.033.91-.098.29-.065.564-.156.826-.273.261-.117.504-.24.728-.371l-.42-.98c-.374.177-.707.322-1.001.434a2.929 2.929 0 01-1.043.168c-.504 0-.92-.091-1.246-.273a1.752 1.752 0 01-.735-.763 3.053 3.053 0 01-.301-1.106h4.816v-.14c0-.663-.1-1.279-.301-1.848a2.959 2.959 0 00-.952-1.372c-.434-.345-1.006-.518-1.715-.518-.672 0-1.25.152-1.736.455a2.999 2.999 0 00-1.12 1.253c-.262.532-.392 1.153-.392 1.862 0 .71.137 1.332.413 1.869.275.537.688.954 1.239 1.253.55.299 1.227.448 2.03.448zm1.232-4.172h-3.486c.046-.373.142-.695.287-.966.144-.27.343-.48.595-.63.252-.15.55-.224.896-.224.345 0 .632.075.86.224.23.15.414.36.554.63.14.27.238.593.294.966zm5.72 4.186c.196 0 .437-.042.721-.126.285-.084.572-.217.861-.399l.168-.115.062-.049.26.507h.77v-9.87l-1.358.14v3.195l-.1-.057a3.33 3.33 0 00-.656-.261 2.79 2.79 0 00-.714-.119c-.681 0-1.276.147-1.785.441a3.045 3.045 0 00-1.183 1.232c-.28.527-.42 1.146-.42 1.855 0 .728.136 1.363.406 1.904.27.541.66.964 1.17 1.267.508.303 1.108.455 1.798.455zm0-1.148c-.43 0-.793-.107-1.092-.322a2 2 0 01-.679-.882c-.154-.373-.23-.803-.23-1.288 0-.448.079-.85.237-1.204.159-.355.388-.637.686-.847.299-.21.658-.315 1.078-.315.402 0 .754.08 1.057.238.101.053.202.117.301.193l.126.104v3.741l-.012.011a2.685 2.685 0 01-.429.319c-.284.168-.632.252-1.043.252zm5.308.966a.765.765 0 00.581-.245.852.852 0 00.231-.609.814.814 0 00-.23-.588.777.777 0 00-.582-.238.845.845 0 00-.623.245.811.811 0 00-.245.595c0 .233.082.432.245.595a.846.846 0 00.623.245zm5.225.182c.196 0 .436-.026.72-.077.286-.051.573-.126.862-.224.29-.098.532-.212.728-.343l-.406-.966c-.29.14-.576.252-.861.336a3.728 3.728 0 01-1.043.126c-.43 0-.793-.105-1.092-.315a1.954 1.954 0 01-.68-.875 3.294 3.294 0 01-.23-1.26c.01-.448.096-.854.259-1.218s.397-.653.7-.868c.303-.215.665-.322 1.085-.322.401 0 .747.047 1.036.14.29.093.579.2.868.322l.392-.952a2.79 2.79 0 00-.728-.357 6.06 6.06 0 00-.854-.224 4.042 4.042 0 00-.7-.077c-.7 0-1.307.152-1.82.455a3.059 3.059 0 00-1.183 1.253c-.275.532-.418 1.153-.427 1.862 0 .71.135 1.332.406 1.869.27.537.66.957 1.169 1.26.509.303 1.108.455 1.799.455zm6.688 0c.71 0 1.318-.152 1.827-.455a3.105 3.105 0 001.183-1.26c.28-.537.42-1.155.42-1.855 0-.71-.135-1.332-.406-1.869a3.024 3.024 0 00-1.162-1.26c-.504-.303-1.106-.455-1.806-.455s-1.304.152-1.813.455c-.509.303-.9.721-1.176 1.253-.275.532-.418 1.153-.427 1.862 0 .71.135 1.332.406 1.869.27.537.658.957 1.162 1.26.504.303 1.101.455 1.792.455zm.014-1.148c-.43 0-.793-.105-1.092-.315a1.945 1.945 0 01-.679-.875 3.275 3.275 0 01-.231-1.26c.01-.448.096-.854.259-1.218s.397-.653.7-.868c.303-.215.665-.322 1.085-.322.43 0 .793.105 1.092.315.299.21.525.5.679.868.154.369.231.791.231 1.267 0 .448-.082.854-.245 1.218a2.084 2.084 0 01-.7.868c-.303.215-.67.322-1.099.322zm6.218.966v-4.788c.224-.196.455-.376.693-.539.238-.163.474-.294.707-.392.233-.098.453-.147.658-.147.27 0 .483.063.637.189.154.126.264.301.33.525.064.224.097.49.097.798V211h1.344v-4.48l-.006-.238-.013-.149.133-.112c.153-.123.308-.24.467-.348.238-.163.474-.294.707-.392.233-.098.453-.147.658-.147.27 0 .483.063.637.189.154.126.264.301.33.525.064.224.097.49.097.798V211h1.344v-4.48c0-.485-.075-.92-.224-1.302a1.927 1.927 0 00-.693-.903c-.313-.22-.716-.329-1.21-.329-.28 0-.57.049-.869.147a4.265 4.265 0 00-.868.399c-.21.126-.407.265-.59.417l-.175.153-.018-.043a1.89 1.89 0 00-.624-.744c-.313-.22-.716-.329-1.21-.329-.28 0-.57.049-.869.147a4.265 4.265 0 00-.868.399c-.28.168-.537.36-.77.574l-.238-.896h-.938V211h1.344zM92.024 236.168c.364 0 .728-.084 1.092-.252.364-.168.663-.355.896-.56l.168.644h.938v-4.606a2.12 2.12 0 00-.357-1.197 2.498 2.498 0 00-.98-.854 3.072 3.072 0 00-1.407-.315c-.187 0-.43.026-.728.077a6.983 6.983 0 00-.882.21c-.29.089-.523.194-.7.315l.378 1.064c.252-.112.541-.217.868-.315.327-.098.69-.147 1.092-.147.532 0 .891.156 1.078.469.187.313.28.702.28 1.169v.07h-1.61c-.737 0-1.337.18-1.799.539-.462.36-.693.88-.693 1.561 0 .616.194 1.125.581 1.526.387.401.982.602 1.785.602zm-.028-1.064c-.252 0-.462-.054-.63-.161a1.075 1.075 0 01-.504-.903c0-.317.107-.597.322-.84.215-.243.527-.364.938-.364h1.652v1.372a3.067 3.067 0 01-.805.644 1.977 1.977 0 01-.973.252zm7.896 1.078c.196 0 .437-.042.721-.126.285-.084.572-.217.861-.399l.168-.115.062-.049.26.507h.77v-9.87l-1.358.14v3.195l-.1-.057a3.394 3.394 0 00-.656-.261 2.79 2.79 0 00-.714-.119c-.681 0-1.276.147-1.785.441a3.045 3.045 0 00-1.183 1.232c-.28.527-.42 1.146-.42 1.855 0 .728.136 1.363.406 1.904.27.541.66.964 1.17 1.267.508.303 1.108.455 1.798.455zm0-1.148c-.43 0-.793-.107-1.092-.322a2 2 0 01-.679-.882c-.154-.373-.23-.803-.23-1.288 0-.448.079-.85.237-1.204.159-.355.388-.637.686-.847.299-.21.658-.315 1.078-.315.402 0 .754.08 1.057.238.101.053.202.117.301.193l.126.104v3.742l-.012.01a2.641 2.641 0 01-.429.319c-.284.168-.632.252-1.043.252zm6.204.966v-4.494c.224-.215.474-.413.75-.595.275-.182.56-.331.853-.448a2.2 2.2 0 01.805-.175l-.294-1.078c-.242 0-.506.06-.79.182a5.108 5.108 0 00-.82.441c-.26.173-.48.334-.658.483l-.434-1.106h-.756V236h1.344zm4.243-8.008a.835.835 0 00.602-.245.799.799 0 00.252-.595.793.793 0 00-.252-.602.845.845 0 00-.602-.238.786.786 0 00-.588.245.82.82 0 00-.238.595.815.815 0 00.826.84zm.7 8.008v-6.79h-1.359V236h1.359zm4.062.168c.364 0 .728-.084 1.092-.252.364-.168.662-.355.896-.56l.168.644h.938v-4.606c0-.439-.12-.838-.357-1.197a2.498 2.498 0 00-.98-.854 3.078 3.078 0 00-1.407-.315c-.187 0-.43.026-.728.077a6.983 6.983 0 00-.882.21c-.29.089-.523.194-.7.315l.378 1.064c.252-.112.541-.217.868-.315.326-.098.69-.147 1.092-.147.532 0 .891.156 1.078.469.186.313.28.702.28 1.169v.07h-1.61c-.738 0-1.337.18-1.8.539-.461.36-.692.88-.692 1.561 0 .616.193 1.125.58 1.526.388.401.983.602 1.786.602zm-.028-1.064c-.252 0-.462-.054-.63-.161a1.075 1.075 0 01-.504-.903c0-.317.107-.597.322-.84.214-.243.527-.364.938-.364h1.652v1.372a3.083 3.083 0 01-.805.644 1.98 1.98 0 01-.973.252zm6.286.896v-4.788c.224-.196.457-.376.7-.539.243-.163.488-.294.735-.392.247-.098.483-.147.707-.147.439 0 .735.138.89.413.153.275.23.642.23 1.099V236h1.344v-4.48c0-.485-.075-.92-.224-1.302a1.897 1.897 0 00-.707-.903c-.322-.22-.74-.329-1.253-.329a3.09 3.09 0 00-.93.147c-.314.098-.61.231-.89.399s-.537.36-.77.574l-.238-.896h-.938V236h1.344zm7.319-8.008a.835.835 0 00.602-.245.799.799 0 00.252-.595.799.799 0 00-.252-.595.837.837 0 00-.602-.245.81.81 0 00-.595.245.807.807 0 00-.245.595c0 .15.037.29.112.42.074.13.177.233.308.308.13.075.27.112.42.112zm-1.204 10.892c.597-.187 1.026-.401 1.288-.644.26-.243.427-.546.497-.91s.105-.817.105-1.358v-6.762h-1.358v6.972c0 .317-.021.581-.063.791a.983.983 0 01-.28.525c-.145.14-.38.27-.707.392l.518.994zm6.072-2.716c.364 0 .728-.084 1.092-.252.364-.168.663-.355.896-.56l.168.644h.938v-4.606c0-.439-.12-.838-.357-1.197a2.498 2.498 0 00-.98-.854 3.072 3.072 0 00-1.407-.315c-.187 0-.43.026-.728.077a6.983 6.983 0 00-.882.21c-.29.089-.523.194-.7.315l.378 1.064c.252-.112.541-.217.868-.315.327-.098.69-.147 1.092-.147.532 0 .891.156 1.078.469.187.313.28.702.28 1.169v.07h-1.61c-.737 0-1.337.18-1.8.539-.461.36-.692.88-.692 1.561 0 .616.194 1.125.58 1.526.388.401.983.602 1.786.602zm-.028-1.064c-.252 0-.462-.054-.63-.161a1.075 1.075 0 01-.504-.903c0-.317.107-.597.322-.84.215-.243.527-.364.938-.364h1.652v1.372a3.067 3.067 0 01-.805.644 1.977 1.977 0 01-.973.252zm6.286.896v-4.788c.224-.196.455-.376.693-.539.238-.163.474-.294.707-.392.233-.098.453-.147.658-.147.27 0 .483.063.637.189.154.126.264.301.33.525.064.224.097.49.097.798V236h1.344v-4.48l-.006-.238-.013-.149.133-.112c.153-.123.308-.24.467-.348.238-.163.474-.294.707-.392.233-.098.453-.147.658-.147.27 0 .483.063.637.189.154.126.264.301.33.525.064.224.097.49.097.798V236h1.344v-4.48c0-.485-.075-.92-.224-1.302a1.927 1.927 0 00-.693-.903c-.313-.22-.716-.329-1.21-.329-.28 0-.57.049-.869.147a4.265 4.265 0 00-.868.399c-.21.126-.407.265-.59.417l-.175.152-.018-.042a1.89 1.89 0 00-.624-.744c-.313-.22-.716-.329-1.21-.329-.28 0-.57.049-.869.147a4.265 4.265 0 00-.868.399c-.28.168-.537.36-.77.574l-.238-.896h-.938V236h1.344zm13.905.168c.317 0 .62-.033.91-.098.29-.065.564-.156.826-.273.261-.117.504-.24.728-.371l-.42-.98c-.374.177-.707.322-1.001.434a2.929 2.929 0 01-1.043.168c-.504 0-.92-.091-1.246-.273a1.752 1.752 0 01-.735-.763 3.053 3.053 0 01-.301-1.106h4.816v-.14c0-.663-.1-1.279-.301-1.848a2.959 2.959 0 00-.952-1.372c-.434-.345-1.006-.518-1.715-.518-.672 0-1.25.152-1.736.455a2.999 2.999 0 00-1.12 1.253c-.262.532-.392 1.153-.392 1.862 0 .71.137 1.332.413 1.869.275.537.688.954 1.239 1.253.55.299 1.227.448 2.03.448zm1.232-4.172h-3.486c.046-.373.142-.695.287-.966.144-.27.343-.48.595-.63.252-.15.55-.224.896-.224.345 0 .632.075.86.224.23.15.414.36.554.63.14.27.238.593.294.966zm4.642 4.186c.896 0 1.58-.18 2.051-.539.471-.36.707-.856.707-1.491 0-.373-.114-.7-.343-.98a3.097 3.097 0 00-.868-.721c-.35-.2-.712-.366-1.085-.497a5.28 5.28 0 01-1-.441c-.258-.154-.39-.334-.4-.539 0-.243.114-.446.343-.609.229-.163.52-.245.875-.245.364 0 .688.047.973.14.285.093.558.2.82.322l.42-.91a2.5 2.5 0 00-.687-.35 5.87 5.87 0 00-.805-.217 3.756 3.756 0 00-.693-.077c-.793 0-1.42.175-1.883.525-.462.35-.693.833-.693 1.449 0 .364.112.677.336.938.224.261.506.48.847.658.34.177.688.327 1.043.448.299.093.56.198.784.315.224.117.401.245.532.385.13.14.196.299.196.476 0 .168-.06.317-.182.448a1.23 1.23 0 01-.51.308 2.42 2.42 0 01-.778.112c-.205 0-.41-.019-.616-.056a4.023 4.023 0 01-.609-.161 6.06 6.06 0 01-.595-.245l-.42.938c.196.13.432.243.707.336a5.376 5.376 0 001.533.28zm8.353 1.246c.466 0 .938-.04 1.414-.119.476-.08.938-.236 1.386-.469l-.336-1.008a4.756 4.756 0 01-.742.28 5.175 5.175 0 01-.798.161 6.382 6.382 0 01-.77.049 3.73 3.73 0 01-1.73-.406c-.527-.27-.95-.66-1.266-1.169-.318-.509-.476-1.113-.476-1.813 0-.653.114-1.241.343-1.764.228-.523.543-.968.945-1.337.4-.369.854-.651 1.358-.847a4.287 4.287 0 011.568-.294c.653 0 1.225.133 1.715.399s.872.632 1.148 1.099c.275.467.413 1.008.413 1.624 0 .467-.056.87-.168 1.211-.112.34-.262.602-.448.784a.882.882 0 01-.63.273.719.719 0 01-.392-.14c-.14-.093-.196-.257-.168-.49l.322-2.856-.392-.49h-1.064a3.49 3.49 0 00-2.205.777 2.645 2.645 0 00-.714.896c-.173.35-.26.744-.26 1.183 0 .635.194 1.153.582 1.554.387.401.987.602 1.799.602.233 0 .462-.042.686-.126.224-.084.42-.177.588-.28.14.14.308.245.504.315s.4.105.616.105c.364 0 .697-.072 1-.217.304-.145.565-.36.785-.644.219-.285.39-.64.51-1.064a5.37 5.37 0 00.183-1.477c0-.588-.108-1.132-.322-1.631a3.862 3.862 0 00-.91-1.302 4.202 4.202 0 00-1.386-.861 4.869 4.869 0 00-1.764-.308c-.84 0-1.599.14-2.275.42a5.1 5.1 0 00-1.73 1.155 5.081 5.081 0 00-1.091 1.694 5.506 5.506 0 00-.378 2.037c0 .681.128 1.297.385 1.848a4.506 4.506 0 002.492 2.331c.546.21 1.103.315 1.673.315zm.42-3.346c-.28 0-.504-.056-.672-.168a.965.965 0 01-.364-.427 1.308 1.308 0 01-.112-.525c0-.42.095-.77.287-1.05.19-.28.443-.49.756-.63.312-.14.646-.21 1-.21h.225l-.294 2.31a.254.254 0 00-.007.105.25.25 0 00.02.077.84.84 0 01-.321.371.924.924 0 01-.518.147zm9.606 2.086c.317 0 .62-.033.91-.098.289-.065.564-.156.826-.273.261-.117.504-.24.728-.371l-.42-.98c-.374.177-.707.322-1.001.434a2.929 2.929 0 01-1.043.168c-.504 0-.92-.091-1.246-.273a1.752 1.752 0 01-.735-.763 3.053 3.053 0 01-.301-1.106h4.816v-.14c0-.663-.1-1.279-.301-1.848-.201-.57-.518-1.027-.952-1.372-.434-.345-1.006-.518-1.715-.518-.672 0-1.251.152-1.736.455a2.999 2.999 0 00-1.12 1.253c-.262.532-.392 1.153-.392 1.862 0 .71.137 1.332.413 1.869.275.537.688.954 1.239 1.253.55.299 1.227.448 2.03.448zm1.232-4.172h-3.486c.046-.373.142-.695.287-.966.144-.27.343-.48.595-.63.252-.15.55-.224.896-.224.345 0 .632.075.86.224.23.15.414.36.554.63.14.27.238.593.294.966zm4.11 4.004v-4.788c.224-.196.455-.376.693-.539.238-.163.474-.294.707-.392.233-.098.453-.147.658-.147.27 0 .483.063.637.189.154.126.264.301.33.525.064.224.097.49.097.798V236h1.344v-4.48l-.006-.238-.013-.149.133-.112c.153-.123.308-.24.467-.348.238-.163.474-.294.707-.392.233-.098.453-.147.658-.147.27 0 .483.063.637.189.154.126.264.301.33.525.064.224.097.49.097.798V236h1.344v-4.48c0-.485-.075-.92-.224-1.302a1.927 1.927 0 00-.693-.903c-.313-.22-.716-.329-1.21-.329-.28 0-.57.049-.869.147a4.265 4.265 0 00-.868.399c-.21.126-.407.265-.59.417l-.175.152-.018-.042a1.89 1.89 0 00-.624-.744c-.313-.22-.716-.329-1.21-.329-.28 0-.57.049-.869.147a4.265 4.265 0 00-.868.399c-.28.168-.537.36-.77.574l-.238-.896h-.938V236h1.344zm12.827.168c.364 0 .728-.084 1.092-.252.364-.168.662-.355.896-.56l.168.644h.938v-4.606c0-.439-.12-.838-.357-1.197a2.498 2.498 0 00-.98-.854 3.078 3.078 0 00-1.407-.315c-.187 0-.43.026-.728.077a6.983 6.983 0 00-.882.21c-.29.089-.523.194-.7.315l.378 1.064c.252-.112.541-.217.868-.315.326-.098.69-.147 1.092-.147.532 0 .891.156 1.078.469.186.313.28.702.28 1.169v.07h-1.61c-.738 0-1.337.18-1.8.539-.461.36-.692.88-.692 1.561 0 .616.193 1.125.58 1.526.388.401.983.602 1.786.602zm-.028-1.064c-.252 0-.462-.054-.63-.161a1.075 1.075 0 01-.504-.903c0-.317.107-.597.322-.84.214-.243.527-.364.938-.364h1.652v1.372a3.083 3.083 0 01-.805.644 1.98 1.98 0 01-.973.252zm5.6-7.112a.835.835 0 00.602-.245.799.799 0 00.252-.595.793.793 0 00-.252-.602.845.845 0 00-.602-.238.788.788 0 00-.588.245.82.82 0 00-.238.595c0 .243.08.443.238.602a.799.799 0 00.588.238zm.7 8.008v-6.79h-1.358V236h1.358zm3.362 0v-9.884l-1.344.154V236h1.344zm2.47 0a.765.765 0 00.581-.245.852.852 0 00.231-.609.814.814 0 00-.23-.588.777.777 0 00-.582-.238.845.845 0 00-.623.245.811.811 0 00-.245.595c0 .233.082.432.245.595a.846.846 0 00.623.245zm5.225.182c.196 0 .436-.026.72-.077.285-.051.572-.126.862-.224.29-.098.532-.212.728-.343l-.406-.966c-.29.14-.577.252-.861.336a3.733 3.733 0 01-1.043.126c-.43 0-.794-.105-1.092-.315a1.954 1.954 0 01-.68-.875 3.294 3.294 0 01-.23-1.26c.01-.448.095-.854.259-1.218.163-.364.396-.653.7-.868.303-.215.665-.322 1.085-.322.401 0 .746.047 1.036.14.29.093.578.2.868.322l.392-.952a2.79 2.79 0 00-.728-.357 6.06 6.06 0 00-.854-.224 4.052 4.052 0 00-.7-.077c-.7 0-1.307.152-1.82.455a3.053 3.053 0 00-1.183 1.253c-.276.532-.418 1.153-.427 1.862 0 .71.135 1.332.406 1.869.27.537.66.957 1.169 1.26.508.303 1.108.455 1.799.455zm6.688 0c.71 0 1.318-.152 1.827-.455a3.105 3.105 0 001.183-1.26c.28-.537.42-1.155.42-1.855 0-.71-.135-1.332-.406-1.869a3.024 3.024 0 00-1.162-1.26c-.504-.303-1.106-.455-1.806-.455s-1.304.152-1.813.455c-.509.303-.9.721-1.176 1.253-.275.532-.418 1.153-.427 1.862 0 .71.135 1.332.406 1.869.27.537.658.957 1.162 1.26.504.303 1.101.455 1.792.455zm.014-1.148c-.43 0-.793-.105-1.092-.315a1.954 1.954 0 01-.68-.875 3.294 3.294 0 01-.23-1.26c.01-.448.096-.854.259-1.218s.397-.653.7-.868c.303-.215.665-.322 1.085-.322.43 0 .793.105 1.092.315.299.21.525.5.679.868.154.369.23.791.23 1.267 0 .448-.08.854-.244 1.218a2.084 2.084 0 01-.7.868c-.303.215-.67.322-1.1.322h.001zm6.218.966v-4.788c.224-.196.455-.376.693-.539.238-.163.474-.294.707-.392.233-.098.453-.147.658-.147.27 0 .483.063.637.189.154.126.264.301.329.525.065.224.098.49.098.798V236h1.344v-4.48l-.006-.238-.013-.149.133-.112c.153-.123.308-.24.467-.348.238-.163.474-.294.707-.392.233-.098.453-.147.658-.147.27 0 .483.063.637.189.154.126.264.301.329.525.065.224.098.49.098.798V236h1.344v-4.48c0-.485-.075-.92-.224-1.302a1.927 1.927 0 00-.693-.903c-.313-.22-.716-.329-1.211-.329-.28 0-.57.049-.868.147a4.265 4.265 0 00-.868.399c-.21.126-.407.265-.59.417l-.175.152-.018-.042a1.89 1.89 0 00-.624-.744c-.313-.22-.716-.329-1.211-.329-.28 0-.57.049-.868.147a4.265 4.265 0 00-.868.399c-.28.168-.537.36-.77.574l-.238-.896h-.938V236h1.344z" fill="#5D6775"/><path fill-rule="evenodd" clip-rule="evenodd" d="M265.209 197.927h24a8.5 8.5 0 010 17h-24a8.5 8.5 0 010-17z" fill="#D7D9DD"/><path d="M265.319 209.927l1.21-4.61 1.25 4.61h1.47l1.99-6.8h-1.56l-1.14 4.82-1.22-4.82h-1.56l-1.15 4.82-1.25-4.92-1.55.18 2.04 6.72h1.47zm9.773.14c.68-.007 1.277-.162 1.79-.465a3.198 3.198 0 001.205-1.26c.29-.537.435-1.155.435-1.855 0-.653-.135-1.245-.405-1.775a3.12 3.12 0 00-1.17-1.265c-.51-.313-1.128-.47-1.855-.47-.673.007-1.267.162-1.78.465a3.231 3.231 0 00-1.21 1.26c-.293.537-.44 1.155-.44 1.855 0 .647.137 1.237.41 1.77.273.533.667.957 1.18 1.27.513.313 1.127.47 1.84.47zm-.01-1.31c-.373 0-.695-.095-.965-.285a1.806 1.806 0 01-.62-.785 2.865 2.865 0 01-.215-1.14c0-.46.083-.857.25-1.19.167-.333.39-.593.67-.78.28-.187.58-.28.9-.28.38 0 .703.095.97.285.267.19.472.448.615.775.143.327.215.703.215 1.13 0 .507-.082.928-.245 1.265a1.746 1.746 0 01-.655.755c-.273.167-.58.25-.92.25zm6.14 1.17v-2.36h.61c.1 0 .2.002.3.005.1.003.204.002.31-.005l1.26 2.36h1.76l-1.58-2.8c.3-.173.547-.412.74-.715.194-.303.29-.662.29-1.075 0-.513-.125-.932-.375-1.255a2.222 2.222 0 00-.995-.72 3.857 3.857 0 00-1.38-.235h-2.5v6.8h1.56zm.92-3.61h-.92v-1.93h.89c.254 0 .465.033.635.1a.8.8 0 01.395.32c.094.147.14.333.14.56 0 .207-.05.38-.15.52a.943.943 0 01-.405.32 1.47 1.47 0 01-.585.11zm5.806 3.61v-2.09l.6-.59 1.89 2.68h1.97l-2.76-3.77 2.33-2.3-1.19-.88-2.84 2.75v-2.6h-1.57v6.8h1.57z" fill="#5D6775"/><path fill-rule="evenodd" clip-rule="evenodd" d="M246.209 173.927h45a8.5 8.5 0 010 17h-45a8.5 8.5 0 010-17z" fill="#D7D9DD"/><path d="M245.089 185.927v-2.17h.86c.36 0 .71-.047 1.05-.14.34-.093.643-.233.91-.42.267-.187.478-.427.635-.72.157-.293.235-.637.235-1.03 0-.533-.125-.972-.375-1.315a2.204 2.204 0 00-.995-.76 3.73 3.73 0 00-1.38-.245h-2.5v6.8h1.56zm.92-3.42h-.92v-2.12h.89c.247 0 .457.04.63.12a.87.87 0 01.4.365c.093.163.14.368.14.615a1.085 1.085 0 01-.155.545.919.919 0 01-.4.355c-.17.08-.365.12-.585.12zm8.696 3.42l-.2-1.22h-3.12v-1.59h2.35l-.19-1.23h-2.16v-1.53h2.92l-.19-1.23h-4.29v6.8h4.88zm2.576 0v-2.36h.61c.1 0 .2.002.3.005.1.003.203.002.31-.005l1.26 2.36h1.76l-1.58-2.8c.3-.173.547-.412.74-.715.193-.303.29-.662.29-1.075 0-.513-.125-.932-.375-1.255a2.228 2.228 0 00-.995-.72 3.857 3.857 0 00-1.38-.235h-2.5v6.8h1.56zm.92-3.61h-.92v-1.93h.89c.253 0 .465.033.635.1a.8.8 0 01.395.32c.093.147.14.333.14.56 0 .207-.05.38-.15.52a.943.943 0 01-.405.32 1.47 1.47 0 01-.585.11zm5.936 3.74c.553 0 1.025-.085 1.415-.255.39-.17.69-.4.9-.69.21-.29.315-.622.315-.995 0-.287-.062-.538-.185-.755a2.38 2.38 0 00-.485-.595c-.2-.18-.422-.343-.665-.49-.243-.147-.485-.29-.725-.43a6.204 6.204 0 00-.56-.33 1.92 1.92 0 01-.43-.29.483.483 0 01.075-.775c.157-.103.358-.155.605-.155.173 0 .335.015.485.045.15.03.302.07.455.12.153.05.323.115.51.195l.49-1.14a3.915 3.915 0 00-.92-.38c-.353-.1-.7-.15-1.04-.15-.5 0-.933.082-1.3.245-.367.163-.647.387-.84.67a1.735 1.735 0 00-.3.965c0 .273.062.522.185.745.123.223.287.425.49.605s.425.345.665.495l.7.435c.187.113.37.222.55.325.18.103.328.205.445.305.117.1.175.207.175.32 0 .12-.038.228-.115.325a.73.73 0 01-.35.225c-.157.053-.352.08-.585.08-.173 0-.363-.023-.57-.07a4.555 4.555 0 01-1.06-.38l-.45 1.22c.12.073.268.143.445.21a5.932 5.932 0 001.145.305c.193.03.37.045.53.045zm6.6.01c.68-.007 1.276-.162 1.79-.465a3.198 3.198 0 001.205-1.26c.29-.537.435-1.155.435-1.855 0-.653-.135-1.245-.405-1.775a3.12 3.12 0 00-1.17-1.265c-.51-.313-1.129-.47-1.855-.47-.674.007-1.267.162-1.78.465a3.224 3.224 0 00-1.21 1.26c-.294.537-.44 1.155-.44 1.855 0 .647.136 1.237.41 1.77.273.533.666.957 1.18 1.27.513.313 1.126.47 1.84.47zm-.01-1.31c-.374 0-.695-.095-.965-.285a1.806 1.806 0 01-.62-.785 2.848 2.848 0 01-.215-1.14c0-.46.083-.857.25-1.19.166-.333.39-.593.67-.78.28-.187.58-.28.9-.28.38 0 .703.095.97.285.266.19.471.448.615.775.143.327.215.703.215 1.13 0 .507-.082.928-.245 1.265-.164.337-.382.588-.655.755a1.73 1.73 0 01-.92.25zm6.14 1.17v-4.05l.39.54 2.49 3.51h1.5v-6.8h-1.56l.01 4.11-.47-.66-2.42-3.45h-1.5v6.8h1.56zm10.42.1l1.54-.18-2.59-6.72h-1.46l-2.6 6.8h1.56l.53-1.47h2.47l.55 1.57zm-1.01-2.81h-1.56l.76-2.11.8 2.11zm8.164 2.71l-.18-1.22h-2.95v-5.58h-1.56v6.8h4.69z" fill="#5D6775"/><path fill-rule="evenodd" clip-rule="evenodd" d="M317.209 173.927h53a8.5 8.5 0 010 17h-53a8.5 8.5 0 010-17z" fill="#FCCF33"/><path d="M317.209 185.927c.367 0 .71-.04 1.03-.12.32-.08.602-.2.845-.36.243-.16.433-.368.57-.625.137-.257.205-.558.205-.905 0-.373-.092-.697-.275-.97a2.215 2.215 0 00-.705-.67c.167-.147.322-.322.465-.525.143-.203.215-.435.215-.695 0-.467-.112-.84-.335-1.12a1.918 1.918 0 00-.905-.615 3.94 3.94 0 00-1.28-.195h-2.51v6.8h2.68zm-.43-4.13h-.68v-1.41h.81c.213 0 .395.023.545.07.15.047.267.123.35.23.083.107.125.25.125.43a.524.524 0 01-.155.385.912.912 0 01-.415.225c-.173.047-.367.07-.58.07zm.4 2.88h-1.08v-1.63h1.12c.313 0 .562.073.745.22.183.147.275.357.275.63a.675.675 0 01-.135.425.824.824 0 01-.37.265c-.157.06-.342.09-.555.09zm8.602 1.25l-.2-1.22h-3.12v-1.59h2.35l-.19-1.23h-2.16v-1.53h2.92l-.19-1.23h-4.29v6.8h4.88zm2.716.13c.553 0 1.025-.085 1.415-.255.39-.17.69-.4.9-.69.21-.29.315-.622.315-.995 0-.287-.062-.538-.185-.755a2.38 2.38 0 00-.485-.595c-.2-.18-.422-.343-.665-.49-.243-.147-.485-.29-.725-.43a6.204 6.204 0 00-.56-.33 1.92 1.92 0 01-.43-.29.483.483 0 01.075-.775c.157-.103.358-.155.605-.155.173 0 .335.015.485.045.15.03.302.07.455.12.153.05.323.115.51.195l.49-1.14a3.915 3.915 0 00-.92-.38c-.353-.1-.7-.15-1.04-.15-.5 0-.933.082-1.3.245-.367.163-.647.387-.84.67a1.735 1.735 0 00-.3.965c0 .273.062.522.185.745.123.223.287.425.49.605s.425.345.665.495l.7.435c.187.113.37.222.55.325.18.103.328.205.445.305.117.1.175.207.175.32 0 .12-.038.228-.115.325a.73.73 0 01-.35.225c-.157.053-.352.08-.585.08-.173 0-.363-.023-.57-.07a4.555 4.555 0 01-1.06-.38l-.45 1.22c.12.073.268.143.445.21a5.932 5.932 0 001.145.305c.193.03.37.045.53.045zm6.55-.13v-5.57h2.25l-.19-1.23h-5.66v1.23h2.04v5.57h1.56zm6.958 0v-3.71l1.36 1.7.62-.08 1.1-1.51v3.6h1.56v-6.8h-1l-1.99 2.86-2.17-2.86h-1.04v6.8h1.56zm10.676.1l1.54-.18-2.59-6.72h-1.46l-2.6 6.8h1.56l.53-1.47h2.47l.55 1.57zm-1.01-2.81h-1.56l.76-2.11.8 2.11zm6.354 2.71v-5.57h2.25l-.19-1.23h-5.66v1.23h2.04v5.57h1.56zm6.064.13c.206 0 .428-.018.665-.055.236-.037.47-.09.7-.16.23-.07.431-.152.605-.245l-.59-1.17c-.194.1-.407.182-.64.245a2.875 2.875 0 01-.75.095c-.254 0-.487-.053-.7-.16a1.615 1.615 0 01-.555-.46c-.157-.2-.28-.435-.37-.705a2.816 2.816 0 01-.135-.895c0-.467.081-.868.245-1.205.163-.337.38-.597.65-.78.27-.183.558-.275.865-.275a3.218 3.218 0 01.895.12c.15.04.331.097.545.17l.47-1.08a2.673 2.673 0 00-.615-.28 4.901 4.901 0 00-.68-.165 3.737 3.737 0 00-.605-.055c-.5 0-.957.087-1.37.26a3.148 3.148 0 00-1.075.735 3.25 3.25 0 00-.7 1.13 4.052 4.052 0 00-.245 1.435c0 .5.075.963.225 1.39.15.427.37.798.66 1.115.29.317.645.562 1.065.735.42.173.9.26 1.44.26zm4.47-.13v-2.77h2.53v2.77h1.56v-6.8h-1.56v2.8h-2.53v-2.86l-1.56.06v6.8h1.56z" fill="#132369"/><path opacity=".08" d="M73 171c0 13.807-11.193 25-25 25s-25-11.193-25-25 11.193-25 25-25 25 11.193 25 25z" fill="#1B61DB"/><path fill-rule="evenodd" clip-rule="evenodd" d="M59.298 182H37.702c-.94 0-1.702-.772-1.702-1.724v-16.552c0-.953.762-1.724 1.702-1.724h21.596c.94 0 1.702.771 1.702 1.724v16.552c0 .952-.762 1.724-1.702 1.724z" fill="#1B61DB" stroke="#E8EFFB" stroke-width="1.2" stroke-linecap="round"/><path d="M36 165.058L48.549 173 61 165" stroke="#E8EFFB" stroke-width="1.2" stroke-linecap="round"/><g filter="url(#filter2_d)"><path d="M449 217H60a6 6 0 00-6 6v143a6 6 0 006 6h389a6 6 0 006-6V223a6 6 0 00-6-6z" fill="#000"/></g><path d="M449 217H60a6 6 0 00-6 6v143a6 6 0 006 6h389a6 6 0 006-6V223a6 6 0 00-6-6z" fill="#fff" stroke="#F2F6FD"/><path d="M139.184 259v-3.904h1.328c.565 0 1.11-.07 1.632-.208a4.36 4.36 0 001.4-.64c.41-.288.733-.656.968-1.104.235-.448.352-.976.352-1.584 0-.821-.187-1.485-.56-1.992-.373-.507-.88-.875-1.52-1.104-.64-.23-1.35-.344-2.128-.344h-3.248V259h1.776zm1.408-5.392h-1.408v-3.984h1.424c.501 0 .925.064 1.272.192s.619.339.816.632c.197.293.296.696.296 1.208-.032.448-.15.819-.352 1.112-.203.293-.48.507-.832.64s-.757.2-1.216.2zm7.78 5.392v-5.424c.223-.17.458-.341.703-.512.246-.17.504-.31.776-.416.272-.107.536-.16.792-.16.427 0 .736.144.928.432.192.288.288.688.288 1.2V259h1.792v-4.992c0-.576-.082-1.09-.248-1.544a2.25 2.25 0 00-.8-1.08c-.368-.267-.872-.4-1.512-.4-.32 0-.656.048-1.008.144a5.128 5.128 0 00-1.032.408c-.168.088-.33.185-.49.29l-.19.133v-4.255l-1.776.176V259h1.777zm10.778.208c.821-.01 1.53-.184 2.128-.52a3.55 3.55 0 001.4-1.432c.336-.619.504-1.333.504-2.144 0-.821-.166-1.536-.496-2.144a3.585 3.585 0 00-1.384-1.424c-.592-.341-1.299-.512-2.12-.512-.81 0-1.518.17-2.12.512a3.553 3.553 0 00-1.4 1.424c-.33.608-.496 1.328-.496 2.16 0 .81.16 1.523.48 2.136a3.46 3.46 0 001.376 1.432c.597.341 1.306.512 2.128.512zm.016-1.552c-.438 0-.822-.11-1.152-.328a2.06 2.06 0 01-.752-.904 3.21 3.21 0 01-.256-1.312c.01-.48.104-.912.28-1.296a2.17 2.17 0 01.76-.912c.33-.224.71-.336 1.136-.336.448 0 .832.11 1.152.328.32.219.565.52.736.904.17.384.256.821.256 1.312 0 .48-.088.912-.264 1.296a2.21 2.21 0 01-.744.912c-.32.224-.704.336-1.152.336zM166.53 259v-5.424c.224-.17.459-.341.704-.512.245-.17.504-.31.776-.416.272-.107.536-.16.792-.16.427 0 .733.144.92.432.187.288.28.688.28 1.2V259h1.808v-4.992c0-.576-.083-1.09-.248-1.544a2.233 2.233 0 00-.808-1.08c-.373-.267-.88-.4-1.52-.4-.31 0-.64.048-.992.144a5.128 5.128 0 00-1.032.408 5.598 5.598 0 00-.952.632l-.32-.928h-1.2V259h1.792zm11.122.192c.406 0 .779-.037 1.12-.112a4.03 4.03 0 00.944-.328c.288-.144.555-.296.8-.456l-.544-1.312c-.384.203-.75.368-1.096.496a3.426 3.426 0 01-1.192.192c-.554 0-1.005-.088-1.352-.264a1.83 1.83 0 01-.784-.728 2.95 2.95 0 01-.344-1.088h5.376v-.384c0-.757-.12-1.45-.36-2.08a3.34 3.34 0 00-1.128-1.52c-.512-.384-1.168-.576-1.968-.576-.79 0-1.47.17-2.04.512a3.38 3.38 0 00-1.312 1.432c-.304.613-.456 1.33-.456 2.152 0 .81.16 1.523.48 2.136.32.613.806 1.088 1.456 1.424.65.336 1.45.504 2.4.504zm1.2-4.816h-3.616c.054-.384.158-.71.312-.976.155-.267.363-.472.624-.616.262-.144.558-.216.888-.216.342 0 .632.072.872.216.24.144.438.35.592.616.155.267.264.592.328.976zM188.25 259v-7.712l.528.8L193.61 259h1.728v-10.88h-1.824v7.664l-.72-1.088-4.624-6.576h-1.696V259h1.776zm12.127.256c.31 0 .637-.05.984-.152a5.79 5.79 0 001.976-1.032l.304.928h1.232v-7.76h-1.808v5.424c-.213.17-.445.339-.696.504a4.37 4.37 0 01-.776.408c-.267.107-.533.16-.8.16-.416 0-.72-.144-.912-.432-.192-.288-.288-.688-.288-1.2v-4.864H197.8v4.992c0 .576.08 1.093.24 1.552.16.459.427.819.8 1.08.373.261.885.392 1.536.392h.001zm8.338-.256v-5.424c.224-.17.453-.341.688-.512.235-.17.475-.31.72-.416.245-.107.49-.16.736-.16.277 0 .493.067.648.2.155.133.267.32.336.56.07.24.104.53.104.872V259h1.808v-5.152l-.007-.282-.003-.042.272-.204.354-.256c.24-.17.483-.31.728-.416a1.79 1.79 0 01.72-.16c.277 0 .493.067.648.2.155.133.267.32.336.56.07.24.104.53.104.872V259h1.808v-5.152c0-.576-.083-1.077-.248-1.504a2.055 2.055 0 00-.792-1c-.363-.24-.837-.36-1.424-.36a3.34 3.34 0 00-.928.144 5.222 5.222 0 00-1.7.863l-.201.162-.08-.152a2.02 2.02 0 00-.627-.657c-.363-.24-.837-.36-1.424-.36-.277 0-.584.048-.92.144a4.92 4.92 0 00-.992.408 5.94 5.94 0 00-.936.632l-.32-.928h-1.2V259h1.792zm15.401.208c.821 0 1.523-.17 2.104-.512a3.504 3.504 0 001.352-1.432c.32-.613.48-1.325.48-2.136 0-.832-.157-1.555-.472-2.168a3.404 3.404 0 00-1.344-1.424c-.581-.336-1.272-.504-2.072-.504-.288 0-.595.053-.92.16-.163.053-.323.12-.482.198l-.134.072v-3.758l-1.776.176V259h.944l.362-.509.062.045c.315.213.645.379.992.496.347.117.648.176.904.176zm0-1.552a2.49 2.49 0 01-1.112-.248 2.272 2.272 0 01-.29-.172l-.086-.064v-4.082l.046-.037c.112-.081.222-.153.33-.213a2.28 2.28 0 011.128-.272c.448 0 .827.11 1.136.328.31.219.541.52.696.904.155.384.232.832.232 1.344 0 .47-.08.896-.24 1.28-.16.384-.395.685-.704.904-.31.219-.688.328-1.136.328zm9.356 1.536c.405 0 .778-.037 1.12-.112.341-.075.656-.184.944-.328.288-.144.554-.296.8-.456l-.544-1.312c-.384.203-.75.368-1.096.496a3.43 3.43 0 01-1.192.192c-.555 0-1.006-.088-1.352-.264a1.824 1.824 0 01-.784-.728 2.931 2.931 0 01-.344-1.088h5.376v-.384c0-.757-.12-1.45-.36-2.08a3.34 3.34 0 00-1.128-1.52c-.512-.384-1.168-.576-1.968-.576-.79 0-1.47.17-2.04.512a3.375 3.375 0 00-1.312 1.432c-.304.613-.456 1.33-.456 2.152 0 .81.16 1.523.48 2.136.32.613.805 1.088 1.456 1.424.65.336 1.45.504 2.4.504zm1.2-4.816h-3.616c.053-.384.157-.71.312-.976.154-.267.362-.472.624-.616.261-.144.557-.216.888-.216.341 0 .632.072.872.216.24.144.437.35.592.616.154.267.264.592.328.976zm5.087 4.624v-4.944a6.156 6.156 0 011.88-1.184c.326-.128.616-.192.872-.192l-.384-1.44c-.277 0-.578.07-.904.208a5.954 5.954 0 00-.936.504 8.178 8.178 0 00-.768.568l-.592-1.28h-.96V259h1.792zm6.231.208c1.035 0 1.824-.21 2.368-.632.544-.421.816-1 .816-1.736 0-.448-.13-.835-.392-1.16a3.675 3.675 0 00-.992-.848c-.4-.24-.813-.43-1.24-.568a7.037 7.037 0 01-.984-.416c-.282-.15-.424-.325-.424-.528 0-.235.11-.432.328-.592.22-.16.494-.24.824-.24.395 0 .752.05 1.072.152.32.101.646.232.976.392l.56-1.232a3.216 3.216 0 00-.832-.424 6.577 6.577 0 00-.944-.256 4.353 4.353 0 00-.8-.088c-.928 0-1.658.205-2.192.616-.533.41-.8.979-.8 1.704 0 .416.131.776.392 1.08.262.304.59.557.984.76.395.203.795.379 1.2.528.32.085.592.19.816.312.224.123.4.256.528.4a.696.696 0 01.192.472c0 .17-.069.32-.208.448-.138.128-.32.224-.544.288a2.61 2.61 0 01-.72.096c-.224 0-.448-.021-.672-.064a5.142 5.142 0 01-.688-.184c-.234-.08-.469-.168-.704-.264l-.544 1.232c.235.16.512.299.832.416.32.117.646.203.976.256.331.053.603.08.816.08z" fill="#132369"/><path d="M138.422 288.532l1.064-.392a4.03 4.03 0 01-.567-.903 10.037 10.037 0 01-.49-1.232 9.871 9.871 0 01-.336-1.323 6.617 6.617 0 01-.119-1.176c0-.336.04-.719.119-1.148.08-.43.191-.863.336-1.302.145-.439.308-.847.49-1.225.182-.378.371-.693.567-.945l-1.064-.378a8.682 8.682 0 00-.959 1.624 8.758 8.758 0 00-.574 1.708 7.769 7.769 0 00-.189 1.68c0 .56.065 1.132.196 1.715.13.583.324 1.155.581 1.715a8.54 8.54 0 00.945 1.582zm5.248-.532v-7.924h-.896l-2.534 1.232.616 1.064 1.47-.784V288h1.344zm7.638 0l-.252-1.036h-4.046l1.778-1.484c.56-.467.99-.884 1.288-1.253.299-.369.507-.721.623-1.057.117-.336.175-.677.175-1.022 0-.485-.121-.896-.364-1.232-.242-.336-.585-.59-1.029-.763-.443-.173-.963-.259-1.56-.259-.626 0-1.14.082-1.54.245a7.045 7.045 0 00-.995.483l.322 1.078c.168-.093.357-.196.567-.308.21-.112.45-.208.721-.287a3.21 3.21 0 01.91-.119c.523 0 .943.107 1.26.322.318.215.476.555.476 1.022 0 .243-.058.48-.175.714a3.079 3.079 0 01-.504.707c-.219.238-.487.497-.805.777l-2.954 2.59V288h6.104zm3.34 1.064c.663 0 1.235-.117 1.716-.35.48-.233.854-.548 1.12-.945a2.37 2.37 0 00.399-1.351c0-.392-.073-.742-.217-1.05a2.264 2.264 0 00-.567-.763 1.684 1.684 0 00-.756-.385 2.09 2.09 0 00.672-.427 2.34 2.34 0 00.504-.686c.13-.266.196-.553.196-.861 0-.41-.105-.796-.315-1.155-.21-.36-.53-.649-.96-.868-.429-.22-.96-.329-1.595-.329-.56 0-1.074.086-1.54.259-.467.173-.901.39-1.302.651l.644.896c.233-.159.536-.317.91-.476a3.145 3.145 0 011.246-.238c.336 0 .625.06.868.182.242.121.429.278.56.469.13.191.196.404.196.637 0 .439-.196.791-.588 1.057-.392.266-.924.399-1.596.399h-.7l.196 1.022h.42c.858 0 1.479.154 1.862.462.382.308.574.714.574 1.218 0 .317-.094.593-.28.826a1.79 1.79 0 01-.714.532c-.29.121-.598.182-.924.182-.458 0-.852-.054-1.183-.161a5 5 0 01-1.015-.469l-.686.924a8.88 8.88 0 001.316.546 4.838 4.838 0 001.54.252h-.001zm5.415-.532a9.776 9.776 0 00.945-1.631c.257-.565.45-1.134.58-1.708a7.455 7.455 0 00.197-1.673 7.81 7.81 0 00-.196-1.715 8.754 8.754 0 00-.581-1.722 8.023 8.023 0 00-.945-1.575l-1.064.392c.196.224.385.525.567.903.182.378.343.789.483 1.232.14.443.25.882.329 1.316.08.434.119.824.119 1.169 0 .336-.04.719-.12 1.148-.078.43-.188.863-.328 1.302a9.75 9.75 0 01-.483 1.232c-.182.383-.371.7-.567.952l1.064.378zm11.796.434v-1.89h1.316l.154-1.106h-1.47v-5.964h-.966l-4.648 5.964.182 1.106h4.088v1.89h1.344zm-1.344-2.996h-2.828l2.828-3.696v3.696zm6.542 3.094c.71 0 1.314-.133 1.813-.399.5-.266.88-.625 1.141-1.078.261-.453.392-.959.392-1.519 0-.523-.11-1.001-.329-1.435a2.51 2.51 0 00-.994-1.043c-.443-.261-1.01-.392-1.7-.392a2.577 2.577 0 00-1.317.364l.112-2.38h3.556l.154-1.106h-4.9l-.224 4.872h1.246c.103-.13.28-.275.532-.434.252-.159.555-.238.91-.238.485 0 .884.156 1.197.469.313.313.47.754.47 1.323 0 .579-.188 1.036-.56 1.372-.374.336-.855.504-1.443.504-.467 0-.866-.051-1.197-.154a4.773 4.773 0 01-1.015-.462l-.672.938c.252.13.532.259.84.385.308.126.632.226.973.301.34.075.68.112 1.015.112zm7.806-.882c.588 0 1.11-.121 1.568-.364a2.697 2.697 0 001.071-1.008c.257-.43.385-.92.385-1.47 0-.55-.128-1.031-.385-1.442a2.65 2.65 0 00-1.078-.966c-.462-.233-.996-.35-1.603-.35-.41 0-.78.065-1.106.196-.245.098-.476.22-.692.365l-.14.101.032-.106a3.554 3.554 0 01.78-1.305c.293-.313.622-.579.986-.798.364-.22.742-.399 1.134-.539.392-.14.77-.243 1.134-.308l-.252-1.064a6.543 6.543 0 00-1.407.35c-.49.177-.961.415-1.414.714a6.253 6.253 0 00-1.232 1.071c-.369.415-.66.889-.875 1.421-.215.532-.322 1.13-.322 1.792 0 .812.15 1.493.448 2.044.299.55.707.966 1.225 1.246.518.28 1.1.42 1.743.42zm-.056-1.12c-.373 0-.716-.1-1.029-.301-.313-.2-.565-.504-.756-.91-.164-.348-.258-.766-.281-1.255l-.001-.016.07-.061c.08-.069.163-.136.247-.201.252-.196.523-.355.812-.476a2.34 2.34 0 01.91-.182c.383 0 .712.072.987.217.275.145.49.348.644.609.154.261.231.57.231.924 0 .317-.077.6-.23.847-.155.247-.37.443-.645.588a2.028 2.028 0 01-.959.217zm7.818-2.352l-.14-1.064h-3.555l.126 1.064h3.57-.001zm3.667 4.256l2.982-8.316-.42-.574h-5.474l.168 1.106h4.2l-2.716 7.406 1.26.378zm7.074-.784c.68 0 1.257-.121 1.729-.364.47-.243.83-.565 1.078-.966.247-.401.37-.845.37-1.33 0-.355-.081-.69-.244-1.008a2.626 2.626 0 00-.644-.812 2.112 2.112 0 00-.847-.448c.242-.112.469-.261.679-.448a2.21 2.21 0 00.504-.651c.126-.247.189-.511.189-.791 0-.42-.11-.81-.33-1.169a2.37 2.37 0 00-.958-.868c-.42-.22-.93-.329-1.526-.329-.598 0-1.106.11-1.526.329-.42.22-.74.509-.96.868-.219.36-.328.749-.328 1.169 0 .43.128.81.385 1.141.256.331.58.581.973.749-.3.075-.581.231-.847.469a2.871 2.871 0 00-.644.833c-.164.317-.245.64-.245.966 0 .485.123.929.37 1.33.248.401.61.723 1.086.966.476.243 1.054.364 1.736.364zm0-5.39c-.504-.075-.892-.243-1.162-.504-.271-.261-.406-.565-.406-.91 0-.224.06-.434.182-.63a1.31 1.31 0 01.532-.476c.233-.121.508-.182.826-.182.504 0 .893.128 1.169.385.275.257.413.558.413.903 0 .224-.059.434-.175.63a1.425 1.425 0 01-.525.497 2.531 2.531 0 01-.854.287zm0 4.298c-.346 0-.665-.063-.96-.189a1.734 1.734 0 01-.706-.532 1.294 1.294 0 01-.266-.819c0-.43.16-.81.483-1.141.322-.331.805-.544 1.449-.637.634.093 1.113.306 1.435.637.322.331.483.712.483 1.141 0 .317-.09.59-.266.819a1.744 1.744 0 01-.707.532c-.294.126-.61.189-.945.189zm5.414 1.862a6.543 6.543 0 001.407-.35c.49-.177.961-.415 1.414-.714a6.253 6.253 0 001.232-1.071 4.83 4.83 0 00.875-1.428 4.762 4.762 0 00.322-1.785c0-.821-.15-1.505-.448-2.051a3.03 3.03 0 00-1.218-1.239c-.513-.28-1.097-.42-1.75-.42-.588 0-1.108.121-1.56.364-.454.243-.81.579-1.072 1.008-.261.43-.392.92-.392 1.47 0 .541.128 1.02.385 1.435.257.415.616.74 1.078.973.462.233.996.35 1.603.35.42 0 .791-.065 1.113-.196a3.59 3.59 0 00.681-.365l.144-.106-.032.112a3.59 3.59 0 01-.779 1.304 4.607 4.607 0 01-.987.798c-.364.22-.744.397-1.14.532-.398.135-.773.24-1.128.315l.252 1.064zm1.918-4.536c-.373 0-.7-.072-.98-.217a1.574 1.574 0 01-.65-.609 1.778 1.778 0 01-.232-.924c0-.317.077-.6.231-.847.154-.247.371-.443.651-.588.28-.145.597-.217.952-.217.373 0 .716.1 1.03.301.312.2.564.502.755.903.164.344.258.767.281 1.269v.017l-.06.053c-.08.069-.163.136-.249.201-.257.196-.53.355-.819.476a2.34 2.34 0 01-.91.182zm8.14 3.766c.728 0 1.377-.182 1.946-.546a3.692 3.692 0 001.33-1.498c.318-.635.476-1.358.476-2.17 0-.793-.16-1.496-.483-2.107a3.674 3.674 0 00-1.33-1.442c-.564-.35-1.21-.525-1.939-.525-.728 0-1.374.177-1.939.532-.564.355-1.01.84-1.337 1.456-.326.616-.49 1.32-.49 2.114 0 .803.164 1.521.49 2.156a3.773 3.773 0 001.337 1.491c.565.36 1.211.539 1.94.539h-.001zm0-1.148c-.476 0-.9-.133-1.274-.399a2.713 2.713 0 01-.882-1.092c-.214-.462-.322-.992-.322-1.589 0-.57.108-1.071.322-1.505a2.62 2.62 0 01.882-1.029 2.226 2.226 0 011.274-.378c.486 0 .915.128 1.288.385.374.257.665.609.875 1.057.21.448.315.961.315 1.54 0 .579-.105 1.097-.315 1.554a2.56 2.56 0 01-.875 1.071 2.214 2.214 0 01-1.288.385zm-80.416 26.498l1.064-.392a4.03 4.03 0 01-.567-.903 10.037 10.037 0 01-.49-1.232 9.871 9.871 0 01-.336-1.323 6.617 6.617 0 01-.119-1.176c0-.336.04-.719.119-1.148.08-.43.191-.863.336-1.302.145-.439.308-.847.49-1.225.182-.378.371-.693.567-.945l-1.064-.378a8.682 8.682 0 00-.959 1.624 8.758 8.758 0 00-.574 1.708 7.769 7.769 0 00-.189 1.68c0 .56.065 1.132.196 1.715.13.583.324 1.155.581 1.715a8.54 8.54 0 00.945 1.582zm5.248-.532v-7.924h-.896l-2.534 1.232.616 1.064 1.47-.784V313h1.344zm7.638 0l-.252-1.036h-4.046l1.778-1.484c.56-.467.99-.884 1.288-1.253.299-.369.507-.721.623-1.057.117-.336.175-.677.175-1.022 0-.485-.121-.896-.364-1.232-.242-.336-.585-.59-1.029-.763-.443-.173-.963-.259-1.56-.259-.626 0-1.14.082-1.54.245a7.045 7.045 0 00-.995.483l.322 1.078c.168-.093.357-.196.567-.308.21-.112.45-.208.721-.287a3.21 3.21 0 01.91-.119c.523 0 .943.107 1.26.322.318.215.476.555.476 1.022 0 .243-.058.48-.175.714a3.079 3.079 0 01-.504.707c-.219.238-.487.497-.805.777l-2.954 2.59V313h6.104zm4.055 0v-7.924h-.896l-2.534 1.232.616 1.064 1.47-.784V313h1.344zm2.668.532a9.776 9.776 0 00.945-1.631c.256-.565.45-1.134.58-1.708a7.513 7.513 0 00.197-1.673 7.87 7.87 0 00-.196-1.715 8.887 8.887 0 00-.581-1.722 8.023 8.023 0 00-.945-1.575l-1.064.392c.196.224.385.525.567.903.182.378.343.789.483 1.232.14.443.25.882.329 1.316.079.434.119.824.119 1.169 0 .336-.04.719-.12 1.148a10.56 10.56 0 01-.811 2.534c-.182.383-.371.7-.567.952l1.064.378zm9.29.532c.71 0 1.313-.133 1.813-.399s.88-.625 1.14-1.078c.262-.453.393-.959.393-1.519 0-.523-.11-1.001-.33-1.435a2.508 2.508 0 00-.993-1.043c-.444-.261-1.01-.392-1.701-.392a2.577 2.577 0 00-1.316.364l.112-2.38h3.556l.154-1.106h-4.9l-.224 4.872h1.246c.102-.13.28-.275.532-.434.252-.159.555-.238.91-.238.485 0 .884.156 1.197.469.312.313.469.754.469 1.323 0 .579-.187 1.036-.56 1.372-.374.336-.854.504-1.442.504-.467 0-.866-.051-1.197-.154a4.75 4.75 0 01-1.015-.462l-.672.938c.252.13.532.259.84.385.308.126.632.226.973.301.34.075.679.112 1.015.112zm7.806-.882c.588 0 1.11-.121 1.568-.364a2.687 2.687 0 001.07-1.008c.257-.43.386-.92.386-1.47 0-.55-.129-1.031-.385-1.442a2.65 2.65 0 00-1.078-.966c-.462-.233-.997-.35-1.603-.35-.41 0-.78.065-1.106.196-.245.098-.476.22-.692.365l-.14.101.032-.106a3.572 3.572 0 01.779-1.305c.294-.313.623-.579.987-.798.364-.22.742-.399 1.134-.539.392-.14.77-.243 1.134-.308l-.252-1.064a6.543 6.543 0 00-1.407.35 6.66 6.66 0 00-1.414.714 6.225 6.225 0 00-1.232 1.071c-.369.415-.66.889-.875 1.421-.215.532-.322 1.13-.322 1.792 0 .812.15 1.493.448 2.044.298.55.707.966 1.225 1.246.518.28 1.099.42 1.743.42zm-.056-1.12c-.374 0-.717-.1-1.03-.301-.312-.2-.564-.504-.755-.91-.164-.348-.258-.766-.281-1.255l-.001-.016.07-.061c.08-.069.163-.136.247-.201.252-.196.522-.355.812-.476.29-.121.592-.182.91-.182.382 0 .711.072.987.217.275.145.49.348.644.609.154.261.23.57.23.924 0 .317-.076.6-.23.847a1.644 1.644 0 01-.644.588 2.032 2.032 0 01-.96.217h.001zm7.314 1.12c.681 0 1.258-.121 1.73-.364.47-.243.83-.565 1.077-.966s.371-.845.371-1.33c0-.355-.082-.69-.245-1.008a2.611 2.611 0 00-.644-.812 2.105 2.105 0 00-.847-.448 2.75 2.75 0 00.68-.448c.21-.187.377-.404.503-.651s.19-.511.19-.791c0-.42-.11-.81-.33-1.169a2.379 2.379 0 00-.959-.868c-.42-.22-.929-.329-1.526-.329s-1.106.11-1.526.329c-.42.22-.74.509-.959.868-.22.36-.329.749-.329 1.169 0 .43.128.81.385 1.141.257.331.581.581.973.749-.299.075-.58.231-.847.469-.266.238-.48.516-.644.833-.163.317-.245.64-.245.966 0 .485.124.929.371 1.33s.61.723 1.085.966c.476.243 1.055.364 1.736.364zm0-5.39c-.504-.075-.891-.243-1.162-.504-.27-.261-.406-.565-.406-.91 0-.224.06-.434.182-.63.121-.196.299-.355.532-.476.233-.121.509-.182.826-.182.504 0 .894.128 1.17.385.274.257.412.558.412.903 0 .224-.058.434-.175.63a1.425 1.425 0 01-.525.497 2.523 2.523 0 01-.854.287zm0 4.298a2.41 2.41 0 01-.959-.189 1.737 1.737 0 01-.707-.532 1.3 1.3 0 01-.266-.819c0-.43.161-.81.483-1.141.322-.331.805-.544 1.45-.637.634.093 1.112.306 1.434.637.322.331.483.712.483 1.141a1.3 1.3 0 01-.266.819 1.737 1.737 0 01-.707.532 2.373 2.373 0 01-.945.189zm7.92-2.38l-.14-1.064h-3.555l.126 1.064h3.57-.001zm3.47 4.354c.663 0 1.235-.117 1.716-.35.48-.233.854-.548 1.12-.945a2.37 2.37 0 00.399-1.351c0-.392-.073-.742-.217-1.05a2.264 2.264 0 00-.567-.763 1.684 1.684 0 00-.756-.385 2.09 2.09 0 00.672-.427 2.34 2.34 0 00.504-.686c.13-.266.196-.553.196-.861 0-.41-.105-.796-.315-1.155-.21-.36-.53-.649-.96-.868-.429-.22-.96-.329-1.595-.329-.56 0-1.074.086-1.54.259-.467.173-.9.39-1.302.651l.644.896c.233-.159.536-.317.91-.476a3.145 3.145 0 011.246-.238c.336 0 .625.06.868.182.242.121.43.278.56.469.13.191.196.404.196.637 0 .439-.196.791-.588 1.057-.392.266-.924.399-1.596.399h-.7l.196 1.022h.42c.858 0 1.48.154 1.862.462.382.308.574.714.574 1.218 0 .317-.094.593-.28.826a1.79 1.79 0 01-.714.532c-.29.121-.598.182-.924.182-.458 0-.852-.054-1.183-.161a5 5 0 01-1.015-.469l-.686.924a8.88 8.88 0 001.316.546 4.838 4.838 0 001.54.252h-.001zm7.767-.882c.588 0 1.11-.121 1.568-.364a2.697 2.697 0 001.071-1.008c.257-.43.385-.92.385-1.47 0-.55-.128-1.031-.385-1.442a2.65 2.65 0 00-1.078-.966c-.462-.233-.996-.35-1.603-.35-.41 0-.78.065-1.106.196-.245.098-.476.22-.692.365l-.14.101.032-.106a3.59 3.59 0 01.779-1.305c.294-.313.623-.579.987-.798.364-.22.742-.399 1.134-.539.392-.14.77-.243 1.134-.308l-.252-1.064a6.543 6.543 0 00-1.407.35c-.49.177-.961.415-1.414.714a6.253 6.253 0 00-1.232 1.071c-.369.415-.66.889-.875 1.421-.215.532-.322 1.13-.322 1.792 0 .812.15 1.493.448 2.044.299.55.707.966 1.225 1.246.518.28 1.099.42 1.743.42zm-.056-1.12c-.373 0-.716-.1-1.029-.301-.313-.2-.565-.504-.756-.91-.164-.348-.258-.766-.281-1.255l-.001-.016.07-.061c.08-.069.163-.136.247-.201.252-.196.523-.355.812-.476a2.34 2.34 0 01.91-.182c.383 0 .712.072.987.217.275.145.49.348.644.609.154.261.231.57.231.924 0 .317-.077.6-.231.847a1.644 1.644 0 01-.644.588 2.028 2.028 0 01-.959.217zm9.456 1.904v-1.89h1.316l.154-1.106h-1.47v-5.964h-.966l-4.648 5.964.182 1.106h4.088v1.89h1.344zm-1.344-2.996h-2.828l2.828-3.696v3.696zm6.346 2.996l2.982-8.316-.42-.574h-5.474l.168 1.106h4.2l-2.716 7.406 1.26.378zm-77.522 24.566l1.064-.392a4.03 4.03 0 01-.567-.903 10.037 10.037 0 01-.49-1.232 9.871 9.871 0 01-.336-1.323 6.617 6.617 0 01-.119-1.176c0-.336.04-.719.119-1.148.08-.43.191-.863.336-1.302.145-.439.308-.847.49-1.225.182-.378.371-.693.567-.945l-1.064-.378a8.682 8.682 0 00-.959 1.624 8.758 8.758 0 00-.574 1.708 7.769 7.769 0 00-.189 1.68c0 .56.065 1.132.196 1.715.13.583.324 1.155.581 1.715a8.54 8.54 0 00.945 1.582zm5.248-.532v-7.924h-.896l-2.534 1.232.616 1.064 1.47-.784V338h1.344zm7.638 0l-.252-1.036h-4.046l1.778-1.484c.56-.467.99-.884 1.288-1.253.299-.369.507-.721.623-1.057.117-.336.175-.677.175-1.022 0-.485-.121-.896-.364-1.232-.242-.336-.585-.59-1.029-.763-.443-.173-.963-.259-1.56-.259-.626 0-1.14.082-1.54.245a7.045 7.045 0 00-.995.483l.322 1.078c.168-.093.357-.196.567-.308.21-.112.45-.208.721-.287a3.21 3.21 0 01.91-.119c.523 0 .943.107 1.26.322.318.215.476.555.476 1.022 0 .243-.058.48-.175.714a3.079 3.079 0 01-.504.707c-.219.238-.487.497-.805.777l-2.954 2.59V338h6.104zm6.239.966v-1.89h1.316l.154-1.106h-1.47v-5.964h-.966l-4.648 5.964.182 1.106h4.088v1.89h1.344zm-1.344-2.996h-2.828l2.828-3.696v3.696zm4.778 2.562a9.776 9.776 0 00.945-1.631c.256-.565.45-1.134.58-1.708a7.513 7.513 0 00.197-1.673 7.87 7.87 0 00-.196-1.715 8.887 8.887 0 00-.581-1.722 8.023 8.023 0 00-.945-1.575l-1.064.392c.196.224.385.525.567.903.182.378.343.789.483 1.232.14.443.25.882.329 1.316.079.434.119.824.119 1.169 0 .336-.04.719-.12 1.148a10.56 10.56 0 01-.811 2.534c-.182.383-.371.7-.567.952l1.064.378zm9.878-.35c.588 0 1.11-.121 1.568-.364a2.687 2.687 0 001.07-1.008c.257-.43.386-.92.386-1.47 0-.55-.129-1.031-.385-1.442a2.65 2.65 0 00-1.078-.966c-.462-.233-.997-.35-1.603-.35-.41 0-.78.065-1.106.196-.245.098-.476.22-.692.365l-.14.101.032-.106a3.572 3.572 0 01.779-1.305c.294-.313.623-.579.987-.798.364-.22.742-.399 1.134-.539.392-.14.77-.243 1.134-.308l-.252-1.064a6.543 6.543 0 00-1.407.35 6.66 6.66 0 00-1.414.714 6.225 6.225 0 00-1.232 1.071c-.369.415-.66.889-.875 1.421-.215.532-.322 1.13-.322 1.792 0 .812.15 1.493.448 2.044.298.55.707.966 1.225 1.246.518.28 1.099.42 1.743.42zm-.056-1.12c-.374 0-.717-.1-1.03-.301-.312-.2-.564-.504-.755-.91-.164-.348-.258-.766-.281-1.255l-.001-.016.07-.061c.08-.069.163-.136.247-.201.252-.196.522-.355.812-.476.29-.121.592-.182.91-.182.382 0 .711.072.987.217.275.145.49.348.644.609.154.261.23.57.23.924 0 .317-.076.6-.23.847a1.644 1.644 0 01-.644.588 2.032 2.032 0 01-.96.217h.001zm7.538 1.12c.588 0 1.11-.121 1.568-.364a2.697 2.697 0 001.071-1.008c.257-.43.385-.92.385-1.47 0-.55-.128-1.031-.385-1.442a2.65 2.65 0 00-1.078-.966c-.462-.233-.996-.35-1.603-.35-.41 0-.78.065-1.106.196-.245.098-.475.22-.692.365l-.14.101.032-.106a3.554 3.554 0 01.78-1.305c.293-.313.622-.579.986-.798.364-.22.742-.399 1.134-.539.392-.14.77-.243 1.134-.308l-.252-1.064a6.543 6.543 0 00-1.407.35c-.49.177-.961.415-1.414.714a6.253 6.253 0 00-1.232 1.071c-.369.415-.66.889-.875 1.421-.215.532-.322 1.13-.322 1.792 0 .812.15 1.493.448 2.044.299.55.707.966 1.225 1.246.518.28 1.1.42 1.743.42zm-.056-1.12c-.373 0-.716-.1-1.029-.301-.313-.2-.565-.504-.756-.91-.164-.348-.258-.766-.281-1.255l-.001-.016.07-.061c.08-.069.163-.136.247-.201.252-.196.523-.355.812-.476a2.34 2.34 0 01.91-.182c.383 0 .712.072.987.217.275.145.49.348.644.609.154.261.231.57.231.924 0 .317-.077.6-.23.847-.155.247-.37.443-.645.588a2.028 2.028 0 01-.959.217zm6.754 1.904l2.982-8.316-.42-.574h-5.474l.168 1.106h4.2l-2.716 7.406 1.26.378zm7.578-4.256l-.14-1.064h-3.556l.126 1.064h3.57zm4.227 3.472c.68 0 1.257-.121 1.729-.364.47-.243.83-.565 1.078-.966.247-.401.37-.845.37-1.33 0-.355-.081-.69-.244-1.008a2.626 2.626 0 00-.644-.812 2.112 2.112 0 00-.847-.448c.242-.112.469-.261.679-.448a2.21 2.21 0 00.504-.651c.126-.247.189-.511.189-.791 0-.42-.11-.81-.33-1.169a2.37 2.37 0 00-.958-.868c-.42-.22-.93-.329-1.526-.329-.598 0-1.106.11-1.526.329-.42.22-.74.509-.96.868-.219.36-.328.749-.328 1.169 0 .43.128.81.385 1.141.256.331.58.581.973.749-.3.075-.581.231-.847.469a2.871 2.871 0 00-.644.833c-.164.317-.245.64-.245.966 0 .485.123.929.37 1.33.248.401.61.723 1.086.966.476.243 1.054.364 1.736.364zm0-5.39c-.504-.075-.892-.243-1.162-.504-.271-.261-.406-.565-.406-.91 0-.224.06-.434.182-.63a1.31 1.31 0 01.532-.476c.233-.121.508-.182.826-.182.504 0 .893.128 1.169.385.275.257.413.558.413.903 0 .224-.059.434-.175.63a1.425 1.425 0 01-.525.497 2.531 2.531 0 01-.854.287zm0 4.298c-.346 0-.665-.063-.96-.189a1.734 1.734 0 01-.706-.532 1.294 1.294 0 01-.266-.819c0-.43.16-.81.483-1.141.322-.331.805-.544 1.449-.637.634.093 1.113.306 1.435.637.322.331.483.712.483 1.141 0 .317-.09.59-.266.819a1.744 1.744 0 01-.707.532c-.294.126-.61.189-.945.189zm9.558 1.876v-1.89h1.316l.154-1.106h-1.47v-5.964h-.966l-4.648 5.964.182 1.106h4.088v1.89h1.344zm-1.344-2.996h-2.828l2.828-3.696v3.696zm9.748 2.03l-.252-1.036h-4.046l1.778-1.484c.56-.467.99-.884 1.288-1.253.299-.369.506-.721.623-1.057.117-.336.175-.677.175-1.022 0-.485-.121-.896-.364-1.232-.243-.336-.586-.59-1.029-.763-.443-.173-.964-.259-1.56-.259-.626 0-1.14.082-1.54.245a6.991 6.991 0 00-.995.483l.322 1.078c.168-.093.357-.196.567-.308.21-.112.45-.208.721-.287.27-.08.574-.119.91-.119.523 0 .943.107 1.26.322.317.215.476.555.476 1.022 0 .243-.058.48-.175.714a3.14 3.14 0 01-.504.707c-.22.238-.488.497-.805.777l-2.954 2.59V338h6.104zm3.34 1.064c.663 0 1.235-.117 1.715-.35.481-.233.854-.548 1.12-.945.266-.397.4-.847.4-1.351 0-.392-.073-.742-.218-1.05a2.238 2.238 0 00-.567-.763 1.674 1.674 0 00-.756-.385c.243-.093.467-.236.672-.427.206-.191.374-.42.504-.686.131-.266.196-.553.196-.861 0-.41-.105-.796-.315-1.155-.21-.36-.53-.649-.959-.868-.429-.22-.961-.329-1.596-.329a4.4 4.4 0 00-1.54.259 6.6 6.6 0 00-1.302.651l.644.896c.234-.159.537-.317.91-.476a3.152 3.152 0 011.246-.238c.336 0 .626.06.868.182.243.121.43.278.56.469.131.191.196.404.196.637 0 .439-.196.791-.588 1.057-.392.266-.924.399-1.596.399h-.7l.196 1.022h.42c.859 0 1.48.154 1.862.462.383.308.574.714.574 1.218 0 .317-.093.593-.28.826-.186.233-.424.41-.714.532a2.368 2.368 0 01-.924.182c-.457 0-.851-.054-1.183-.161a5.024 5.024 0 01-1.015-.469l-.686.924c.374.196.812.378 1.316.546a4.843 4.843 0 001.54.252z" fill="#858D98"/><path fill-rule="evenodd" clip-rule="evenodd" d="M238.209 302.927h24a8.5 8.5 0 010 17h-24a8.5 8.5 0 010-17z" fill="#D7D9DD"/><path d="M238.319 314.927l1.21-4.61 1.25 4.61h1.47l1.99-6.8h-1.56l-1.14 4.82-1.22-4.82h-1.56l-1.15 4.82-1.25-4.92-1.55.18 2.04 6.72h1.47zm9.773.14c.68-.007 1.277-.162 1.79-.465a3.198 3.198 0 001.205-1.26c.29-.537.435-1.155.435-1.855 0-.653-.135-1.245-.405-1.775a3.12 3.12 0 00-1.17-1.265c-.51-.313-1.128-.47-1.855-.47-.673.007-1.267.162-1.78.465a3.231 3.231 0 00-1.21 1.26c-.293.537-.44 1.155-.44 1.855 0 .647.137 1.237.41 1.77.273.533.667.957 1.18 1.27.513.313 1.127.47 1.84.47zm-.01-1.31c-.373 0-.695-.095-.965-.285a1.806 1.806 0 01-.62-.785 2.865 2.865 0 01-.215-1.14c0-.46.083-.857.25-1.19.167-.333.39-.593.67-.78.28-.187.58-.28.9-.28.38 0 .703.095.97.285.267.19.472.448.615.775.143.327.215.703.215 1.13 0 .507-.082.928-.245 1.265a1.746 1.746 0 01-.655.755c-.273.167-.58.25-.92.25zm6.14 1.17v-2.36h.61c.1 0 .2.002.3.005.1.003.204.002.31-.005l1.26 2.36h1.76l-1.58-2.8c.3-.173.547-.412.74-.715.194-.303.29-.662.29-1.075 0-.513-.125-.932-.375-1.255a2.222 2.222 0 00-.995-.72 3.857 3.857 0 00-1.38-.235h-2.5v6.8h1.56zm.92-3.61h-.92v-1.93h.89c.254 0 .465.033.635.1a.8.8 0 01.395.32c.094.147.14.333.14.56 0 .207-.05.38-.15.52a.943.943 0 01-.405.32 1.47 1.47 0 01-.585.11zm5.806 3.61v-2.09l.6-.59 1.89 2.68h1.97l-2.76-3.77 2.33-2.3-1.19-.88-2.84 2.75v-2.6h-1.57v6.8h1.57z" fill="#5D6775"/><path fill-rule="evenodd" clip-rule="evenodd" d="M241.209 275.927h45a8.5 8.5 0 010 17h-45a8.5 8.5 0 010-17z" fill="#D7D9DD"/><path d="M240.089 287.927v-2.17h.86c.36 0 .71-.047 1.05-.14.34-.093.643-.233.91-.42.267-.187.478-.427.635-.72.157-.293.235-.637.235-1.03 0-.533-.125-.972-.375-1.315a2.204 2.204 0 00-.995-.76 3.73 3.73 0 00-1.38-.245h-2.5v6.8h1.56zm.92-3.42h-.92v-2.12h.89c.247 0 .457.04.63.12a.87.87 0 01.4.365c.093.163.14.368.14.615a1.085 1.085 0 01-.155.545.919.919 0 01-.4.355c-.17.08-.365.12-.585.12zm8.696 3.42l-.2-1.22h-3.12v-1.59h2.35l-.19-1.23h-2.16v-1.53h2.92l-.19-1.23h-4.29v6.8h4.88zm2.576 0v-2.36h.61c.1 0 .2.002.3.005.1.003.203.002.31-.005l1.26 2.36h1.76l-1.58-2.8c.3-.173.547-.412.74-.715.193-.303.29-.662.29-1.075 0-.513-.125-.932-.375-1.255a2.228 2.228 0 00-.995-.72 3.857 3.857 0 00-1.38-.235h-2.5v6.8h1.56zm.92-3.61h-.92v-1.93h.89c.253 0 .465.033.635.1a.8.8 0 01.395.32c.093.147.14.333.14.56 0 .207-.05.38-.15.52a.943.943 0 01-.405.32 1.47 1.47 0 01-.585.11zm5.936 3.74c.553 0 1.025-.085 1.415-.255.39-.17.69-.4.9-.69.21-.29.315-.622.315-.995 0-.287-.062-.538-.185-.755a2.38 2.38 0 00-.485-.595c-.2-.18-.422-.343-.665-.49-.243-.147-.485-.29-.725-.43a6.204 6.204 0 00-.56-.33 1.92 1.92 0 01-.43-.29.483.483 0 01.075-.775c.157-.103.358-.155.605-.155.173 0 .335.015.485.045.15.03.302.07.455.12.153.05.323.115.51.195l.49-1.14a3.915 3.915 0 00-.92-.38c-.353-.1-.7-.15-1.04-.15-.5 0-.933.082-1.3.245-.367.163-.647.387-.84.67a1.735 1.735 0 00-.3.965c0 .273.062.522.185.745.123.223.287.425.49.605s.425.345.665.495l.7.435c.187.113.37.222.55.325.18.103.328.205.445.305.117.1.175.207.175.32 0 .12-.038.228-.115.325a.73.73 0 01-.35.225c-.157.053-.352.08-.585.08-.173 0-.363-.023-.57-.07a4.555 4.555 0 01-1.06-.38l-.45 1.22c.12.073.268.143.445.21a5.932 5.932 0 001.145.305c.193.03.37.045.53.045zm6.6.01c.68-.007 1.276-.162 1.79-.465a3.198 3.198 0 001.205-1.26c.29-.537.435-1.155.435-1.855 0-.653-.135-1.245-.405-1.775a3.12 3.12 0 00-1.17-1.265c-.51-.313-1.129-.47-1.855-.47-.674.007-1.267.162-1.78.465a3.224 3.224 0 00-1.21 1.26c-.294.537-.44 1.155-.44 1.855 0 .647.136 1.237.41 1.77.273.533.666.957 1.18 1.27.513.313 1.126.47 1.84.47zm-.01-1.31c-.374 0-.695-.095-.965-.285a1.806 1.806 0 01-.62-.785 2.848 2.848 0 01-.215-1.14c0-.46.083-.857.25-1.19.166-.333.39-.593.67-.78.28-.187.58-.28.9-.28.38 0 .703.095.97.285.266.19.471.448.615.775.143.327.215.703.215 1.13 0 .507-.082.928-.245 1.265-.164.337-.382.588-.655.755a1.73 1.73 0 01-.92.25zm6.14 1.17v-4.05l.39.54 2.49 3.51h1.5v-6.8h-1.56l.01 4.11-.47-.66-2.42-3.45h-1.5v6.8h1.56zm10.42.1l1.54-.18-2.59-6.72h-1.46l-2.6 6.8h1.56l.53-1.47h2.47l.55 1.57zm-1.01-2.81h-1.56l.76-2.11.8 2.11zm8.164 2.71l-.18-1.22h-2.95v-5.58h-1.56v6.8h4.69z" fill="#5D6775"/><path fill-rule="evenodd" clip-rule="evenodd" d="M285.209 302.927h53a8.5 8.5 0 010 17h-53a8.5 8.5 0 010-17z" fill="#FCCF33"/><path d="M285.209 314.927c.367 0 .71-.04 1.03-.12.32-.08.602-.2.845-.36.243-.16.433-.368.57-.625.137-.257.205-.558.205-.905 0-.373-.092-.697-.275-.97a2.215 2.215 0 00-.705-.67c.167-.147.322-.322.465-.525.143-.203.215-.435.215-.695 0-.467-.112-.84-.335-1.12a1.918 1.918 0 00-.905-.615 3.94 3.94 0 00-1.28-.195h-2.51v6.8h2.68zm-.43-4.13h-.68v-1.41h.81c.213 0 .395.023.545.07.15.047.267.123.35.23.083.107.125.25.125.43a.524.524 0 01-.155.385.912.912 0 01-.415.225c-.173.047-.367.07-.58.07zm.4 2.88h-1.08v-1.63h1.12c.313 0 .562.073.745.22.183.147.275.357.275.63a.675.675 0 01-.135.425.824.824 0 01-.37.265c-.157.06-.342.09-.555.09zm8.602 1.25l-.2-1.22h-3.12v-1.59h2.35l-.19-1.23h-2.16v-1.53h2.92l-.19-1.23h-4.29v6.8h4.88zm2.716.13c.553 0 1.025-.085 1.415-.255.39-.17.69-.4.9-.69.21-.29.315-.622.315-.995 0-.287-.062-.538-.185-.755a2.38 2.38 0 00-.485-.595c-.2-.18-.422-.343-.665-.49-.243-.147-.485-.29-.725-.43a6.204 6.204 0 00-.56-.33 1.92 1.92 0 01-.43-.29.483.483 0 01.075-.775c.157-.103.358-.155.605-.155.173 0 .335.015.485.045.15.03.302.07.455.12.153.05.323.115.51.195l.49-1.14a3.915 3.915 0 00-.92-.38c-.353-.1-.7-.15-1.04-.15-.5 0-.933.082-1.3.245-.367.163-.647.387-.84.67a1.735 1.735 0 00-.3.965c0 .273.062.522.185.745.123.223.287.425.49.605s.425.345.665.495l.7.435c.187.113.37.222.55.325.18.103.328.205.445.305.117.1.175.207.175.32 0 .12-.038.228-.115.325a.73.73 0 01-.35.225c-.157.053-.352.08-.585.08-.173 0-.363-.023-.57-.07a4.555 4.555 0 01-1.06-.38l-.45 1.22c.12.073.268.143.445.21a5.932 5.932 0 001.145.305c.193.03.37.045.53.045zm6.55-.13v-5.57h2.25l-.19-1.23h-5.66v1.23h2.04v5.57h1.56zm6.958 0v-3.71l1.36 1.7.62-.08 1.1-1.51v3.6h1.56v-6.8h-1l-1.99 2.86-2.17-2.86h-1.04v6.8h1.56zm10.676.1l1.54-.18-2.59-6.72h-1.46l-2.6 6.8h1.56l.53-1.47h2.47l.55 1.57zm-1.01-2.81h-1.56l.76-2.11.8 2.11zm6.354 2.71v-5.57h2.25l-.19-1.23h-5.66v1.23h2.04v5.57h1.56zm6.064.13c.206 0 .428-.018.665-.055.236-.037.47-.09.7-.16.23-.07.431-.152.605-.245l-.59-1.17c-.194.1-.407.182-.64.245a2.875 2.875 0 01-.75.095c-.254 0-.487-.053-.7-.16a1.615 1.615 0 01-.555-.46c-.157-.2-.28-.435-.37-.705a2.816 2.816 0 01-.135-.895c0-.467.081-.868.245-1.205.163-.337.38-.597.65-.78.27-.183.558-.275.865-.275a3.218 3.218 0 01.895.12c.15.04.331.097.545.17l.47-1.08a2.673 2.673 0 00-.615-.28 4.901 4.901 0 00-.68-.165 3.737 3.737 0 00-.605-.055c-.5 0-.957.087-1.37.26a3.148 3.148 0 00-1.075.735 3.25 3.25 0 00-.7 1.13 4.052 4.052 0 00-.245 1.435c0 .5.075.963.225 1.39.15.427.37.798.66 1.115.29.317.645.562 1.065.735.42.173.9.26 1.44.26zm4.47-.13v-2.77h2.53v2.77h1.56v-6.8h-1.56v2.8h-2.53v-2.86l-1.56.06v6.8h1.56z" fill="#132369"/><path opacity=".08" d="M120 273c0 13.807-11.193 25-25 25s-25-11.193-25-25 11.193-25 25-25 25 11.193 25 25z" fill="#1B61DB"/><path fill-rule="evenodd" clip-rule="evenodd" d="M83.416 266.37c.964-1.512 1.935-2.633 3.73-4.183a.768.768 0 011.106.106c1.43 1.812 2.38 3.256 3.492 5.602.147.31.068.68-.19.906l-2.18 1.903c1.956 5.098 3.977 7.17 9.035 8.539l1.497-1.872a.768.768 0 01.89-.233c2.206.909 3.775 1.945 5.885 3.475a.771.771 0 01.138 1.12c-1.491 1.78-2.778 2.942-4.4 3.908a2.663 2.663 0 01-2.292.194c-9.088-3.409-13.869-7.831-16.988-17.18a2.671 2.671 0 01.277-2.284v-.001z" fill="#1B61DB"/><path d="M207 71v32" stroke="url(#paint0_linear)" stroke-width="3" stroke-linecap="round" stroke-linejoin="round"/><path d="M207.071 104.533l-5.958-5.958M213.071 98.575l-5.958 5.958" stroke="#D4DEF0" stroke-width="3" stroke-linecap="round"/><defs><filter id="filter0_d" x="317" y="2" width="64" height="64" filterUnits="userSpaceOnUse" color-interpolation-filters="sRGB"><feFlood flood-opacity="0" result="BackgroundImageFix"/><feColorMatrix in="SourceAlpha" values="0 0 0 0 0 0 0 0 0 0 0 0 0 0 0 0 0 0 127 0"/><feOffset dy="4"/><feGaussianBlur stdDeviation="5"/><feColorMatrix values="0 0 0 0 0 0 0 0 0 0.619608 0 0 0 0 0.376471 0 0 0 0.253387 0"/><feBlend in2="BackgroundImageFix" result="effect1_dropShadow"/><feBlend in="SourceGraphic" in2="effect1_dropShadow" result="shape"/></filter><filter id="filter1_d" x="0" y="111" width="421" height="175" filterUnits="userSpaceOnUse" color-interpolation-filters="sRGB"><feFlood flood-opacity="0" result="BackgroundImageFix"/><feColorMatrix in="SourceAlpha" values="0 0 0 0 0 0 0 0 0 0 0 0 0 0 0 0 0 0 127 0"/><feOffset dx="3" dy="6"/><feGaussianBlur stdDeviation="5"/><feColorMatrix values="0 0 0 0 0.106 0 0 0 0 0.38 0 0 0 0 0.859 0 0 0 0.1 0"/><feBlend in2="BackgroundImageFix" result="effect1_dropShadow"/><feBlend in="SourceGraphic" in2="effect1_dropShadow" result="shape"/></filter><filter id="filter2_d" x="47" y="213" width="421" height="175" filterUnits="userSpaceOnUse" color-interpolation-filters="sRGB"><feFlood flood-opacity="0" result="BackgroundImageFix"/><feColorMatrix in="SourceAlpha" values="0 0 0 0 0 0 0 0 0 0 0 0 0 0 0 0 0 0 127 0"/><feOffset dx="3" dy="6"/><feGaussianBlur stdDeviation="5"/><feColorMatrix values="0 0 0 0 0.106 0 0 0 0 0.38 0 0 0 0 0.859 0 0 0 0.1 0"/><feBlend in2="BackgroundImageFix" result="effect1_dropShadow"/><feBlend in="SourceGraphic" in2="effect1_dropShadow" result="shape"/></filter><linearGradient id="paint0_linear" x1="-nan" y1="-nan" x2="-nan" y2="-nan" gradientUnits="userSpaceOnUse"><stop stop-color="#D0DBEE"/><stop offset=".355" stop-color="#D0DBEE"/><stop offset="1" stop-color="#fff" stop-opacity="0"/></linearGradient></defs></svg>