<svg xmlns="http://www.w3.org/2000/svg" xmlns:xlink="http://www.w3.org/1999/xlink" width="436.777" height="419.873" viewBox="0 0 436.777 419.873">
  <defs>
    <filter id="Rectangle_38138" x="378.777" y="73.873" width="58" height="58" filterUnits="userSpaceOnUse">
      <feOffset dy="3" input="SourceAlpha"/>
      <feGaussianBlur stdDeviation="3" result="blur"/>
      <feFlood flood-color="#1b61db" flood-opacity="0.082"/>
      <feComposite operator="in" in2="blur"/>
      <feComposite in="SourceGraphic"/>
    </filter>
    <filter id="Rectangle_38139" x="266.652" y="361.873" width="58" height="58" filterUnits="userSpaceOnUse">
      <feOffset dy="3" input="SourceAlpha"/>
      <feGaussianBlur stdDeviation="3" result="blur-2"/>
      <feFlood flood-color="#1b61db" flood-opacity="0.082"/>
      <feComposite operator="in" in2="blur-2"/>
      <feComposite in="SourceGraphic"/>
    </filter>
    <filter id="Rectangle_38157" x="30.652" y="135.873" width="58" height="58" filterUnits="userSpaceOnUse">
      <feOffset dy="3" input="SourceAlpha"/>
      <feGaussianBlur stdDeviation="3" result="blur-3"/>
      <feFlood flood-color="#1b61db" flood-opacity="0.082"/>
      <feComposite operator="in" in2="blur-3"/>
      <feComposite in="SourceGraphic"/>
    </filter>
    <filter id="Path_83029" x="67.975" y="203.873" width="65.783" height="65.783" filterUnits="userSpaceOnUse">
      <feOffset dy="3" input="SourceAlpha"/>
      <feGaussianBlur stdDeviation="3" result="blur-4"/>
      <feFlood flood-color="#1b61db" flood-opacity="0.082"/>
      <feComposite operator="in" in2="blur-4"/>
      <feComposite in="SourceGraphic"/>
    </filter>
    <filter id="Path_83029-2" x="91.867" y="0" width="47.53" height="47.53" filterUnits="userSpaceOnUse">
      <feOffset dy="3" input="SourceAlpha"/>
      <feGaussianBlur stdDeviation="3" result="blur-5"/>
      <feFlood flood-color="#1b61db" flood-opacity="0.082"/>
      <feComposite operator="in" in2="blur-5"/>
      <feComposite in="SourceGraphic"/>
    </filter>
    <filter id="Path_83029-3" x="309.215" y="229.482" width="76" height="76" filterUnits="userSpaceOnUse">
      <feOffset dy="3" input="SourceAlpha"/>
      <feGaussianBlur stdDeviation="3" result="blur-6"/>
      <feFlood flood-color="#1b61db" flood-opacity="0.082"/>
      <feComposite operator="in" in2="blur-6"/>
      <feComposite in="SourceGraphic"/>
    </filter>
    <filter id="Rectangle_38141" x="145.652" y="285.873" width="58" height="58" filterUnits="userSpaceOnUse">
      <feOffset dy="3" input="SourceAlpha"/>
      <feGaussianBlur stdDeviation="3" result="blur-7"/>
      <feFlood flood-color="#1b61db" flood-opacity="0.082"/>
      <feComposite operator="in" in2="blur-7"/>
      <feComposite in="SourceGraphic"/>
    </filter>
  </defs>
  <g id="Integration_img" transform="translate(-15057.348 -12012.127)">
    <path id="Path_83036" data-name="Path 83036" d="M162.917-12262.119v59.829s-.124,21.389-27.221,21.389H62.05" transform="translate(15120.055 24426.793)" fill="none" stroke="#e2e2e2" stroke-width="3" stroke-dasharray="5"/>
    <path id="Path_83076" data-name="Path 83076" d="M162.917-12262.119v59.829s-.124,21.389-27.221,21.389H62.05" transform="translate(15437.613 -126.46) rotate(180)" fill="none" stroke="#e2e2e2" stroke-width="3" stroke-dasharray="5"/>
    <path id="Path_83073" data-name="Path 83073" d="M162.917-12262.119v59.829s-.124,21.389-27.221,21.389H62.05" transform="translate(14995.297 24504.512)" fill="none" stroke="#e2e2e2" stroke-width="3" stroke-dasharray="5"/>
    <path id="Path_83072" data-name="Path 83072" d="M162.917-12262.119v59.829s-.124,21.389-27.221,21.389H62.05" transform="translate(2992.078 11972.742) rotate(90)" fill="none" stroke="#e2e2e2" stroke-width="3" stroke-dasharray="5"/>
    <path id="Path_82975" data-name="Path 82975" d="M62.05-12333.684v131.394s.124,21.389,27.221,21.389h73.646" transform="translate(15169.488 24580.902)" fill="none" stroke="#e2e2e2" stroke-width="3" stroke-dasharray="5"/>
    <path id="Path_82973" data-name="Path 82973" d="M0,63.782V21.389S.124,0,27.221,0s144.3,1.958,144.3,1.958" transform="translate(15404.563 12326.695) rotate(180)" fill="none" stroke="#e2e2e2" stroke-width="3" stroke-dasharray="5"/>
    <path id="Path_82972" data-name="Path 82972" d="M62.05-12244.684v37.013S62.159-12189,85.816-12189h36.36" transform="translate(2928.296 12042.498) rotate(90)" fill="none" stroke="#e2e2e2" stroke-width="3" stroke-dasharray="5"/>
    <path id="Path_83075" data-name="Path 83075" d="M0,101V18.674S.108,0,23.766,0H60.125" transform="translate(15464.688 12166.659) rotate(-180)" fill="none" stroke="#e2e2e2" stroke-width="3" stroke-dasharray="5"/>
    <path id="Path_83074" data-name="Path 83074" d="M0-57V37.013S.108,55.687,23.766,55.687H79.319" transform="translate(15405.492 12191.346) rotate(180)" fill="none" stroke="#e2e2e2" stroke-width="3" stroke-dasharray="5"/>
    <g transform="matrix(1, 0, 0, 1, 15057.35, 12012.13)" filter="url(#Rectangle_38138)">
      <g id="Rectangle_38138-2" data-name="Rectangle 38138" transform="translate(387.78 79.87)" fill="#fff" stroke="#e6e6e6" stroke-width="0.5">
        <rect width="40" height="40" rx="5" stroke="none"/>
        <rect x="0.25" y="0.25" width="39.5" height="39.5" rx="4.75" fill="none"/>
      </g>
    </g>
    <g transform="matrix(1, 0, 0, 1, 15057.35, 12012.13)" filter="url(#Rectangle_38139)">
      <g id="Rectangle_38139-2" data-name="Rectangle 38139" transform="translate(275.65 367.87)" fill="#fff" stroke="#e6e6e6" stroke-width="0.5">
        <rect width="40" height="40" rx="5" stroke="none"/>
        <rect x="0.25" y="0.25" width="39.5" height="39.5" rx="4.75" fill="none"/>
      </g>
    </g>
    <g transform="matrix(1, 0, 0, 1, 15057.35, 12012.13)" filter="url(#Rectangle_38157)">
      <g id="Rectangle_38157-2" data-name="Rectangle 38157" transform="translate(39.65 141.87)" fill="#fff" stroke="#e6e6e6" stroke-width="0.5">
        <rect width="40" height="40" rx="5" stroke="none"/>
        <rect x="0.25" y="0.25" width="39.5" height="39.5" rx="4.75" fill="none"/>
      </g>
    </g>
    <g id="calendar-svgrepo-com" transform="translate(15452.414 12099.289)">
      <path id="Path_82890" data-name="Path 82890" d="M1.589,0H23.834a1.589,1.589,0,0,1,1.589,1.589V23.834a1.59,1.59,0,0,1-1.589,1.589H1.589A1.59,1.59,0,0,1,0,23.834V1.589A1.589,1.589,0,0,1,1.589,0Z" fill="#edf2fc"/>
      <path id="Path_82891" data-name="Path 82891" d="M23.834,0H1.589A1.589,1.589,0,0,0,0,1.589V5.561H25.423V1.589A1.589,1.589,0,0,0,23.834,0Z" fill="#1b61db"/>
      <path id="Path_82892" data-name="Path 82892" d="M72.966,116.825a2.165,2.165,0,0,0-.8.143l-.025-.024c.418-.558,1.242-1.318,1.749-1.9a.822.822,0,0,0,.266-.487,1.043,1.043,0,0,0-.9-.867.694.694,0,0,0-.381.083,2.907,2.907,0,0,0-.406.284c-1.28,1.116-3.219,3.635-3.219,5.427a2.98,2.98,0,0,0,3.181,2.945,3.047,3.047,0,0,0,3.18-2.945A2.658,2.658,0,0,0,72.966,116.825Zm-.532,3.894a1.235,1.235,0,1,1,1.2-1.235A1.172,1.172,0,0,1,72.434,120.72Zm-5.8.112h-2.4c1.115-1.292,3.15-2.959,3.15-4.636a2.639,2.639,0,0,0-2.913-2.512,2.98,2.98,0,0,0-3.084,2.741.872.872,0,0,0,.957.881c1.26,0,.539-1.956,2.048-1.956a.939.939,0,0,1,.945.929,1.91,1.91,0,0,1-.459,1.123c-1,1.328-2.179,2.414-3.268,3.61a.978.978,0,0,0-.3.616c0,.556.446.8,1.024.8h4.384c.5,0,.945-.241.945-.8S67.215,120.832,66.638,120.832Z" transform="translate(-55.744 -103.362)" fill="#1b61db"/>
      <path id="Path_82893" data-name="Path 82893" d="M0,52.505H25.423v1.589H0Z" transform="translate(0 -47.738)" fill="#4d89f0"/>
      <path id="Path_82894" data-name="Path 82894" d="M132.057,17.5a.794.794,0,1,1-.794.794A.794.794,0,0,1,132.057,17.5Z" transform="translate(-119.346 -15.913)" fill="#fff"/>
      <path id="Path_82895" data-name="Path 82895" d="M23.834,246.613H1.589A1.59,1.59,0,0,1,0,245.024v1.589A1.59,1.59,0,0,0,1.589,248.2H23.834a1.59,1.59,0,0,0,1.589-1.589v-1.589A1.59,1.59,0,0,1,23.834,246.613Z" transform="translate(0 -222.779)" fill="#83acf4"/>
    </g>
    <g id="Group_86620" data-name="Group 86620" transform="translate(425 -409.04)">
      <circle id="Ellipse_7141" data-name="Ellipse 7141" cx="9.5" cy="9.5" r="9.5" transform="translate(14797 12645.04)" fill="#1b61db"/>
      <g id="gear-svgrepo-com" transform="translate(14800.404 12648.404)">
        <path id="Path_82896" data-name="Path 82896" d="M11.627,7.338a.606.606,0,0,0,.606-.606V5.5a.606.606,0,0,0-.606-.606h-.682l0,0a4.917,4.917,0,0,0-.551-1.325l.475-.476a.607.607,0,0,0,0-.857L10,1.36a.606.606,0,0,0-.857,0l-.475.475A4.927,4.927,0,0,0,7.35,1.287s0-.351-.008-.686A.6.6,0,0,0,6.737,0H5.5A.605.605,0,0,0,4.9.611l.006.663a4.489,4.489,0,0,0-1.356.56L3.076,1.36a.606.606,0,0,0-.857,0l-.874.873a.606.606,0,0,0,0,.857l.475.475A4.971,4.971,0,0,0,1.27,4.89s0,0,0,0H.608A.606.606,0,0,0,0,5.5V6.733a.607.607,0,0,0,.606.607h.658c-.006-.024-.01-.046-.016-.071.006.023.01.046.016.068a4.944,4.944,0,0,0,.555,1.342l-.475.474a.607.607,0,0,0,0,.858l.873.873a.605.605,0,0,0,.857,0l.474-.475a4.95,4.95,0,0,0,1.355.559l-.005.655a.605.605,0,0,0,.606.611H6.739a.607.607,0,0,0,.606-.6c0-.331,0-.673.007-.673a4.977,4.977,0,0,0,1.313-.548l.475.474a.606.606,0,0,0,.857,0l.872-.871a.608.608,0,0,0,0-.857l-.475-.475a4.978,4.978,0,0,0,.557-1.342c.006-.023.006-.021,0,0h.679l0,0Zm-5.52.486a1.7,1.7,0,1,1,1.7-1.7A1.7,1.7,0,0,1,6.108,7.824Z" transform="translate(-0.002 0)" fill="#fff"/>
      </g>
    </g>
    <g id="XMLID_1923_" transform="translate(15340.645 12387.646)">
      <path id="XMLID_1922_" d="M24.71,132.149v13.429a2.149,2.149,0,0,1-2.149,2.149H2.149A2.149,2.149,0,0,1,0,145.578V132.149A2.149,2.149,0,0,1,2.149,130H22.561A2.149,2.149,0,0,1,24.71,132.149Z" transform="translate(0 -123.017)" fill="#4d89f0"/>
      <path id="XMLID_1914_" d="M24.71,11.818V22.561a2.149,2.149,0,0,1-2.149,2.149H2.149A2.149,2.149,0,0,1,0,22.561V11.818ZM6.446,2.686H18.264V0H6.446Z" fill="#1b61db"/>
      <path id="XMLID_1908_" d="M102.686,13.429H100V2.686L101.074,0h1.612ZM113.967,2.686,112.892,0h-1.612V13.429h2.686Z" transform="translate(-94.628)" fill="#83acf4"/>
      <path id="XMLID_1905_" d="M24.71,230v10.206a2.149,2.149,0,0,1-2.149,2.149H2.149A2.149,2.149,0,0,1,0,240.206V230Z" transform="translate(0 -217.645)" fill="#a8bfe8"/>
      <path id="XMLID_1903_" d="M24.71,240v9.669a2.149,2.149,0,0,1-2.149,2.149H2.149A2.149,2.149,0,0,1,0,249.669V240Z" transform="translate(0 -227.108)" fill="#1b61db"/>
      <path id="XMLID_501_" d="M202.954,171.074h-2.686a.269.269,0,0,1-.269-.269v-.537a.269.269,0,0,1,.269-.269h2.686a.269.269,0,0,1,.269.269v.537A.269.269,0,0,1,202.954,171.074Z" transform="translate(-189.257 -160.868)" fill="#fff"/>
    </g>
    <g id="Group_86617" data-name="Group 86617" transform="translate(15134.322 12222)">
      <g transform="matrix(1, 0, 0, 1, -76.97, -209.87)" filter="url(#Path_83029)">
        <g id="Path_83029-4" data-name="Path 83029" transform="translate(76.97 209.87)" fill="#fff">
          <path d="M 46.41144180297852 47.533203125 L 1.371771574020386 47.533203125 C 1.231321573257446 47.533203125 0.9197215437889099 47.26685333251953 0.6426815390586853 46.26855087280273 C 0.3894615769386292 45.35608291625977 0.2500015497207642 44.13851165771484 0.2500015497207642 42.84011077880859 L 0.2500015497207642 4.94309139251709 C 0.2500015497207642 3.644701480865479 0.3894615769386292 2.427121639251709 0.6426815390586853 1.514651536941528 C 0.9197215437889099 0.516351580619812 1.231321573257446 0.2500015497207642 1.371771574020386 0.2500015497207642 L 46.41143035888672 0.2500015497207642 C 46.5518798828125 0.2500015497207642 46.86348342895508 0.516351580619812 47.14052200317383 1.514651536941528 C 47.39374160766602 2.427121639251709 47.533203125 3.644701480865479 47.533203125 4.94309139251709 L 47.533203125 42.84011077880859 C 47.533203125 44.13850021362305 47.39374160766602 45.35608291625977 47.14052200317383 46.26855087280273 C 46.86349105834961 47.26685333251953 46.5518798828125 47.533203125 46.41144180297852 47.533203125 Z" stroke="none"/>
          <path d="M 1.395133972167969 0.5 C 1.307964324951172 0.5562286376953125 1.052242279052734 0.8817024230957031 0.8297233581542969 1.787773132324219 C 0.6170997619628906 2.653530120849609 0.5 3.774120330810547 0.5 4.943092346191406 L 0.5 42.84011077880859 C 0.5 44.00908279418945 0.6170997619628906 45.12966156005859 0.8297233581542969 45.99542999267578 C 1.052242279052734 46.9014892578125 1.307964324951172 47.22697067260742 1.395133972167969 47.283203125 L 46.38806915283203 47.283203125 C 46.47523880004883 47.22697067260742 46.73096084594727 46.9014892578125 46.9534797668457 45.99542999267578 C 47.16610336303711 45.12966156005859 47.283203125 44.00908279418945 47.283203125 42.84011077880859 L 47.283203125 4.943092346191406 C 47.283203125 3.774112701416016 47.16610336303711 2.653530120849609 46.9534797668457 1.787761688232422 C 46.73093795776367 0.8816452026367188 46.47520065307617 0.5561904907226562 46.38804244995117 0.5 L 1.395133972167969 0.5 M 1.371761322021484 0 L 46.41143035888672 0 C 47.16904067993164 0 47.783203125 2.213092803955078 47.783203125 4.943092346191406 L 47.783203125 42.84011077880859 C 47.783203125 45.57010269165039 47.16904067993164 47.783203125 46.41144180297852 47.783203125 L 1.371761322021484 47.783203125 C 0.6141624450683594 47.783203125 0 45.57010269165039 0 42.84011077880859 L 0 4.943092346191406 C 0 2.213092803955078 0.6141624450683594 0 1.371761322021484 0 Z" stroke="none" fill="#e6e6e6"/>
        </g>
      </g>
    </g>
    <g id="Group_86621" data-name="Group 86621" transform="translate(15158.215 12018.127)">
      <g transform="matrix(1, 0, 0, 1, -100.87, -6)" filter="url(#Path_83029-2)">
        <g id="Path_83029-5" data-name="Path 83029" transform="translate(100.87 6)" fill="#fff">
          <path d="M 28.68251800537109 29.28027725219727 L 0.8477576971054077 29.28027725219727 C 0.6840776801109314 29.24878692626953 0.2499976754188538 28.33846855163574 0.2499976754188538 26.47541809082031 L 0.2499976754188538 3.054857730865479 C 0.2499976754188538 1.191807627677917 0.6840776801109314 0.2814876735210419 0.849057674407959 0.2499076724052429 L 28.68251800537109 0.2499976754188538 C 28.8461971282959 0.2814876735210419 29.28027725219727 1.191807627677917 29.28027725219727 3.054857730865479 L 29.28027725219727 26.47541809082031 C 29.28027725219727 28.33676147460938 28.84699630737305 29.24711990356445 28.68167495727539 29.28027725219727 L 28.68251800537109 29.28027725219727 Z" stroke="none"/>
          <path d="M 0.9428672790527344 0.4999980926513672 C 0.7754936218261719 0.7268581390380859 0.4999980926513672 1.634002685546875 0.4999980926513672 3.05485725402832 L 0.4999980926513672 26.47541809082031 C 0.4999980926513672 27.89627265930176 0.7754936218261719 28.80341720581055 0.9428672790527344 29.03027725219727 L 28.5874080657959 29.03027725219727 C 28.75478172302246 28.80341720581055 29.03027725219727 27.89627265930176 29.03027725219727 26.47541809082031 L 29.03027725219727 3.05485725402832 C 29.03027725219727 1.634002685546875 28.75478172302246 0.7268581390380859 28.5874080657959 0.4999980926513672 L 0.9428672790527344 0.4999980926513672 M 0.8477573394775391 -1.9073486328125e-06 L 28.68251800537109 -1.9073486328125e-06 C 29.15071678161621 -1.9073486328125e-06 29.53027725219727 1.367708206176758 29.53027725219727 3.05485725402832 L 29.53027725219727 26.47541809082031 C 29.53027725219727 28.16256713867188 29.15071678161621 29.53027725219727 28.68251800537109 29.53027725219727 L 0.8477573394775391 29.53027725219727 C 0.3795585632324219 29.53027725219727 -1.9073486328125e-06 28.16256713867188 -1.9073486328125e-06 26.47541809082031 L -1.9073486328125e-06 3.05485725402832 C -1.9073486328125e-06 1.367708206176758 0.3795585632324219 -1.9073486328125e-06 0.8477573394775391 -1.9073486328125e-06 Z" stroke="none" fill="#e6e6e6"/>
        </g>
      </g>
    </g>
    <g id="Group_86618" data-name="Group 86618" transform="translate(15375.563 12247.609)">
      <g transform="matrix(1, 0, 0, 1, -318.21, -235.48)" filter="url(#Path_83029-3)">
        <g id="Path_83029-6" data-name="Path 83029" transform="translate(318.21 235.48)" fill="#fff">
          <path d="M 56.33493041992188 57.75 L 1.665071964263916 57.75 C 1.434591889381409 57.75 1.051031947135925 57.33771896362305 0.7285819053649902 56.17578887939453 C 0.4199618995189667 55.06369018554688 0.2500019073486328 53.5806999206543 0.2500019073486328 52 L 0.2500019073486328 6 C 0.2500019073486328 4.419300079345703 0.4199618995189667 2.936310052871704 0.7285819053649902 1.824210047721863 C 1.051031947135925 0.6622800230979919 1.434591889381409 0.25 1.665071964263916 0.25 L 56.33493041992188 0.25 C 56.56541061401367 0.25 56.94897079467773 0.6622800230979919 57.27142333984375 1.824210047721863 C 57.58004379272461 2.936310052871704 57.75 4.419300079345703 57.75 6 L 57.75 52 C 57.75 53.5806999206543 57.58004379272461 55.06369018554688 57.27142333984375 56.17578887939453 C 56.94897079467773 57.33771896362305 56.56541061401367 57.75 56.33493041992188 57.75 Z" stroke="none"/>
          <path d="M 1.667934417724609 0.5 C 1.589214324951172 0.5209083557128906 1.245563507080078 0.8317718505859375 0.9368209838867188 2.012298583984375 C 0.6551322937011719 3.089389801025391 0.5000038146972656 4.505580902099609 0.5000038146972656 6 L 0.5000038146972656 52 C 0.5000038146972656 53.49441909790039 0.6551322937011719 54.91061019897461 0.9368209838867188 55.98770141601562 C 1.247611999511719 57.17605972290039 1.593780517578125 57.48318099975586 1.665073394775391 57.5 L 56.33053207397461 57.50038146972656 C 56.40622329711914 57.48318099975586 56.75239181518555 57.17605972290039 57.06318283081055 55.98770141601562 C 57.34487152099609 54.91061019897461 57.5 53.49441909790039 57.5 52 L 57.5 6 C 57.5 4.505569458007812 57.34487152099609 3.089370727539062 57.06317138671875 2.012279510498047 C 56.75239181518555 0.8239288330078125 56.40621185302734 0.5168190002441406 56.33492279052734 0.5 L 1.667934417724609 0.5 M 1.665073394775391 0 L 56.33492279052734 0 C 57.25452041625977 0 58 2.686290740966797 58 6 L 58 52 C 58 55.3137092590332 57.25452041625977 58 56.33493041992188 58 L 1.665073394775391 58 C 0.7454833984375 58 3.814697265625e-06 55.3137092590332 3.814697265625e-06 52 L 3.814697265625e-06 6 C 3.814697265625e-06 2.686290740966797 0.7454833984375 0 1.665073394775391 0 Z" stroke="none" fill="#e6e6e6"/>
        </g>
      </g>
    </g>
    <g transform="matrix(1, 0, 0, 1, 15057.35, 12012.13)" filter="url(#Rectangle_38141)">
      <g id="Rectangle_38141-2" data-name="Rectangle 38141" transform="translate(154.65 291.87)" fill="#fff" stroke="#e6e6e6" stroke-width="0.5">
        <rect width="40" height="40" rx="5" stroke="none"/>
        <rect x="0.25" y="0.25" width="39.5" height="39.5" rx="4.75" fill="none"/>
      </g>
    </g>
    <g id="chat-svgrepo-com" transform="translate(15220 12311)">
      <path id="Path_82903" data-name="Path 82903" d="M19.9,17.043v8.763a2.043,2.043,0,0,1-2.043,2.043H9.119L4.974,32.408V27.849H2.043A2.043,2.043,0,0,1,0,25.806V17.043A2.043,2.043,0,0,1,2.043,15H17.852A2.043,2.043,0,0,1,19.9,17.043Z" transform="translate(0 -8.197)" fill="#1b61db"/>
      <path id="Path_82904" data-name="Path 82904" d="M27.852,1H12.043A2.043,2.043,0,0,0,10,3.043V6.8H23.708a2.043,2.043,0,0,1,2.043,2.043v5h2.1A2.043,2.043,0,0,0,29.9,11.806V3.043A2.043,2.043,0,0,0,27.852,1Z" transform="translate(-5.855 0)" fill="#4d89f0"/>
      <path id="Path_82905" data-name="Path 82905" d="M16.217,24.844h-5.8a.414.414,0,1,1,0-.829h5.8a.414.414,0,0,1,0,.829Z" transform="translate(-5.855 -13.476)" fill="#fff"/>
      <path id="Path_82906" data-name="Path 82906" d="M21.606,30.844H10.414a.414.414,0,0,1,0-.829H21.606a.414.414,0,1,1,0,.829Z" transform="translate(-5.855 -16.989)" fill="#fff"/>
      <path id="Path_82907" data-name="Path 82907" d="M21.606,36.844H10.414a.414.414,0,1,1,0-.829H21.606a.414.414,0,1,1,0,.829Z" transform="translate(-5.855 -20.502)" fill="#fff"/>
    </g>
    <g id="profile-user-svgrepo-com" transform="translate(15383.616 12254.999)">
      <path id="Path_82902" data-name="Path 82902" d="M21.61,0A21.609,21.609,0,1,0,43.22,21.61,21.61,21.61,0,0,0,21.61,0Zm0,6.461a7.148,7.148,0,1,1-7.147,7.148A7.148,7.148,0,0,1,21.61,6.462Zm0,31.107a15.86,15.86,0,0,1-10.328-3.808,3.046,3.046,0,0,1-1.069-2.315,7.208,7.208,0,0,1,7.244-7.207H25.77A7.2,7.2,0,0,1,33,31.446a3.038,3.038,0,0,1-1.068,2.314A15.854,15.854,0,0,1,21.605,37.569Z" transform="translate(0 0)" fill="#1b61db"/>
    </g>
    <g id="sheets-sheet-svgrepo-com" transform="translate(15091.633 12231.926)">
      <path id="Path_82897" data-name="Path 82897" d="M77.511,27.02a.911.911,0,0,1-.911.911H56.563a.911.911,0,0,1-.911-.911V.911A.911.911,0,0,1,56.563,0H69.314a.911.911,0,0,1,.644.267l7.286,7.286a.911.911,0,0,1,.267.644Z" transform="translate(0 0)" fill="#4d89f0"/>
      <path id="Path_82899" data-name="Path 82899" d="M298.232,7.553,290.946.267A.911.911,0,0,0,290.3,0h-.911V8.2a.911.911,0,0,0,.911.911h8.2V8.2A.911.911,0,0,0,298.232,7.553Z" transform="translate(-220.988 0)" fill="#1b61db"/>
      <path id="Path_82900" data-name="Path 82900" d="M136.1,211.478H123.345a.911.911,0,0,0-.911.911v10.929a.911.911,0,0,0,.911.911H136.1a.911.911,0,0,0,.911-.911V212.389A.911.911,0,0,0,136.1,211.478Zm-11.84,5.465H127.9v1.822h-3.643Zm5.465,0h5.465v1.822H129.72Zm5.465-1.822H129.72V213.3h5.465ZM127.9,213.3v1.822h-3.643V213.3Zm-3.643,7.286H127.9v1.822h-3.643Zm5.465,1.822v-1.822h5.465v1.822Z" transform="translate(-63.139 -199.941)" fill="#fff"/>
      <path id="Path_82901" data-name="Path 82901" d="M262.376,211.478H256V213.3h5.465v1.822H256v1.822h5.465v1.822H256v1.822h5.465v1.822H256v1.822h6.376a.911.911,0,0,0,.911-.911V212.389A.911.911,0,0,0,262.376,211.478Z" transform="translate(-189.419 -199.941)" fill="#edf2fc"/>
    </g>
    <g id="Group_86611" data-name="Group 86611" transform="translate(15163.707 12023.62)">
      <circle id="Ellipse_7148" data-name="Ellipse 7148" cx="9.272" cy="9.272" r="9.272" fill="#1b61db" opacity="0.08"/>
      <path id="Path_83031" data-name="Path 83031" d="M18.107,16.323V18.58c.036,1.077-5.671,1.058-5.706,0V16.315" transform="translate(-6.013 -7.911)" fill="#1b61db" fill-rule="evenodd"/>
      <path id="Path_83032" data-name="Path 83032" d="M12.371,10.825a.831.831,0,0,1,.549,0h0l5.374,1.85-5.37,2.113a.836.836,0,0,1-.544,0h0L7,12.953Z" transform="translate(-3.396 -5.226)" fill="#1b61db" stroke="#e8effb" stroke-linecap="round" stroke-linejoin="round" stroke-width="0.3" fill-rule="evenodd"/>
      <path id="Path_83033" data-name="Path 83033" d="M25.677,21.627V20.16m0-1.35V15.359m.662,4.127a.675.675,0,1,1-.675-.675.675.675,0,0,1,.675.675Z" transform="translate(-12.116 -7.447)" fill="none" stroke="#1b61db" stroke-linecap="round" stroke-linejoin="round" stroke-width="1" fill-rule="evenodd"/>
    </g>
    <g id="Group_86622" data-name="Group 86622" transform="translate(15105.211 12161.918)">
      <circle id="Ellipse_7144" data-name="Ellipse 7144" cx="12.082" cy="12.082" r="12.082" fill="#1b61db" opacity="0.08"/>
      <path id="Path_83006" data-name="Path 83006" d="M9.209,11.2a8.887,8.887,0,0,1,1.877-2.106.387.387,0,0,1,.557.054,13.27,13.27,0,0,1,1.758,2.82.387.387,0,0,1-.1.456l-1.1.958c.985,2.567,2,3.61,4.548,4.3l.753-.942a.387.387,0,0,1,.448-.117,13.461,13.461,0,0,1,2.963,1.749.387.387,0,0,1,.069.564A8.4,8.4,0,0,1,18.776,20.9a1.337,1.337,0,0,1-1.154.1c-4.575-1.716-6.981-3.942-8.552-8.649A1.346,1.346,0,0,1,9.209,11.2Z" transform="translate(-2.959 -2.959)" fill="#1b61db" fill-rule="evenodd"/>
    </g>
    <g id="Group_86608" data-name="Group 86608" transform="translate(15151.683 12040.727)">
      <rect id="Rectangle_38154" data-name="Rectangle 38154" width="100" height="100" rx="6" transform="translate(75.578 57.773)" fill="#1b61db" opacity="0.08"/>
      <rect id="Rectangle_38155" data-name="Rectangle 38155" width="100" height="100" rx="6" transform="translate(80.123 52.228)" fill="#1b61db" opacity="0.1"/>
      <rect id="Rectangle_38156" data-name="Rectangle 38156" width="100" height="100" rx="6" transform="translate(87 44.5)" fill="#fff" stroke="#f2f6fd" stroke-width="1"/>
      <g id="Group_86616" data-name="Group 86616" transform="translate(110.036 66.748)">
        <path id="Path_82839" data-name="Path 82839" d="M10.55,6.043A5.233,5.233,0,1,1,5.316.81,5.233,5.233,0,0,1,10.55,6.043" transform="translate(0.128 -0.81)" fill="#1b61db" fill-rule="evenodd"/>
        <path id="Path_82840" data-name="Path 82840" d="M27.71,6.043A5.233,5.233,0,1,1,22.476.81,5.233,5.233,0,0,1,27.71,6.043" transform="translate(26.142 -0.81)" fill="#132369" fill-rule="evenodd"/>
        <g id="Group_86526" data-name="Group 86526" transform="translate(0 19.57)">
          <path id="Path_79438" data-name="Path 79438" d="M18.762,36.024a4.026,4.026,0,0,1-1.444-.267A27.1,27.1,0,0,1,0,10.586V4.045a4.051,4.051,0,0,1,8.1,0v6.542A18.954,18.954,0,0,0,20.206,28.2a4.046,4.046,0,0,1-1.444,7.827" transform="translate(0 -0.137)" fill="#1b61db" fill-rule="evenodd"/>
        </g>
        <path id="Path_82841" data-name="Path 82841" d="M16.419,44.63a4.091,4.091,0,0,1-1.459-7.91,18.921,18.921,0,0,0,12.09-17.572V12.606a4.089,4.089,0,0,1,8.177,0v6.542A27.146,27.146,0,0,1,17.881,44.358a4.122,4.122,0,0,1-1.459.269" transform="translate(18.701 10.875)" fill="#132369" fill-rule="evenodd"/>
      </g>
    </g>
    <g id="Group_86623" data-name="Group 86623" transform="translate(15357.563 12034.793)">
      <circle id="Ellipse_7143" data-name="Ellipse 7143" cx="18" cy="18" r="18" fill="#1b61db" opacity="0.08"/>
      <g id="Group_86594" data-name="Group 86594">
        <path id="Path_83001" data-name="Path 83001" d="M25.79,25.281H10.56a1.2,1.2,0,0,1-1.2-1.2V12.56a1.2,1.2,0,0,1,1.2-1.2H25.79a1.2,1.2,0,0,1,1.2,1.2V24.08a1.2,1.2,0,0,1-1.2,1.2Z" fill="#1b61db" stroke="#e8effb" stroke-linecap="round" stroke-width="1.2" fill-rule="evenodd"/>
        <path id="Path_83002" data-name="Path 83002" d="M9.36,13.868l8.85,5.609,8.78-5.65" fill="none" stroke="#e8effb" stroke-linecap="round" stroke-width="1.2" fill-rule="evenodd"/>
      </g>
    </g>
  </g>
</svg>
