<svg xmlns="http://www.w3.org/2000/svg" width="40" height="41"><g transform="translate(0 .5)" fill="#1B61DB" fill-rule="evenodd"><circle cx="20" cy="20" r="20" opacity=".08"/><path fill-rule="nonzero" d="M22.98 31.5v-3.312c.928-.384 1.64-.932 2.136-1.644a4.081 4.081 0 00.744-2.388c0-.688-.148-1.292-.444-1.812a5.743 5.743 0 00-1.164-1.428 10.411 10.411 0 00-1.596-1.176 140.92 140.92 0 00-1.74-1.032 18.016 18.016 0 00-1.344-.804c-.432-.232-.776-.472-1.032-.72s-.384-.54-.384-.876c0-.432.188-.76.564-.984.376-.224.86-.336 1.452-.336.416 0 .804.036 1.164.108.36.072.724.168 1.092.288.368.12.776.276 1.224.468l1.176-2.736a6.076 6.076 0 00-.684-.36 9.9 9.9 0 00-.78-.312v-3.24l-2.496.288v2.376c-.128 0-.252-.004-.372-.012l-.183-.009-.189-.003h-.48v-2.64l-2.472.288v2.856c-.928.384-1.64.924-2.136 1.62-.496.696-.752 1.492-.768 2.388 0 .656.148 1.252.444 1.788a5.46 5.46 0 001.176 1.452c.488.432 1.02.828 1.596 1.188.576.36 1.136.708 1.68 1.044.448.272.888.536 1.32.792.432.256.788.516 1.068.78s.42.556.42.876c0 .272-.092.512-.276.72-.184.208-.46.364-.828.468-.368.104-.84.156-1.416.156-.416 0-.872-.056-1.368-.168a10.809 10.809 0 01-1.416-.42 9.99 9.99 0 01-1.128-.492l-1.08 2.928c.176.096.384.2.624.312.24.112.5.216.78.312s.572.192.876.288v3.072h2.472v-2.64h.336c.16 0 .32-.004.48-.012.16-.008.304-.012.432-.012V31.5h2.52z"/></g></svg>