<svg xmlns="http://www.w3.org/2000/svg" width="22" height="23" viewBox="0 0 22 23">
  <g fill="none" fill-rule="evenodd" transform="translate(0 .55)">
    <circle cx="11" cy="11" r="11" fill="#1DA1F2"/>
    <path fill="#FFF" fill-rule="nonzero" d="M11.5640722,1.11231919 C11.1340332,1.30095812 10.6758069,1.42599465 10.1980662,1.48670603 C10.6895392,1.1932677 11.0646488,0.73215032 11.2410009,0.176352101 C10.7827746,0.449553306 10.2768464,0.642528761 9.73767153,0.750219183 C9.30257332,0.286933541 8.68244994,0 8.00595172,0 C6.69342953,0 5.63676243,1.06534015 5.63676243,2.37135755 C5.63676243,2.55927372 5.65266303,2.73996235 5.69169178,2.91197793 C3.72074022,2.81585158 1.97673359,1.87121143 0.805148526,0.432207198 C0.600608999,0.787079663 0.48063175,1.1932677 0.48063175,1.63053418 C0.48063175,2.4515833 0.903443139,3.1793971 1.53368507,3.60076298 C1.15279345,3.59353543 0.779129363,3.48295399 0.462562887,3.30877015 C0.462562887,3.3159977 0.462562887,3.32539351 0.462562887,3.33478932 C0.462562887,4.48686001 1.28433477,5.44378698 2.36196174,5.66422711 C2.16898629,5.71698818 1.95866473,5.74228459 1.74039286,5.74228459 C1.58861442,5.74228459 1.43539046,5.73361154 1.29156231,5.70181034 C1.59873298,6.64066845 2.47037492,7.33089901 3.50680489,7.3533044 C2.70021085,7.98426909 1.67606771,8.36443796 0.567362291,8.36443796 C0.372941328,8.36443796 0.186470664,8.35576491 -5.21064673e-14,8.33191401 C1.0501623,9.00913498 2.29474557,9.39580865 3.6369007,9.39580865 C7.99944693,9.39580865 10.3845368,5.78203609 10.3845368,2.64961804 C10.3845368,2.54481863 10.380923,2.443633 10.3758638,2.34317013 C10.846377,2.00925754 11.2417237,1.59222819 11.5640722,1.11231919 Z" transform="translate(5.442 6.484)"/>
  </g>
</svg>
