<svg xmlns="http://www.w3.org/2000/svg" width="40" height="41"><g transform="translate(0 .5)" fill="#1B61DB" fill-rule="evenodd"><circle cx="20" cy="20" r="20" opacity=".08"/><g fill-rule="nonzero"><path d="M20.464 20.057c-.004-.004-.005-.009-.008-.013l-3.679-3.678v-2.311a.646.646 0 00-.188-.456l-3.869-3.91a.643.643 0 00-1.1.456v1.933H9.645a.646.646 0 00-.456 1.1l3.91 3.91c.121.121.285.19.456.19h2.311l3.678 3.678c.004.003.01.004.013.008.25.24.632.243.886 0a.635.635 0 00.021-.907z"/><path d="M20 9.5c-1.65 0-3.208.42-4.613 1.075l1.978 1.977a8.33 8.33 0 012.635-.43c4.62 0 8.379 3.758 8.379 8.378S24.62 28.879 20 28.879c-4.62 0-8.379-3.759-8.379-8.379 0-.921.155-1.806.431-2.635l-1.977-1.978C9.42 17.292 9 18.851 9 20.5c0 6.042 4.958 11 11 11s11-4.958 11-11-4.958-11-11-11z"/><path d="M20 14.7a5.73 5.73 0 00-1.934.356v.776l1.49 1.49c.147-.02.292-.045.444-.045 1.777 0 3.223 1.446 3.223 3.223S21.777 23.723 20 23.723s-3.223-1.446-3.223-3.223c0-.152.025-.297.045-.444l-1.49-1.49h-.776a5.73 5.73 0 00-.357 1.934c0 3.199 2.602 5.8 5.801 5.8 3.199 0 5.8-2.601 5.8-5.8s-2.6-5.8-5.8-5.8z"/></g></g></svg>