<svg xmlns="http://www.w3.org/2000/svg" width="20" height="21" viewBox="0 0 20 21">
    <g fill="none" fill-rule="evenodd">
        <g fill="#1B61DB">
            <g>
                <g>
                    <g transform="translate(-20.000000, -4824.000000) translate(19.000000, 3874.500000) translate(1.000000, 876.000000) translate(0.000000, 74.000000)">
                        <circle cx="10" cy="10" r="10" opacity=".08"/>
                        <g fill-rule="nonzero">
                            <path d="M9.754 7.574c-.028-.083-.204-.206-.528-.368-.088-.05-.213-.12-.374-.208-.162-.088-.31-.17-.441-.243-.132-.074-.256-.146-.372-.215-.018-.014-.076-.055-.173-.122-.098-.067-.18-.117-.247-.15-.067-.031-.133-.048-.198-.048-.092 0-.208.066-.347.198-.139.132-.266.275-.381.43-.116.156-.239.3-.368.431-.13.132-.236.198-.32.198-.041 0-.094-.012-.156-.035-.062-.023-.11-.043-.142-.059-.033-.016-.088-.048-.167-.097l-.132-.08c-.634-.352-1.178-.754-1.631-1.208-.454-.454-.857-.997-1.208-1.631l-.08-.132c-.049-.079-.081-.134-.097-.167-.017-.032-.036-.08-.06-.142-.022-.063-.034-.115-.034-.156 0-.084.066-.19.198-.32s.275-.252.43-.368c.155-.115.299-.243.43-.381.133-.14.199-.255.199-.348 0-.064-.017-.13-.05-.197-.031-.068-.081-.15-.148-.247-.067-.097-.108-.155-.122-.173-.07-.116-.14-.24-.215-.372l-.243-.44C2.689.76 2.62.635 2.569.547 2.407.225 2.284.048 2.2.021 2.168.007 2.12 0 2.055 0c-.125 0-.288.023-.49.07-.2.046-.36.094-.475.145-.231.097-.477.38-.736.847C.118 1.497 0 1.928 0 2.353c0 .125.008.247.024.365s.045.25.087.4c.042.147.075.257.1.329l.143.385c.07.185.111.299.125.34.162.454.354.859.576 1.215.366.593.864 1.205 1.496 1.837.632.631 1.244 1.13 1.836 1.496.357.222.762.414 1.215.576.042.014.155.055.34.125.186.07.314.117.386.142.072.026.182.06.33.101.148.042.28.07.399.087.118.016.24.024.364.024.426 0 .857-.118 1.292-.354.467-.259.75-.504.846-.736.051-.115.1-.274.146-.475.047-.202.07-.365.07-.49 0-.065-.007-.113-.021-.146z" transform="translate(5.112675, 5.112372)"/>
                        </g>
                    </g>
                </g>
            </g>
        </g>
    </g>
</svg>
