<svg xmlns="http://www.w3.org/2000/svg" width="106" height="106"><g fill-rule="nonzero" fill="none"><circle cx="53" cy="53" r="53" fill="#1B61DB" opacity=".08"/><path fill="#132369" d="M53 33.91a1.46 1.46 0 00-1.461 1.46v11.786a1.46 1.46 0 002.922 0V35.37A1.46 1.46 0 0053 33.91zM48.617 53a1.46 1.46 0 00-1.461-1.461H35.37a1.46 1.46 0 000 2.922h11.786A1.46 1.46 0 0048.616 53zM53 57.383a1.46 1.46 0 00-1.461 1.461V70.63a1.46 1.46 0 002.922 0V58.844A1.46 1.46 0 0053 57.384zm17.63-5.844H58.844a1.46 1.46 0 000 2.922H70.63a1.46 1.46 0 000-2.922zm-28.994-11.97a1.462 1.462 0 00-2.066 2.067l8.264 8.265a1.46 1.46 0 002.067 0c.57-.57.57-1.496 0-2.067l-8.265-8.264zm6.198 16.53l-8.264 8.265a1.46 1.46 0 102.066 2.066l8.265-8.264c.57-.571.57-1.496 0-2.067a1.463 1.463 0 00-2.067 0zm10.332 0a1.463 1.463 0 00-2.067 0c-.57.57-.57 1.496 0 2.067l8.265 8.264c.286.286.66.428 1.033.428a1.462 1.462 0 001.033-2.494L58.166 56.1zm-1.033-5.77a1.46 1.46 0 001.033-.428l8.264-8.265a1.46 1.46 0 10-2.066-2.066L56.1 47.834a1.463 1.463 0 001.034 2.495z"/><path fill="#1B61DB" d="M53 36.79a4.4 4.4 0 004.395-4.395A4.4 4.4 0 0053 28a4.4 4.4 0 00-4.395 4.395A4.4 4.4 0 0053 36.789zM36.79 53a4.4 4.4 0 00-4.395-4.395A4.4 4.4 0 0028 53a4.4 4.4 0 004.395 4.395A4.4 4.4 0 0036.789 53zm36.815-4.395A4.4 4.4 0 0069.211 53a4.4 4.4 0 004.394 4.395A4.4 4.4 0 0078 53a4.4 4.4 0 00-4.395-4.395zM53 69.211a4.4 4.4 0 00-4.395 4.394A4.4 4.4 0 0053 78a4.4 4.4 0 004.395-4.395A4.4 4.4 0 0053 69.211zM35.391 35.39a4.4 4.4 0 000 6.215 4.4 4.4 0 006.215 0 4.391 4.391 0 000-6.215 4.4 4.4 0 00-6.215 0zm0 29.003a4.4 4.4 0 000 6.215 4.4 4.4 0 006.215 0 4.391 4.391 0 000-6.215 4.399 4.399 0 00-6.215 0zM70.61 41.606a4.4 4.4 0 000-6.215 4.4 4.4 0 00-6.215 0 4.391 4.391 0 000 6.215 4.4 4.4 0 006.215 0zm0 22.788a4.4 4.4 0 00-6.215 0 4.391 4.391 0 000 6.215 4.4 4.4 0 006.215 0 4.4 4.4 0 000-6.215z"/><path fill="#132369" d="M53 47c-3.308 0-6 2.692-6 6s2.692 6 6 6 6-2.692 6-6-2.692-6-6-6z"/></g></svg>