<svg xmlns="http://www.w3.org/2000/svg" width="106" height="106"><g fill="none" fill-rule="evenodd"><circle cx="53" cy="53" r="53" fill="#1B61DB" fill-rule="nonzero" opacity=".08"/><g transform="translate(28 32)"><path stroke="#1B61DB" stroke-width="6" d="M14.926 8.918v-4.68A3.567 3.567 0 0118.491.672H31.73a3.566 3.566 0 013.557 3.566v4.68"/><path stroke="#1B61DB" stroke-width="3" d="M48.598 25.295v15.221a5.107 5.107 0 01-5.106 5.107H6.722a5.108 5.108 0 01-5.083-5.107v-15.22c.39.325.846.562 1.336.696l18.173 4.82v1.434a3.893 3.893 0 007.786 0V30.86l18.353-4.87a3.51 3.51 0 001.311-.696h0z"/><path stroke="#132369" stroke-width="3" d="M49.803 12.86v9.837a3.432 3.432 0 01-1.205 2.614c-.39.326-.845.564-1.336.697L28.91 30.861l-2.197.582-1.64.426-1.778-.476-2.197-.582-18.147-4.82a3.515 3.515 0 01-1.312-.696A3.434 3.434 0 01.41 22.68v-9.836a3.932 3.932 0 013.935-3.942h41.558a3.933 3.933 0 013.901 3.959z"/><rect width="16.093" height="5.025" x="16.966" y="14.832" fill="#1B61DB" stroke="#1B61DB" stroke-width="3" rx="2.512"/><path fill="#132369" stroke="#132369" stroke-width="3" d="M28.91 29.107v3.139a3.893 3.893 0 01-7.787 0v-3.14a3.893 3.893 0 117.787.001z"/></g></g></svg>