<svg xmlns="http://www.w3.org/2000/svg" width="106" height="106"><g fill-rule="nonzero" fill="none"><circle cx="53" cy="53" r="53" fill="#1B61DB" opacity=".08"/><path fill="#1B61DB" d="M61.79 51.662h-5.86c-.81 0-1.465.662-1.465 1.48V77h8.789V53.141c0-.817-.656-1.479-1.465-1.479zm-11.72 5.916h-5.859c-.809 0-1.465.662-1.465 1.479V77h8.79V59.057c0-.817-.657-1.48-1.465-1.48zm-11.718 5.915h-5.86c-.808 0-1.464.662-1.464 1.479V77h8.789V64.972c0-.817-.656-1.479-1.465-1.479zm35.156-17.746h-5.86c-.808 0-1.464.662-1.464 1.479V77h8.789V47.226c0-.817-.656-1.48-1.465-1.48z"/><path fill="#132369" d="M77.846 31.335a1.47 1.47 0 00-.882-.754l-8.13-2.516c-.774-.24-1.593.2-1.83.98a1.482 1.482 0 00.971 1.848l4.39 1.358L28.87 51.79a1.483 1.483 0 00-.743 1.952c.243.551.778.878 1.339.878.199 0 .401-.04.595-.128l43.922-19.73-1.724 4.8a1.482 1.482 0 00.878 1.894 1.46 1.46 0 001.876-.886l2.9-8.07a1.497 1.497 0 00-.067-1.165zM76.535 75h-47.07c-.81 0-1.465.672-1.465 1.5s.656 1.5 1.465 1.5h47.07c.81 0 1.465-.672 1.465-1.5s-.656-1.5-1.465-1.5z"/></g></svg>